{"canvas_config":{"height":1080,"ratio":"original","width":1920},"color_space":0,"config":{"adjust_max_index":1,"attachment_info":[],"combination_max_index":31,"export_range":null,"extract_audio_last_index":1,"lyrics_recognition_id":"","lyrics_sync":true,"lyrics_taskinfo":[],"maintrack_adsorb":true,"material_save_mode":0,"original_sound_last_index":29,"record_audio_last_index":1,"sticker_max_index":1,"subtitle_recognition_id":"","subtitle_sync":true,"subtitle_taskinfo":[],"system_font_list":[],"video_mute":false,"zoom_info_params":{"offset_x":0.0,"offset_y":0.0,"zoom_ratio":0.763902594564402}},"cover":{"cover_draft_id":"D6A9AC94-D86C-4197-AF5D-4903E8E1A74A_material","cover_template":{"cover_template_category":"Trending","cover_template_category_id":"3000","cover_template_id":"6951535696465120514","cover_template_material_ids":["D7ED3E99-C61E-481B-9BB3-064CF1AD3E69","4CEAF0A6-EAFB-44B5-B3B6-92980947C289","31DE8FB8-B701-4013-8C80-2A075FE0A4BC"]},"sub_type":"local","type":"image","web_cover_info":null},"create_time":0,"duration":153033333,"extra_info":null,"fps":60.0,"free_render_index_mode_on":false,"group_container":{"groups":[]},"id":"9ED88949-7182-4A50-A259-6A9527E46106","keyframe_graph_list":[],"keyframes":{"adjusts":[],"audios":[],"effects":[],"filters":[],"handwrites":[],"stickers":[],"texts":[],"videos":[]},"last_modified_platform":{"app_id":359289,"app_source":"cc","app_version":"2.8.0","device_id":"948936faa69a32cbf7095a7bf5dab939","hard_disk_id":"0581bd5fe562604d067c674d4dc0396a","mac_address":"ec6c2a1c0eb2e0944f012b4bbe77b8d6","os":"mac","os_version":"14.1.1"},"materials":{"audio_balances":[],"audio_effects":[{"audio_adjust_params":[{"default_value":0.8,"max_value":1.0,"min_value":0.0,"name":"change_voice_param_quantity","parameterIndex":0,"portIndex":0,"value":0.3},{"default_value":0.762,"max_value":1.0,"min_value":0.0,"name":"change_voice_param_strength","parameterIndex":1,"portIndex":0,"value":0.0}],"category_id":"sound_effect","category_name":"音效","constant_material_id":"6948EE7C-6A01-4D24-B1A5-9D47C722FA98","id":"6A67C121-F95A-4725-A27F-6C96544CF404","name":"回音","path":"/Users/iluminar/Library/Containers/com.lemon.lvoverseas/Data/Movies/CapCut/User Data/Cache/effect/3202983/c37d02ae5853211ad84c13e6dca31b81","production_path":"","resource_id":"7021052523762946561","speaker_id":"","sub_type":1,"time_range":{"duration":0,"start":0},"type":"audio_effect"},{"audio_adjust_params":[{"default_value":0.8,"max_value":1.0,"min_value":0.0,"name":"change_voice_param_quantity","parameterIndex":0,"portIndex":0,"value":0.3},{"default_value":0.762,"max_value":1.0,"min_value":0.0,"name":"change_voice_param_strength","parameterIndex":1,"portIndex":0,"value":0.0}],"category_id":"sound_effect","category_name":"音效","constant_material_id":"85F77B53-B47A-4801-9F97-3A4CE0E215D9","id":"E74AFC72-564B-4815-9144-0DA3A005EA54","name":"回音","path":"/Users/iluminar/Library/Containers/com.lemon.lvoverseas/Data/Movies/CapCut/User Data/Cache/effect/3202983/c37d02ae5853211ad84c13e6dca31b81","production_path":"","resource_id":"7021052523762946561","speaker_id":"","sub_type":1,"time_range":{"duration":0,"start":0},"type":"audio_effect"},{"audio_adjust_params":[{"default_value":0.8,"max_value":1.0,"min_value":0.0,"name":"change_voice_param_quantity","parameterIndex":0,"portIndex":0,"value":0.1},{"default_value":0.762,"max_value":1.0,"min_value":0.0,"name":"change_voice_param_strength","parameterIndex":1,"portIndex":0,"value":0.0}],"category_id":"sound_effect","category_name":"音效","constant_material_id":"106A339D-5419-4584-B0DB-7AC406ED038B","id":"838395B3-55E2-4DF1-935A-881A0AF22017","name":"回音","path":"/Users/iluminar/Library/Containers/com.lemon.lvoverseas/Data/Movies/CapCut/User Data/Cache/effect/3202983/c37d02ae5853211ad84c13e6dca31b81","production_path":"","resource_id":"7021052523762946561","speaker_id":"","sub_type":1,"time_range":{"duration":0,"start":0},"type":"audio_effect"},{"audio_adjust_params":[{"default_value":0.8,"max_value":1.0,"min_value":0.0,"name":"change_voice_param_quantity","parameterIndex":0,"portIndex":0,"value":0.1},{"default_value":0.762,"max_value":1.0,"min_value":0.0,"name":"change_voice_param_strength","parameterIndex":1,"portIndex":0,"value":0.0}],"category_id":"sound_effect","category_name":"音效","constant_material_id":"67C80BEE-68C9-4724-8A1A-096E3EC08F33","id":"739B211F-F976-473B-A8CA-B115D1864D54","name":"回音","path":"/Users/iluminar/Library/Containers/com.lemon.lvoverseas/Data/Movies/CapCut/User Data/Cache/effect/3202983/c37d02ae5853211ad84c13e6dca31b81","production_path":"","resource_id":"7021052523762946561","speaker_id":"","sub_type":1,"time_range":{"duration":0,"start":0},"type":"audio_effect"},{"audio_adjust_params":[{"default_value":0.8,"max_value":1.0,"min_value":0.0,"name":"change_voice_param_quantity","parameterIndex":0,"portIndex":0,"value":0.45},{"default_value":0.762,"max_value":1.0,"min_value":0.0,"name":"change_voice_param_strength","parameterIndex":1,"portIndex":0,"value":0.15}],"category_id":"sound_effect","category_name":"音效","constant_material_id":"42FE3321-0E66-4B27-A339-E402E90F7DEE","id":"D937D49D-065E-4D7E-A077-C85EC1FC14BB","name":"回音","path":"/Users/iluminar/Library/Containers/com.lemon.lvoverseas/Data/Movies/CapCut/User Data/Cache/effect/3202983/c37d02ae5853211ad84c13e6dca31b81","production_path":"","resource_id":"7021052523762946561","speaker_id":"","sub_type":1,"time_range":{"duration":0,"start":0},"type":"audio_effect"},{"audio_adjust_params":[{"default_value":0.8,"max_value":1.0,"min_value":0.0,"name":"change_voice_param_quantity","parameterIndex":0,"portIndex":0,"value":0.4},{"default_value":0.762,"max_value":1.0,"min_value":0.0,"name":"change_voice_param_strength","parameterIndex":1,"portIndex":0,"value":0.0}],"category_id":"sound_effect","category_name":"音效","constant_material_id":"3E27E990-4AC7-457E-B8C6-3156161D4AE7","id":"07DB1C49-F56D-4CD0-A34F-A092948C3596","name":"回音","path":"/Users/iluminar/Library/Containers/com.lemon.lvoverseas/Data/Movies/CapCut/User Data/Cache/effect/3202983/c37d02ae5853211ad84c13e6dca31b81","production_path":"","resource_id":"7021052523762946561","speaker_id":"","sub_type":1,"time_range":{"duration":0,"start":0},"type":"audio_effect"},{"audio_adjust_params":[{"default_value":0.8,"max_value":1.0,"min_value":0.0,"name":"change_voice_param_quantity","parameterIndex":0,"portIndex":0,"value":0.15},{"default_value":0.762,"max_value":1.0,"min_value":0.0,"name":"change_voice_param_strength","parameterIndex":1,"portIndex":0,"value":0.0}],"category_id":"sound_effect","category_name":"音效","constant_material_id":"A68E2973-296A-45EC-BC64-E3AB011322ED","id":"DB8E53FF-DFAE-4AD3-A434-8AA4F4CCC06C","name":"回音","path":"/Users/iluminar/Library/Containers/com.lemon.lvoverseas/Data/Movies/CapCut/User Data/Cache/effect/3202983/c37d02ae5853211ad84c13e6dca31b81","production_path":"","resource_id":"7021052523762946561","speaker_id":"","sub_type":1,"time_range":{"duration":0,"start":0},"type":"audio_effect"},{"audio_adjust_params":[{"default_value":0.8,"max_value":1.0,"min_value":0.0,"name":"change_voice_param_quantity","parameterIndex":0,"portIndex":0,"value":0.15},{"default_value":0.762,"max_value":1.0,"min_value":0.0,"name":"change_voice_param_strength","parameterIndex":1,"portIndex":0,"value":0.0}],"category_id":"sound_effect","category_name":"音效","constant_material_id":"A68E2973-296A-45EC-BC64-E3AB011322ED","id":"775DAB8E-39A3-4792-A4A3-58C00659FC87","name":"回音","path":"/Users/iluminar/Library/Containers/com.lemon.lvoverseas/Data/Movies/CapCut/User Data/Cache/effect/3202983/c37d02ae5853211ad84c13e6dca31b81","production_path":"","resource_id":"7021052523762946561","speaker_id":"","sub_type":1,"time_range":{"duration":0,"start":0},"type":"audio_effect"},{"audio_adjust_params":[{"default_value":0.8,"max_value":1.0,"min_value":0.0,"name":"change_voice_param_quantity","parameterIndex":0,"portIndex":0,"value":0.15},{"default_value":0.762,"max_value":1.0,"min_value":0.0,"name":"change_voice_param_strength","parameterIndex":1,"portIndex":0,"value":0.0}],"category_id":"sound_effect","category_name":"音效","constant_material_id":"A68E2973-296A-45EC-BC64-E3AB011322ED","id":"D6B0D578-15D1-4FE7-AEAD-DD86C14ABDC7","name":"回音","path":"/Users/iluminar/Library/Containers/com.lemon.lvoverseas/Data/Movies/CapCut/User Data/Cache/effect/3202983/c37d02ae5853211ad84c13e6dca31b81","production_path":"","resource_id":"7021052523762946561","speaker_id":"","sub_type":1,"time_range":{"duration":0,"start":0},"type":"audio_effect"}],"audio_fades":[{"fade_in_duration":0,"fade_out_duration":0,"fade_type":0,"id":"754DE386-7B5F-45E6-8905-FE1F72A6D789","type":"audio_fade"},{"fade_in_duration":0,"fade_out_duration":2666666,"fade_type":0,"id":"E5D1D66B-C22B-4492-B58C-EEB27ED5F57C","type":"audio_fade"},{"fade_in_duration":0,"fade_out_duration":0,"fade_type":0,"id":"CB848796-1CC0-4B44-968C-04C3466D86A8","type":"audio_fade"},{"fade_in_duration":0,"fade_out_duration":0,"fade_type":0,"id":"0509088E-769F-4349-BCC1-F05933E4DF78","type":"audio_fade"},{"fade_in_duration":0,"fade_out_duration":1899998,"fade_type":0,"id":"BA26EDB8-0BD7-4F97-ADF5-BC4959B74360","type":"audio_fade"}],"audios":[{"app_id":0,"category_id":"","category_name":"local","check_flag":1,"duration":5000000,"effect_id":"","formula_id":"","id":"F1EEF99C-7C67-4DDC-9C53-12CC67BE167F","intensifies_path":"","local_material_id":"33f0e774-b3eb-43cd-9eab-4bd9712dd3a9","music_id":"890da0e7-f137-4216-94c1-577db8ef9e63","name":"Day 03.wav","path":"/Volumes/Work/dev/la-vaguelette-chiyu-cover/external/Day 03.wav","query":"","request_id":"","resource_id":"","search_id":"","source_platform":0,"team_id":"","text_id":"","tone_category_id":"","tone_category_name":"","tone_effect_id":"","tone_effect_name":"","tone_speaker":"","tone_type":"","type":"extract_music","video_id":"","wave_points":[]},{"app_id":0,"category_id":"","category_name":"local","check_flag":1,"duration":5216666,"effect_id":"","formula_id":"","id":"FC0CF5D1-CB71-4352-8C63-AA0A72051283","intensifies_path":"","local_material_id":"6ffe2b35-bb6e-4552-b70b-ef7ec2dd8932","music_id":"d8702905-3ce4-453c-ba35-2787d6c429c4","name":"Day 04.wav","path":"/Volumes/Work/dev/la-vaguelette-chiyu-cover/external/Day 04.wav","query":"","request_id":"","resource_id":"","search_id":"","source_platform":0,"team_id":"","text_id":"","tone_category_id":"","tone_category_name":"","tone_effect_id":"","tone_effect_name":"","tone_speaker":"","tone_type":"","type":"extract_music","video_id":"","wave_points":[]},{"app_id":0,"category_id":"","category_name":"local","check_flag":1,"duration":5666666,"effect_id":"","formula_id":"","id":"64A63A7C-2F70-4A45-B33F-CA3CA3680E0C","intensifies_path":"","local_material_id":"6316a329-725d-47f9-8109-8f983c7703e7","music_id":"f90a24e1-7c58-47af-b7b1-434f718ab24c","name":"Day 05.wav","path":"/Volumes/Work/dev/la-vaguelette-chiyu-cover/external/Day 05.wav","query":"","request_id":"","resource_id":"","search_id":"","source_platform":0,"team_id":"","text_id":"","tone_category_id":"","tone_category_name":"","tone_effect_id":"","tone_effect_name":"","tone_speaker":"","tone_type":"","type":"extract_music","video_id":"","wave_points":[]},{"app_id":0,"category_id":"","category_name":"local","check_flag":1,"duration":9600000,"effect_id":"","formula_id":"","id":"75A35BEA-BEB5-4090-813B-D6BFB05D2571","intensifies_path":"","local_material_id":"25affbf4-3613-475a-84ca-9ef45715bb27","music_id":"68575072-ebc2-488b-a982-af1533f59d3e","name":"Lumine 01.wav","path":"/Volumes/Work/dev/la-vaguelette-chiyu-cover/external/Lumine 01.wav","query":"","request_id":"","resource_id":"","search_id":"","source_platform":0,"team_id":"","text_id":"","tone_category_id":"","tone_category_name":"","tone_effect_id":"","tone_effect_name":"","tone_speaker":"","tone_type":"","type":"extract_music","video_id":"","wave_points":[]},{"app_id":0,"category_id":"","category_name":"local","check_flag":1,"duration":9800000,"effect_id":"","formula_id":"","id":"3A04AAEF-484D-4D8E-AD36-AC3E054A7716","intensifies_path":"","local_material_id":"6cee646a-9cb4-4ac6-8f57-7e4a58486392","music_id":"4c8a8124-ad4b-4337-83a9-02a414e30642","name":"Furina 01.wav","path":"/Volumes/Work/dev/la-vaguelette-chiyu-cover/external/Furina 01.wav","query":"","request_id":"","resource_id":"","search_id":"","source_platform":0,"team_id":"","text_id":"","tone_category_id":"","tone_category_name":"","tone_effect_id":"","tone_effect_name":"","tone_speaker":"","tone_type":"","type":"extract_music","video_id":"","wave_points":[]},{"app_id":0,"category_id":"","category_name":"local","check_flag":1,"duration":149533333,"effect_id":"","formula_id":"","id":"445A59A6-9921-4610-AE8E-54FACD6A9528","intensifies_path":"","local_material_id":"af534bdd-0dd8-4a2b-8ee0-1a9c158a1187","music_id":"d6411472-172a-499f-b813-3e4014e0b8fc","name":"La vaguelette [lm3t3myPspk].wav","path":"/Volumes/Work/dev/la-vaguelette-chiyu-cover/external/La vaguelette [lm3t3myPspk].wav","query":"","request_id":"","resource_id":"","search_id":"","source_platform":0,"team_id":"","text_id":"","tone_category_id":"","tone_category_name":"","tone_effect_id":"","tone_effect_name":"","tone_speaker":"","tone_type":"","type":"extract_music","video_id":"","wave_points":[]},{"app_id":0,"category_id":"","category_name":"local","check_flag":1,"duration":6133333,"effect_id":"","formula_id":"","id":"2D4E24FA-BF4E-4306-A6E9-3D249FD16F51","intensifies_path":"","local_material_id":"24b7cea7-fc47-4a54-a8dd-848a1704cfdd","music_id":"e9abdd69-17b1-46e1-8419-d7c79b94edfe","name":"Rolling Slideshow.WAV","path":"/Volumes/Work/dev/la-vaguelette-chiyu-cover/external/Rolling Slideshow.WAV","query":"","request_id":"","resource_id":"","search_id":"","source_platform":0,"team_id":"","text_id":"","tone_category_id":"","tone_category_name":"","tone_effect_id":"","tone_effect_name":"","tone_speaker":"","tone_type":"","type":"extract_music","video_id":"","wave_points":[]},{"app_id":0,"category_id":"","category_name":"local","check_flag":1,"duration":6133333,"effect_id":"","formula_id":"","id":"A3E11BA4-BEFD-41ED-8C1F-4A0F772D7864","intensifies_path":"","local_material_id":"24b7cea7-fc47-4a54-a8dd-848a1704cfdd","music_id":"e9abdd69-17b1-46e1-8419-d7c79b94edfe","name":"Rolling Slideshow.WAV","path":"/Volumes/Work/dev/la-vaguelette-chiyu-cover/external/Rolling Slideshow.WAV","query":"","request_id":"","resource_id":"","search_id":"","source_platform":0,"team_id":"","text_id":"","tone_category_id":"","tone_category_name":"","tone_effect_id":"","tone_effect_name":"","tone_speaker":"","tone_type":"","type":"extract_music","video_id":"","wave_points":[]}],"beats":[{"ai_beats":{"beat_speed_infos":[],"beats_path":"","beats_url":"","melody_path":"","melody_percents":[0.0],"melody_url":""},"enable_ai_beats":false,"gear":404,"gear_count":0,"id":"F2811FA8-C785-4483-AAC8-3AA36059FAB0","mode":404,"type":"beats","user_beats":[],"user_delete_ai_beats":null},{"ai_beats":{"beat_speed_infos":[],"beats_path":"","beats_url":"","melody_path":"","melody_percents":[0.0],"melody_url":""},"enable_ai_beats":false,"gear":404,"gear_count":0,"id":"BBD525F1-35E8-4BA4-BB6F-23E3DF16C954","mode":404,"type":"beats","user_beats":[],"user_delete_ai_beats":null},{"ai_beats":{"beat_speed_infos":[],"beats_path":"","beats_url":"","melody_path":"","melody_percents":[0.0],"melody_url":""},"enable_ai_beats":false,"gear":404,"gear_count":0,"id":"4D92BAB2-431B-4D12-A48B-3397F0F884D8","mode":404,"type":"beats","user_beats":[],"user_delete_ai_beats":null},{"ai_beats":{"beat_speed_infos":[],"beats_path":"","beats_url":"","melody_path":"","melody_percents":[0.0],"melody_url":""},"enable_ai_beats":false,"gear":404,"gear_count":0,"id":"941AD368-E05D-473C-9B58-CD9905CA1D94","mode":404,"type":"beats","user_beats":[],"user_delete_ai_beats":null},{"ai_beats":{"beat_speed_infos":[],"beats_path":"","beats_url":"","melody_path":"","melody_percents":[0.0],"melody_url":""},"enable_ai_beats":false,"gear":404,"gear_count":0,"id":"AE939DD1-928B-430F-BC8C-5ADF82971616","mode":404,"type":"beats","user_beats":[],"user_delete_ai_beats":null},{"ai_beats":{"beat_speed_infos":[],"beats_path":"","beats_url":"","melody_path":"","melody_percents":[0.0],"melody_url":""},"enable_ai_beats":false,"gear":404,"gear_count":0,"id":"CFED5FD3-6BBD-4250-A704-4CECBCDE66C3","mode":404,"type":"beats","user_beats":[],"user_delete_ai_beats":null},{"ai_beats":{"beat_speed_infos":[],"beats_path":"","beats_url":"","melody_path":"","melody_percents":[0.0],"melody_url":""},"enable_ai_beats":false,"gear":404,"gear_count":0,"id":"2C85AE24-9253-4F49-B633-AC3ABD21BC7C","mode":404,"type":"beats","user_beats":[],"user_delete_ai_beats":null},{"ai_beats":{"beat_speed_infos":[],"beats_path":"","beats_url":"","melody_path":"","melody_percents":[0.0],"melody_url":""},"enable_ai_beats":false,"gear":404,"gear_count":0,"id":"C25C4DFA-46D2-4D8F-944A-173F8EFF92FF","mode":404,"type":"beats","user_beats":[],"user_delete_ai_beats":null}],"canvases":[{"album_image":"","blur":0.0,"color":"","id":"4D527B12-5DC7-4C10-9277-CFF779165EE4","image":"","image_id":"","image_name":"","source_platform":0,"team_id":"","type":"canvas_color"},{"album_image":"","blur":0.0,"color":"","id":"C2628AC0-5029-4F3F-8DF9-072BF52A4DE3","image":"","image_id":"","image_name":"","source_platform":0,"team_id":"","type":"canvas_color"},{"album_image":"","blur":0.0,"color":"","id":"61A5E704-93B6-4E51-A759-50A21860C2BB","image":"","image_id":"","image_name":"","source_platform":0,"team_id":"","type":"canvas_color"},{"album_image":"","blur":0.0,"color":"","id":"DEB29826-69E4-45D5-8E23-0E449E792609","image":"","image_id":"","image_name":"","source_platform":0,"team_id":"","type":"canvas_color"},{"album_image":"","blur":0.0,"color":"","id":"E380D915-85A3-4D76-B0F0-96E872B3E3B4","image":"","image_id":"","image_name":"","source_platform":0,"team_id":"","type":"canvas_color"},{"album_image":"","blur":0.0,"color":"","id":"7B35BAB5-534A-4302-BFFD-7AA6FDCC5005","image":"","image_id":"","image_name":"","source_platform":0,"team_id":"","type":"canvas_color"},{"album_image":"","blur":0.0,"color":"","id":"7266B8F3-C7C5-4CFC-AFE5-0E83D323A134","image":"","image_id":"","image_name":"","source_platform":0,"team_id":"","type":"canvas_color"},{"album_image":"","blur":0.0,"color":"","id":"EDDCEEFE-B621-44FF-B639-0CD926675271","image":"","image_id":"","image_name":"","source_platform":0,"team_id":"","type":"canvas_color"},{"album_image":"","blur":0.0,"color":"","id":"68603690-E47E-4C0C-B89C-3F2006834464","image":"","image_id":"","image_name":"","source_platform":0,"team_id":"","type":"canvas_color"},{"album_image":"","blur":0.0,"color":"","id":"150247CD-2B49-4A2C-92F4-B3150CEE0AAC","image":"","image_id":"","image_name":"","source_platform":0,"team_id":"","type":"none"},{"album_image":"","blur":0.0,"color":"","id":"6C7F781C-84F9-47C4-870C-A1BD969D20FB","image":"","image_id":"","image_name":"","source_platform":0,"team_id":"","type":"canvas_color"},{"album_image":"","blur":0.0,"color":"","id":"93C78CA3-6314-42D5-9CC8-1C434C7DEE94","image":"","image_id":"","image_name":"","source_platform":0,"team_id":"","type":"none"},{"album_image":"","blur":0.0,"color":"","id":"7C973957-A434-4B09-98E7-FE59852DCF98","image":"","image_id":"","image_name":"","source_platform":0,"team_id":"","type":"canvas_color"},{"album_image":"","blur":0.0,"color":"","id":"C0245B20-74E4-401A-A187-A0EE2167F1B7","image":"","image_id":"","image_name":"","source_platform":0,"team_id":"","type":"canvas_color"},{"album_image":"","blur":0.0,"color":"","id":"06021585-7EFB-45A1-905B-C3B8AF7868D0","image":"","image_id":"","image_name":"","source_platform":0,"team_id":"","type":"none"},{"album_image":"","blur":0.0,"color":"","id":"BCC2FBE0-8D50-498F-AD49-568018661AC1","image":"","image_id":"","image_name":"","source_platform":0,"team_id":"","type":"canvas_color"},{"album_image":"","blur":0.0,"color":"","id":"FD7A1DC9-5425-464E-8730-5847A96A21F8","image":"","image_id":"","image_name":"","source_platform":0,"team_id":"","type":"canvas_color"},{"album_image":"","blur":0.0,"color":"","id":"D6A88D3A-8F7E-4AE1-AD9A-44EA82FF335B","image":"","image_id":"","image_name":"","source_platform":0,"team_id":"","type":"canvas_color"},{"album_image":"","blur":0.0,"color":"","id":"45D93504-A671-4E1C-B9BE-1306E517BFB2","image":"","image_id":"","image_name":"","source_platform":0,"team_id":"","type":"canvas_color"},{"album_image":"","blur":0.0,"color":"","id":"A0FF7145-757C-407F-A4D0-4F1390A3680E","image":"","image_id":"","image_name":"","source_platform":0,"team_id":"","type":"canvas_color"},{"album_image":"","blur":0.0,"color":"","id":"FFCB59E9-44B4-43FB-8258-1922EC0338C3","image":"","image_id":"","image_name":"","source_platform":0,"team_id":"","type":"canvas_color"},{"album_image":"","blur":0.0,"color":"","id":"A20E9ADE-D85D-4B52-B5DE-274EC6B58ABF","image":"","image_id":"","image_name":"","source_platform":0,"team_id":"","type":"canvas_color"},{"album_image":"","blur":0.0,"color":"","id":"33DE8819-E9E7-4E39-959E-99EA3ADABC0C","image":"","image_id":"","image_name":"","source_platform":0,"team_id":"","type":"none"},{"album_image":"","blur":0.0,"color":"","id":"7DE55FCD-578B-4344-AEF9-D43D9FD1306B","image":"","image_id":"","image_name":"","source_platform":0,"team_id":"","type":"canvas_color"},{"album_image":"","blur":0.0,"color":"","id":"E89F9F43-2C19-4B86-B57E-C925AD5B8086","image":"","image_id":"","image_name":"","source_platform":0,"team_id":"","type":"canvas_color"},{"album_image":"","blur":0.0,"color":"","id":"DFD58D54-E173-45A0-925A-C7AC6E0DF9CD","image":"","image_id":"","image_name":"","source_platform":0,"team_id":"","type":"canvas_color"},{"album_image":"","blur":0.0,"color":"","id":"66C21CFE-26FF-498B-B562-71DBC4B0E118","image":"","image_id":"","image_name":"","source_platform":0,"team_id":"","type":"canvas_color"},{"album_image":"","blur":0.0,"color":"","id":"84EACE05-AB6A-4F5D-8B48-5B8D5AD07021","image":"","image_id":"","image_name":"","source_platform":0,"team_id":"","type":"canvas_color"},{"album_image":"","blur":0.0,"color":"","id":"414570E3-6714-4669-A5EE-B0F5AD0F40A3","image":"","image_id":"","image_name":"","source_platform":0,"team_id":"","type":"canvas_color"},{"album_image":"","blur":0.0,"color":"","id":"B0550369-1574-44FA-8823-4A264EF35D9D","image":"","image_id":"","image_name":"","source_platform":0,"team_id":"","type":"canvas_color"},{"album_image":"","blur":0.0,"color":"","id":"56E7A3EA-A5C8-4224-92A1-D7B2742E34F0","image":"","image_id":"","image_name":"","source_platform":0,"team_id":"","type":"canvas_color"},{"album_image":"","blur":0.0,"color":"","id":"F4AB695A-E8AF-4DC1-8D2B-6156FED59D29","image":"","image_id":"","image_name":"","source_platform":0,"team_id":"","type":"canvas_color"},{"album_image":"","blur":0.0,"color":"","id":"669AC2A5-80E1-44C7-9832-F493D861D31C","image":"","image_id":"","image_name":"","source_platform":0,"team_id":"","type":"canvas_color"},{"album_image":"","blur":0.0,"color":"","id":"6CE89021-A89E-40CD-911C-9F9EC60E9CED","image":"","image_id":"","image_name":"","source_platform":0,"team_id":"","type":"canvas_color"},{"album_image":"","blur":0.0,"color":"","id":"759F7F40-7474-46A9-82B7-630431FF1D1E","image":"","image_id":"","image_name":"","source_platform":0,"team_id":"","type":"canvas_color"},{"album_image":"","blur":0.0,"color":"","id":"299C7903-933C-41AC-90B6-46FF175DC663","image":"","image_id":"","image_name":"","source_platform":0,"team_id":"","type":"canvas_color"},{"album_image":"","blur":0.0,"color":"","id":"39C7ACAF-FAB9-420C-928E-0CB57C1BF26E","image":"","image_id":"","image_name":"","source_platform":0,"team_id":"","type":"canvas_color"},{"album_image":"","blur":0.0,"color":"","id":"DCE7DBD1-FF1F-4C71-B778-1BBDA2168C3C","image":"","image_id":"","image_name":"","source_platform":0,"team_id":"","type":"canvas_color"},{"album_image":"","blur":0.0,"color":"","id":"FF14416B-00B5-43F7-BC00-B5D5DF65D185","image":"","image_id":"","image_name":"","source_platform":0,"team_id":"","type":"canvas_color"},{"album_image":"","blur":0.0,"color":"","id":"C5B09A86-11E1-42D8-B672-D499F0250A3A","image":"","image_id":"","image_name":"","source_platform":0,"team_id":"","type":"canvas_color"},{"album_image":"","blur":0.0,"color":"","id":"82874E2F-8EA6-474F-BFB7-B6576053AFF6","image":"","image_id":"","image_name":"","source_platform":0,"team_id":"","type":"canvas_color"},{"album_image":"","blur":0.0,"color":"","id":"722F77F6-33C8-426A-8E23-1EC7F00E0295","image":"","image_id":"","image_name":"","source_platform":0,"team_id":"","type":"canvas_color"},{"album_image":"","blur":0.0,"color":"","id":"FD948115-5FDE-4475-A035-653EB13293A7","image":"","image_id":"","image_name":"","source_platform":0,"team_id":"","type":"canvas_color"}],"chromas":[{"color":"#000000ff","id":"57C98CA0-1B3C-461C-9D76-92420CD2492E","intensity_value":0.8,"path":"/Applications/CapCut.app/Contents/MacOS/../Resources/Chroma","shadow_value":0.0,"type":"chroma"}],"color_curves":[{"blue":[],"green":[],"id":"ACFA6A5C-134C-4E24-974A-9EB1384C043D","luma":[{"anchor":{"x":0.0,"y":0.0},"left_control":{"x":0.0,"y":0.0},"right_control":{"x":0.035790895061728355,"y":0.0}},{"anchor":{"x":0.19572723765432098,"y":0.13930068597560974},"left_control":{"x":0.09786361882716049,"y":0.029490221670909172},"right_control":{"x":0.31987268518518525,"y":0.34749915311653123}},{"anchor":{"x":0.6811439043209877,"y":0.9822360899390243},"left_control":{"x":0.5323726851851853,"y":0.7983449779810298},"right_control":{"x":0.8299151234567901,"y":0.9911180449695122}},{"anchor":{"x":1.0,"y":1.0},"left_control":{"x":0.9149575617283949,"y":1.0},"right_control":{"x":1.0,"y":1.0}}],"panel":"curve-hsl","path":"/Applications/CapCut.app/Contents/MacOS/../Resources/Curves","red":[],"resource_id":"7206147814030578178","type":"color_curves"}],"digital_humans":[],"drafts":[{"category_id":"","category_name":"","combination_id":"CB285D28-D646-40EA-8B46-F97F42912285","draft":{"canvas_config":{"height":1080,"ratio":"original","width":1920},"color_space":-1,"config":{"adjust_max_index":1,"attachment_info":[],"combination_max_index":1,"export_range":null,"extract_audio_last_index":1,"lyrics_recognition_id":"","lyrics_sync":true,"lyrics_taskinfo":[],"maintrack_adsorb":false,"material_save_mode":0,"original_sound_last_index":1,"record_audio_last_index":1,"sticker_max_index":1,"subtitle_recognition_id":"","subtitle_sync":true,"subtitle_taskinfo":[],"system_font_list":[],"video_mute":false,"zoom_info_params":null},"cover":null,"create_time":0,"duration":22050000,"extra_info":null,"fps":60.0,"free_render_index_mode_on":false,"group_container":{"groups":[{"group_index":0,"group_main_id":"","group_members":["1D197550-19B2-476F-A5C8-6DD0EBB2A369","9D37B8DA-6A00-4CC2-9E9C-1415CF314B05"],"id":"6225BCE1-99BC-4A0F-AD65-C400BB61D801","is_expand":true,"material_draft":{"category_id":"","category_name":"","combination_id":"","draft":{"canvas_config":{"height":0,"ratio":"original","width":0},"color_space":-1,"config":{"adjust_max_index":1,"attachment_info":[],"combination_max_index":1,"export_range":null,"extract_audio_last_index":1,"lyrics_recognition_id":"","lyrics_sync":true,"lyrics_taskinfo":[],"maintrack_adsorb":true,"material_save_mode":0,"original_sound_last_index":1,"record_audio_last_index":1,"sticker_max_index":1,"subtitle_recognition_id":"","subtitle_sync":true,"subtitle_taskinfo":[],"system_font_list":[],"video_mute":false,"zoom_info_params":null},"cover":null,"create_time":0,"duration":0,"extra_info":null,"fps":30.0,"free_render_index_mode_on":false,"group_container":null,"id":"3EF71FA2-BE91-4D88-AD04-9D22976B2CB6","keyframe_graph_list":[],"keyframes":{"adjusts":[],"audios":[],"effects":[],"filters":[],"handwrites":[],"stickers":[],"texts":[],"videos":[]},"last_modified_platform":{"app_id":0,"app_source":"","app_version":"","device_id":"","hard_disk_id":"","mac_address":"","os":"","os_version":""},"materials":{"audio_balances":[],"audio_effects":[],"audio_fades":[],"audios":[],"beats":[],"canvases":[],"chromas":[],"color_curves":[],"digital_humans":[],"drafts":[],"effects":[],"flowers":[],"green_screens":[],"handwrites":[],"hsl":[],"images":[],"log_color_wheels":[],"loudnesses":[],"manual_deformations":[],"masks":[],"material_animations":[],"material_colors":[],"placeholders":[],"plugin_effects":[],"primary_color_wheels":[],"realtime_denoises":[],"shapes":[],"smart_crops":[],"smart_relights":[],"sound_channel_mappings":[],"speeds":[],"stickers":[],"tail_leaders":[],"text_templates":[],"texts":[],"transitions":[],"video_effects":[],"video_trackings":[],"videos":[],"vocal_beautifys":[],"vocal_separations":[]},"mutable_config":null,"name":"","new_version":"89.0.0","platform":{"app_id":0,"app_source":"","app_version":"","device_id":"","hard_disk_id":"","mac_address":"","os":"","os_version":""},"relationships":[],"render_index_track_mode_on":false,"retouch_cover":null,"source":"default","static_cover_image_path":"","tracks":[],"update_time":0,"version":360000},"formula_id":"","id":"875FA8B0-1B27-47B3-8B04-DB2DAC286D9C","name":"","precompile_combination":false,"type":"composition"},"name":""}]},"id":"69A9E652-26AC-430A-BFC9-EA094C2643BF","keyframe_graph_list":[],"keyframes":{"adjusts":[],"audios":[],"effects":[],"filters":[],"handwrites":[],"stickers":[],"texts":[],"videos":[]},"last_modified_platform":{"app_id":0,"app_source":"","app_version":"","device_id":"","hard_disk_id":"","mac_address":"","os":"","os_version":""},"materials":{"audio_balances":[],"audio_effects":[],"audio_fades":[{"fade_in_duration":0,"fade_out_duration":3466666,"fade_type":0,"id":"EA83B9C3-1AEC-4061-86FA-D7B3D707739A","type":"audio_fade"}],"audios":[{"app_id":0,"category_id":"","category_name":"","check_flag":3,"duration":21100000,"effect_id":"","formula_id":"","id":"E4D7ED73-02A3-41C3-99FF-ED383B82DE0D","intensifies_path":"","local_material_id":"20ff5c42-a2c5-4950-8451-05b6a4360343","music_id":"","name":"Furina Accession Speech 01","path":"/Volumes/Work/dev/la-vaguelette-chiyu-cover/external/Furina Accession Speech 01.mp4","query":"","request_id":"","resource_id":"","search_id":"","source_platform":0,"team_id":"","text_id":"","tone_category_id":"","tone_category_name":"","tone_effect_id":"","tone_effect_name":"","tone_speaker":"","tone_type":"","type":"video_original_sound","video_id":"","wave_points":[]}],"beats":[{"ai_beats":{"beat_speed_infos":[],"beats_path":"","beats_url":"","melody_path":"","melody_percents":[0.6],"melody_url":""},"enable_ai_beats":false,"gear":404,"gear_count":0,"id":"23D5DAD3-79AF-4FDD-B809-1B81CC1730AC","mode":404,"type":"beats","user_beats":[],"user_delete_ai_beats":null}],"canvases":[{"album_image":"","blur":0.0,"color":"","id":"01CF4B27-5D0D-4C11-B807-8266C0BBA463","image":"","image_id":"","image_name":"","source_platform":0,"team_id":"","type":"canvas_color"}],"chromas":[],"color_curves":[],"digital_humans":[],"drafts":[],"effects":[],"flowers":[],"green_screens":[],"handwrites":[],"hsl":[],"images":[],"log_color_wheels":[],"loudnesses":[{"enable":false,"file_id":"","id":"656E1342-F3ED-4799-86BF-89323200043C","loudness_param":null,"target_loudness":0.0,"time_range":null}],"manual_deformations":[],"masks":[],"material_animations":[{"animations":[],"id":"3C75614D-848B-4B3A-BCDB-0A9E67260747","type":"sticker_animation"}],"material_colors":[],"placeholders":[],"plugin_effects":[],"primary_color_wheels":[],"realtime_denoises":[{"denoise_mode":1.0,"denoise_rate":1.0,"id":"61B0FA2E-229D-4F45-9F00-9AA2FD2E5342","is_denoise":false,"path":"/Applications/CapCut.app/Contents/MacOS/../Resources/audiosami/unet_denoise_44k_music_model_v1.0.model","sami_name":"denoise_v2","sami_type":0,"sami_version":"1.0","type":"realtime_denoise"}],"shapes":[],"smart_crops":[],"smart_relights":[],"sound_channel_mappings":[{"audio_channel_mapping":0,"id":"29A4ACB5-0F8C-463B-BFB3-6B4FD6AFBB15","is_config_open":false,"type":"none"},{"audio_channel_mapping":0,"id":"E1A48EEA-B7FF-49D8-8FED-13179470BA6C","is_config_open":false,"type":"none"}],"speeds":[{"curve_speed":null,"id":"A11F1835-9D46-407F-9D21-EB0F3EF5D6E0","mode":0,"speed":1.0,"type":"speed"},{"curve_speed":null,"id":"5D0E78F1-AB9C-4228-A032-F4B3E08D3435","mode":0,"speed":1.0,"type":"speed"}],"stickers":[],"tail_leaders":[],"text_templates":[],"texts":[],"transitions":[],"video_effects":[],"video_trackings":[],"videos":[{"aigc_type":"none","audio_fade":null,"cartoon_path":"","category_id":"","category_name":"local","check_flag":63487,"crop":{"lower_left_x":0.0,"lower_left_y":1.0,"lower_right_x":1.0,"lower_right_y":1.0,"upper_left_x":0.0,"upper_left_y":0.0,"upper_right_x":1.0,"upper_right_y":0.0},"crop_ratio":"free","crop_scale":1.0,"duration":10800000000,"extra_type_option":0,"formula_id":"","freeze":null,"gameplay":null,"has_audio":false,"height":1080,"id":"5F7CA7FD-1622-44F5-84F6-EDD28FDB41EA","intensifies_audio_path":"","intensifies_path":"","is_ai_generate_content":false,"is_unified_beauty_mode":false,"local_id":"","local_material_id":"","material_id":"","material_name":"Black Screen.png","material_url":"","matting":{"flag":0,"has_use_quick_brush":false,"has_use_quick_eraser":false,"interactiveTime":[],"path":"","strokes":[]},"media_path":"","object_locked":null,"origin_material_id":"","path":"/Volumes/Work/dev/la-vaguelette-chiyu-cover/external/Black Screen.png","picture_from":"none","picture_set_category_id":"","picture_set_category_name":"","request_id":"","reverse_intensifies_path":"","reverse_path":"","smart_motion":null,"source":0,"source_platform":0,"stable":{"matrix_path":"","stable_level":0,"time_range":{"duration":0,"start":0}},"team_id":"","type":"photo","video_algorithm":{"algorithms":[],"deflicker":null,"motion_blur_config":null,"noise_reduction":null,"path":"","quality_enhance":null,"time_range":null},"width":1920}],"vocal_beautifys":[],"vocal_separations":[{"choice":0,"id":"29341970-593F-4566-BFC2-7D8E20EF413F","production_path":"","time_range":null,"type":"vocal_separation"},{"choice":0,"id":"21D1B1FD-396E-4B1C-9BEF-7A9A4EEB7757","production_path":"","time_range":null,"type":"vocal_separation"}]},"mutable_config":null,"name":"","new_version":"89.0.0","platform":{"app_id":0,"app_source":"","app_version":"","device_id":"","hard_disk_id":"","mac_address":"","os":"","os_version":""},"relationships":[],"render_index_track_mode_on":true,"retouch_cover":null,"source":"default","static_cover_image_path":"","tracks":[{"attribute":0,"flag":0,"id":"6766854D-6E39-4FEA-94D9-0BC851C0198D","is_default_name":true,"name":"","segments":[],"type":"video"},{"attribute":0,"flag":0,"id":"74C11616-FB62-4288-A4DD-BA796D4515F4","is_default_name":true,"name":"","segments":[{"cartoon":false,"clip":{"alpha":1.0,"flip":{"horizontal":false,"vertical":false},"rotation":0.0,"scale":{"x":1.0,"y":1.0},"transform":{"x":0.0,"y":0.0}},"common_keyframes":[],"enable_adjust":true,"enable_color_curves":true,"enable_color_match_adjust":false,"enable_color_wheels":true,"enable_lut":true,"enable_smart_color_adjust":false,"extra_material_refs":["A11F1835-9D46-407F-9D21-EB0F3EF5D6E0","01CF4B27-5D0D-4C11-B807-8266C0BBA463","3C75614D-848B-4B3A-BCDB-0A9E67260747","29A4ACB5-0F8C-463B-BFB3-6B4FD6AFBB15","29341970-593F-4566-BFC2-7D8E20EF413F"],"group_id":"6225BCE1-99BC-4A0F-AD65-C400BB61D801","hdr_settings":{"intensity":1.0,"mode":1,"nits":1000},"id":"9D37B8DA-6A00-4CC2-9E9C-1415CF314B05","intensifies_audio":false,"is_placeholder":false,"is_tone_modify":false,"keyframe_refs":[],"last_nonzero_volume":1.0,"material_id":"5F7CA7FD-1622-44F5-84F6-EDD28FDB41EA","render_index":4,"responsive_layout":{"enable":false,"horizontal_pos_layout":0,"size_layout":0,"target_follow":"","vertical_pos_layout":0},"reverse":false,"source_timerange":{"duration":22050000,"start":0},"speed":1.0,"target_timerange":{"duration":22050000,"start":0},"template_id":"","template_scene":"default","track_attribute":0,"track_render_index":2,"uniform_scale":{"on":true,"value":1.0},"visible":true,"volume":1.0}],"type":"video"},{"attribute":0,"flag":0,"id":"F12FFE9C-F9B6-49CE-95B8-2743242B3235","is_default_name":true,"name":"","segments":[{"cartoon":false,"clip":null,"common_keyframes":[],"enable_adjust":false,"enable_color_curves":true,"enable_color_match_adjust":false,"enable_color_wheels":true,"enable_lut":false,"enable_smart_color_adjust":false,"extra_material_refs":["5D0E78F1-AB9C-4228-A032-F4B3E08D3435","EA83B9C3-1AEC-4061-86FA-D7B3D707739A","23D5DAD3-79AF-4FDD-B809-1B81CC1730AC","61B0FA2E-229D-4F45-9F00-9AA2FD2E5342","E1A48EEA-B7FF-49D8-8FED-13179470BA6C","656E1342-F3ED-4799-86BF-89323200043C","21D1B1FD-396E-4B1C-9BEF-7A9A4EEB7757"],"group_id":"6225BCE1-99BC-4A0F-AD65-C400BB61D801","hdr_settings":null,"id":"1D197550-19B2-476F-A5C8-6DD0EBB2A369","intensifies_audio":false,"is_placeholder":false,"is_tone_modify":false,"keyframe_refs":[],"last_nonzero_volume":1.0,"material_id":"E4D7ED73-02A3-41C3-99FF-ED383B82DE0D","render_index":0,"responsive_layout":{"enable":false,"horizontal_pos_layout":0,"size_layout":0,"target_follow":"","vertical_pos_layout":0},"reverse":false,"source_timerange":{"duration":18033333,"start":0},"speed":1.0,"target_timerange":{"duration":18033333,"start":0},"template_id":"","template_scene":"default","track_attribute":0,"track_render_index":0,"uniform_scale":null,"visible":true,"volume":1.9952623844146729}],"type":"audio"}],"update_time":0,"version":360000},"formula_id":"","id":"A89C02EF-6047-442F-A5BA-26146C47A925","name":"","precompile_combination":false,"type":"combination"},{"category_id":"","category_name":"","combination_id":"1731222E-E560-49E1-88EC-04C4087802AE","draft":{"canvas_config":{"height":1080,"ratio":"original","width":1920},"color_space":-1,"config":{"adjust_max_index":1,"attachment_info":[],"combination_max_index":1,"export_range":null,"extract_audio_last_index":1,"lyrics_recognition_id":"","lyrics_sync":true,"lyrics_taskinfo":[],"maintrack_adsorb":false,"material_save_mode":0,"original_sound_last_index":1,"record_audio_last_index":1,"sticker_max_index":1,"subtitle_recognition_id":"","subtitle_sync":true,"subtitle_taskinfo":[],"system_font_list":[],"video_mute":false,"zoom_info_params":null},"cover":null,"create_time":0,"duration":22400000,"extra_info":null,"fps":60.0,"free_render_index_mode_on":false,"group_container":{"groups":[{"group_index":0,"group_main_id":"","group_members":["163A9E57-6601-4853-B100-9009799BD455","CC776A55-3F30-42CD-8E90-27C0EDCD86EC","FDFD3611-9BD3-40EA-B031-CDEEB3B6108B"],"id":"5917D11E-8D31-44CC-9B9D-1431AACAFAA5","is_expand":true,"material_draft":{"category_id":"","category_name":"","combination_id":"","draft":{"canvas_config":{"height":0,"ratio":"original","width":0},"color_space":-1,"config":{"adjust_max_index":1,"attachment_info":[],"combination_max_index":1,"export_range":null,"extract_audio_last_index":1,"lyrics_recognition_id":"","lyrics_sync":true,"lyrics_taskinfo":[],"maintrack_adsorb":true,"material_save_mode":0,"original_sound_last_index":1,"record_audio_last_index":1,"sticker_max_index":1,"subtitle_recognition_id":"","subtitle_sync":true,"subtitle_taskinfo":[],"system_font_list":[],"video_mute":false,"zoom_info_params":null},"cover":null,"create_time":0,"duration":0,"extra_info":null,"fps":30.0,"free_render_index_mode_on":false,"group_container":null,"id":"D0B4930A-72BE-491D-BF4A-01DCFC44B489","keyframe_graph_list":[],"keyframes":{"adjusts":[],"audios":[],"effects":[],"filters":[],"handwrites":[],"stickers":[],"texts":[],"videos":[]},"last_modified_platform":{"app_id":0,"app_source":"","app_version":"","device_id":"","hard_disk_id":"","mac_address":"","os":"","os_version":""},"materials":{"audio_balances":[],"audio_effects":[],"audio_fades":[],"audios":[],"beats":[],"canvases":[],"chromas":[],"color_curves":[],"digital_humans":[],"drafts":[],"effects":[],"flowers":[],"green_screens":[],"handwrites":[],"hsl":[],"images":[],"log_color_wheels":[],"loudnesses":[],"manual_deformations":[],"masks":[],"material_animations":[],"material_colors":[],"placeholders":[],"plugin_effects":[],"primary_color_wheels":[],"realtime_denoises":[],"shapes":[],"smart_crops":[],"smart_relights":[],"sound_channel_mappings":[],"speeds":[],"stickers":[],"tail_leaders":[],"text_templates":[],"texts":[],"transitions":[],"video_effects":[],"video_trackings":[],"videos":[],"vocal_beautifys":[],"vocal_separations":[]},"mutable_config":null,"name":"","new_version":"89.0.0","platform":{"app_id":0,"app_source":"","app_version":"","device_id":"","hard_disk_id":"","mac_address":"","os":"","os_version":""},"relationships":[],"render_index_track_mode_on":false,"retouch_cover":null,"source":"default","static_cover_image_path":"","tracks":[],"update_time":0,"version":360000},"formula_id":"","id":"10E77809-06A0-4F78-8B59-EAC432456DAE","name":"","precompile_combination":false,"type":"composition"},"name":""}]},"id":"78D0FE1E-1DFE-4B73-B777-B0293922CC30","keyframe_graph_list":[],"keyframes":{"adjusts":[],"audios":[],"effects":[],"filters":[],"handwrites":[],"stickers":[],"texts":[],"videos":[]},"last_modified_platform":{"app_id":0,"app_source":"","app_version":"","device_id":"","hard_disk_id":"","mac_address":"","os":"","os_version":""},"materials":{"audio_balances":[],"audio_effects":[],"audio_fades":[],"audios":[],"beats":[],"canvases":[{"album_image":"","blur":0.0,"color":"","id":"651FBAD5-B921-4DA9-9CC6-363CDA096E0C","image":"","image_id":"","image_name":"","source_platform":0,"team_id":"","type":"canvas_color"},{"album_image":"","blur":0.0,"color":"","id":"D6247023-0C07-4BB2-962C-DC6A1988D399","image":"","image_id":"","image_name":"","source_platform":0,"team_id":"","type":"canvas_color"},{"album_image":"","blur":0.0,"color":"","id":"E99D3C1D-CB86-4554-AF0D-665085F83309","image":"","image_id":"","image_name":"","source_platform":0,"team_id":"","type":"canvas_color"}],"chromas":[],"color_curves":[],"digital_humans":[],"drafts":[],"effects":[],"flowers":[],"green_screens":[],"handwrites":[],"hsl":[],"images":[],"log_color_wheels":[],"loudnesses":[],"manual_deformations":[],"masks":[],"material_animations":[{"animations":[],"id":"37F8F64E-DB3F-420E-B09C-94CCE292F1D2","type":"sticker_animation"},{"animations":[],"id":"A5ABCB92-449F-4D4D-BBC9-DB5A485911E3","type":"sticker_animation"}],"material_colors":[],"placeholders":[],"plugin_effects":[],"primary_color_wheels":[],"realtime_denoises":[],"shapes":[],"smart_crops":[],"smart_relights":[],"sound_channel_mappings":[{"audio_channel_mapping":0,"id":"D5922174-862F-49C6-8AFE-CB4731FA392F","is_config_open":false,"type":"none"},{"audio_channel_mapping":0,"id":"B226AA7B-3CE6-4819-8CE6-66013CB1AC10","is_config_open":false,"type":"none"},{"audio_channel_mapping":0,"id":"72904597-264D-4CA3-850C-2DE271181B4B","is_config_open":false,"type":"none"}],"speeds":[{"curve_speed":null,"id":"E6D5FE04-2F41-4864-ABD9-27760DA4856C","mode":0,"speed":1.0,"type":"speed"},{"curve_speed":null,"id":"62B694D4-F644-409A-8071-A16401476A14","mode":0,"speed":1.0,"type":"speed"},{"curve_speed":null,"id":"1791F105-7A78-4C14-B8FA-7FA022F4CA78","mode":0,"speed":1.0,"type":"speed"}],"stickers":[],"tail_leaders":[],"text_templates":[],"texts":[],"transitions":[],"video_effects":[],"video_trackings":[],"videos":[{"aigc_type":"none","audio_fade":null,"cartoon_path":"","category_id":"","category_name":"local","check_flag":65535,"crop":{"lower_left_x":0.0,"lower_left_y":1.0,"lower_right_x":1.0,"lower_right_y":1.0,"upper_left_x":0.0,"upper_left_y":0.0,"upper_right_x":1.0,"upper_right_y":0.0},"crop_ratio":"free","crop_scale":1.0,"duration":227616666,"extra_type_option":0,"formula_id":"","freeze":null,"gameplay":null,"has_audio":true,"height":1080,"id":"D86240BC-63DF-4BE3-8683-C461B81E31D2","intensifies_audio_path":"","intensifies_path":"","is_ai_generate_content":false,"is_unified_beauty_mode":false,"local_id":"","local_material_id":"d849c75e-44a8-407f-af02-0f4a623942cc","material_id":"","material_name":"Furina Struggle 01.mp4","material_url":"","matting":{"flag":0,"has_use_quick_brush":false,"has_use_quick_eraser":false,"interactiveTime":[],"path":"","strokes":[]},"media_path":"","object_locked":null,"origin_material_id":"","path":"/Volumes/Work/dev/la-vaguelette-chiyu-cover/external/Furina Struggle 01.mp4","picture_from":"none","picture_set_category_id":"","picture_set_category_name":"","request_id":"","reverse_intensifies_path":"","reverse_path":"","smart_motion":null,"source":0,"source_platform":0,"stable":{"matrix_path":"","stable_level":0,"time_range":{"duration":0,"start":0}},"team_id":"","type":"video","video_algorithm":{"algorithms":[],"deflicker":null,"motion_blur_config":null,"noise_reduction":null,"path":"","quality_enhance":null,"time_range":null},"width":1920},{"aigc_type":"none","audio_fade":null,"cartoon_path":"","category_id":"","category_name":"local","check_flag":65535,"crop":{"lower_left_x":0.0,"lower_left_y":1.0,"lower_right_x":1.0,"lower_right_y":1.0,"upper_left_x":0.0,"upper_left_y":0.0,"upper_right_x":1.0,"upper_right_y":0.0},"crop_ratio":"free","crop_scale":1.0,"duration":227616666,"extra_type_option":0,"formula_id":"","freeze":null,"gameplay":null,"has_audio":true,"height":1080,"id":"01B59C08-4BA7-4661-9A85-7BC9B25ED7C8","intensifies_audio_path":"","intensifies_path":"","is_ai_generate_content":false,"is_unified_beauty_mode":false,"local_id":"","local_material_id":"d849c75e-44a8-407f-af02-0f4a623942cc","material_id":"","material_name":"Furina Struggle 01.mp4","material_url":"","matting":{"flag":0,"has_use_quick_brush":false,"has_use_quick_eraser":false,"interactiveTime":[],"path":"","strokes":[]},"media_path":"","object_locked":null,"origin_material_id":"","path":"/Volumes/Work/dev/la-vaguelette-chiyu-cover/external/Furina Struggle 01.mp4","picture_from":"none","picture_set_category_id":"","picture_set_category_name":"","request_id":"","reverse_intensifies_path":"","reverse_path":"","smart_motion":null,"source":0,"source_platform":0,"stable":{"matrix_path":"","stable_level":0,"time_range":{"duration":0,"start":0}},"team_id":"","type":"video","video_algorithm":{"algorithms":[],"deflicker":null,"motion_blur_config":null,"noise_reduction":null,"path":"","quality_enhance":null,"time_range":null},"width":1920},{"aigc_type":"none","audio_fade":null,"cartoon_path":"","category_id":"","category_name":"local","check_flag":63487,"crop":{"lower_left_x":0.0,"lower_left_y":1.0,"lower_right_x":1.0,"lower_right_y":1.0,"upper_left_x":0.0,"upper_left_y":0.0,"upper_right_x":1.0,"upper_right_y":0.0},"crop_ratio":"free","crop_scale":1.0,"duration":10800000000,"extra_type_option":0,"formula_id":"","freeze":null,"gameplay":null,"has_audio":false,"height":1080,"id":"64B523F3-029E-4038-8159-018E36975EF2","intensifies_audio_path":"","intensifies_path":"","is_ai_generate_content":false,"is_unified_beauty_mode":false,"local_id":"","local_material_id":"","material_id":"","material_name":"Black Screen.png","material_url":"","matting":{"flag":0,"has_use_quick_brush":false,"has_use_quick_eraser":false,"interactiveTime":[],"path":"","strokes":[]},"media_path":"","object_locked":null,"origin_material_id":"","path":"/Volumes/Work/dev/la-vaguelette-chiyu-cover/external/Black Screen.png","picture_from":"none","picture_set_category_id":"","picture_set_category_name":"","request_id":"","reverse_intensifies_path":"","reverse_path":"","smart_motion":null,"source":0,"source_platform":0,"stable":{"matrix_path":"","stable_level":0,"time_range":{"duration":0,"start":0}},"team_id":"","type":"photo","video_algorithm":{"algorithms":[],"deflicker":null,"motion_blur_config":null,"noise_reduction":null,"path":"","quality_enhance":null,"time_range":null},"width":1920}],"vocal_beautifys":[],"vocal_separations":[{"choice":0,"id":"9E2A8CDF-0F7C-4BEF-AB44-115DC712D4F2","production_path":"","time_range":null,"type":"vocal_separation"},{"choice":0,"id":"16280171-293C-4AEB-BC59-4DD578F4A0CF","production_path":"","time_range":null,"type":"vocal_separation"},{"choice":0,"id":"B6E8A4CC-4FC4-48F3-93E3-DEE779F45401","production_path":"","time_range":null,"type":"vocal_separation"}]},"mutable_config":null,"name":"","new_version":"89.0.0","platform":{"app_id":0,"app_source":"","app_version":"","device_id":"","hard_disk_id":"","mac_address":"","os":"","os_version":""},"relationships":[],"render_index_track_mode_on":true,"retouch_cover":null,"source":"default","static_cover_image_path":"","tracks":[{"attribute":0,"flag":0,"id":"2CD56A1E-D0AD-4CFC-91C8-84F2B8FE3BE3","is_default_name":true,"name":"","segments":[],"type":"video"},{"attribute":0,"flag":0,"id":"D6B14025-F2CB-436D-B81B-9F06945D56BF","is_default_name":true,"name":"","segments":[{"cartoon":false,"clip":{"alpha":1.0,"flip":{"horizontal":false,"vertical":false},"rotation":0.0,"scale":{"x":1.0,"y":1.0},"transform":{"x":0.0,"y":0.0}},"common_keyframes":[],"enable_adjust":true,"enable_color_curves":true,"enable_color_match_adjust":false,"enable_color_wheels":true,"enable_lut":true,"enable_smart_color_adjust":false,"extra_material_refs":["E6D5FE04-2F41-4864-ABD9-27760DA4856C","651FBAD5-B921-4DA9-9CC6-363CDA096E0C","37F8F64E-DB3F-420E-B09C-94CCE292F1D2","D5922174-862F-49C6-8AFE-CB4731FA392F","9E2A8CDF-0F7C-4BEF-AB44-115DC712D4F2"],"group_id":"D8E7FEC1-8398-4B12-98FB-896BAAEDD0D4","hdr_settings":{"intensity":1.0,"mode":1,"nits":1000},"id":"EC4A7BF7-CA91-478A-966B-82FD83292513","intensifies_audio":false,"is_placeholder":false,"is_tone_modify":false,"keyframe_refs":[],"last_nonzero_volume":3.981071949005127,"material_id":"D86240BC-63DF-4BE3-8683-C461B81E31D2","render_index":20,"responsive_layout":{"enable":false,"horizontal_pos_layout":0,"size_layout":0,"target_follow":"","vertical_pos_layout":0},"reverse":false,"source_timerange":{"duration":15933334,"start":0},"speed":1.0,"target_timerange":{"duration":15933333,"start":0},"template_id":"","template_scene":"default","track_attribute":0,"track_render_index":4,"uniform_scale":{"on":true,"value":1.0},"visible":true,"volume":3.981071949005127},{"cartoon":false,"clip":{"alpha":1.0,"flip":{"horizontal":false,"vertical":false},"rotation":0.0,"scale":{"x":1.0,"y":1.0},"transform":{"x":0.0,"y":0.0}},"common_keyframes":[],"enable_adjust":true,"enable_color_curves":true,"enable_color_match_adjust":false,"enable_color_wheels":true,"enable_lut":true,"enable_smart_color_adjust":false,"extra_material_refs":["62B694D4-F644-409A-8071-A16401476A14","D6247023-0C07-4BB2-962C-DC6A1988D399","A5ABCB92-449F-4D4D-BBC9-DB5A485911E3","B226AA7B-3CE6-4819-8CE6-66013CB1AC10","16280171-293C-4AEB-BC59-4DD578F4A0CF"],"group_id":"D8E7FEC1-8398-4B12-98FB-896BAAEDD0D4","hdr_settings":{"intensity":1.0,"mode":1,"nits":1000},"id":"5B71153E-1946-48B8-908D-42CEDA6F4F6C","intensifies_audio":false,"is_placeholder":false,"is_tone_modify":false,"keyframe_refs":[],"last_nonzero_volume":3.981071949005127,"material_id":"01B59C08-4BA7-4661-9A85-7BC9B25ED7C8","render_index":1,"responsive_layout":{"enable":false,"horizontal_pos_layout":0,"size_layout":0,"target_follow":"","vertical_pos_layout":0},"reverse":false,"source_timerange":{"duration":5600000,"start":47066667},"speed":1.0,"target_timerange":{"duration":5600000,"start":16083333},"template_id":"","template_scene":"default","track_attribute":0,"track_render_index":4,"uniform_scale":{"on":true,"value":1.0},"visible":true,"volume":3.981071949005127}],"type":"video"},{"attribute":0,"flag":0,"id":"6724CE25-45B6-42DC-A6A3-F7733876F417","is_default_name":true,"name":"","segments":[{"cartoon":false,"clip":{"alpha":1.0,"flip":{"horizontal":false,"vertical":false},"rotation":0.0,"scale":{"x":1.0,"y":1.0},"transform":{"x":0.0,"y":0.0}},"common_keyframes":[],"enable_adjust":true,"enable_color_curves":true,"enable_color_match_adjust":false,"enable_color_wheels":true,"enable_lut":true,"enable_smart_color_adjust":false,"extra_material_refs":["1791F105-7A78-4C14-B8FA-7FA022F4CA78","E99D3C1D-CB86-4554-AF0D-665085F83309","72904597-264D-4CA3-850C-2DE271181B4B","B6E8A4CC-4FC4-48F3-93E3-DEE779F45401"],"group_id":"D8E7FEC1-8398-4B12-98FB-896BAAEDD0D4","hdr_settings":{"intensity":1.0,"mode":1,"nits":1000},"id":"580B56EC-5B54-4C60-93EC-C9F717B6D150","intensifies_audio":false,"is_placeholder":false,"is_tone_modify":false,"keyframe_refs":[],"last_nonzero_volume":1.0,"material_id":"64B523F3-029E-4038-8159-018E36975EF2","render_index":2,"responsive_layout":{"enable":false,"horizontal_pos_layout":0,"size_layout":0,"target_follow":"","vertical_pos_layout":0},"reverse":false,"source_timerange":{"duration":5000000,"start":0},"speed":1.0,"target_timerange":{"duration":5000000,"start":17400000},"template_id":"","template_scene":"default","track_attribute":0,"track_render_index":5,"uniform_scale":{"on":true,"value":1.0},"visible":true,"volume":1.0}],"type":"video"}],"update_time":0,"version":360000},"formula_id":"","id":"0451EC58-61C3-47BF-A035-A8C3D63B4457","name":"","precompile_combination":false,"type":"combination"},{"category_id":"","category_name":"","combination_id":"FF48BB7B-EF46-476C-8AE1-C6DC27E7E2C8","draft":{"canvas_config":{"height":1080,"ratio":"original","width":1920},"color_space":-1,"config":{"adjust_max_index":1,"attachment_info":[],"combination_max_index":1,"export_range":null,"extract_audio_last_index":1,"lyrics_recognition_id":"","lyrics_sync":true,"lyrics_taskinfo":[],"maintrack_adsorb":false,"material_save_mode":0,"original_sound_last_index":1,"record_audio_last_index":1,"sticker_max_index":1,"subtitle_recognition_id":"","subtitle_sync":true,"subtitle_taskinfo":[],"system_font_list":[],"video_mute":false,"zoom_info_params":null},"cover":null,"create_time":0,"duration":10533333,"extra_info":null,"fps":60.0,"free_render_index_mode_on":false,"group_container":null,"id":"2A01F940-E2A5-4123-AE91-E6B2347FCC11","keyframe_graph_list":[],"keyframes":{"adjusts":[],"audios":[],"effects":[],"filters":[],"handwrites":[],"stickers":[],"texts":[],"videos":[]},"last_modified_platform":{"app_id":0,"app_source":"","app_version":"","device_id":"","hard_disk_id":"","mac_address":"","os":"","os_version":""},"materials":{"audio_balances":[],"audio_effects":[],"audio_fades":[],"audios":[],"beats":[],"canvases":[{"album_image":"","blur":0.0,"color":"","id":"CB862290-71EF-41B7-9D38-BE98E764A70D","image":"","image_id":"","image_name":"","source_platform":0,"team_id":"","type":"none"},{"album_image":"","blur":0.0,"color":"","id":"2C4BFE23-BBB3-4279-8E16-EC5EEFEE75AF","image":"","image_id":"","image_name":"","source_platform":0,"team_id":"","type":"none"}],"chromas":[],"color_curves":[],"digital_humans":[],"drafts":[],"effects":[],"flowers":[],"green_screens":[],"handwrites":[],"hsl":[],"images":[],"log_color_wheels":[],"loudnesses":[{"enable":false,"file_id":"","id":"EE60618A-6B3D-4FA6-8BD7-8BDBFE8FB5C1","loudness_param":null,"target_loudness":0.0,"time_range":null},{"enable":false,"file_id":"","id":"DA7E96E4-3271-4FA2-BE03-5B4259892E30","loudness_param":null,"target_loudness":0.0,"time_range":null}],"manual_deformations":[],"masks":[],"material_animations":[{"animations":[],"id":"65029E03-7AC7-4D43-9FA8-CF936137FBD1","type":"sticker_animation"},{"animations":[],"id":"8683C4F9-768E-49AE-9257-84224D02808D","type":"sticker_animation"}],"material_colors":[],"placeholders":[],"plugin_effects":[],"primary_color_wheels":[],"realtime_denoises":[{"denoise_mode":1.0,"denoise_rate":1.0,"id":"9D813639-C1DA-4F4F-945D-008838734AC6","is_denoise":false,"path":"/Applications/CapCut.app/Contents/MacOS/../Resources/audiosami/unet_denoise_44k_music_model_v1.0.model","sami_name":"denoise_v2","sami_type":0,"sami_version":"1.0","type":"realtime_denoise"},{"denoise_mode":1.0,"denoise_rate":1.0,"id":"B359DB9E-0624-4448-8059-044C1ECA939E","is_denoise":false,"path":"/Applications/CapCut.app/Contents/MacOS/../Resources/audiosami/unet_denoise_44k_music_model_v1.0.model","sami_name":"denoise_v2","sami_type":0,"sami_version":"1.0","type":"realtime_denoise"}],"shapes":[],"smart_crops":[],"smart_relights":[],"sound_channel_mappings":[{"audio_channel_mapping":0,"id":"EA0FEEFC-082B-41A4-A7E6-4B32708A2565","is_config_open":false,"type":"none"},{"audio_channel_mapping":0,"id":"4856C39A-CCC7-44C8-A890-3BCB14BF0842","is_config_open":false,"type":"none"}],"speeds":[{"curve_speed":null,"id":"71F647E6-A31F-4415-AD74-5D5B1E090A84","mode":0,"speed":1.0999999999999999,"type":"speed"},{"curve_speed":null,"id":"788D8B30-66B1-4ADB-A674-A6531FC4A9B4","mode":0,"speed":1.0999999999999999,"type":"speed"}],"stickers":[],"tail_leaders":[],"text_templates":[],"texts":[],"transitions":[],"video_effects":[],"video_trackings":[],"videos":[{"aigc_type":"none","audio_fade":null,"cartoon_path":"","category_id":"","category_name":"local","check_flag":65535,"crop":{"lower_left_x":0.0,"lower_left_y":1.0,"lower_right_x":1.0,"lower_right_y":1.0,"upper_left_x":0.0,"upper_left_y":0.0,"upper_right_x":1.0,"upper_right_y":0.0},"crop_ratio":"free","crop_scale":1.0,"duration":36000000,"extra_type_option":0,"formula_id":"","freeze":null,"gameplay":null,"has_audio":true,"height":1080,"id":"9811EBF6-B858-438C-9535-A8EDCDA5C2AF","intensifies_audio_path":"","intensifies_path":"","is_ai_generate_content":false,"is_unified_beauty_mode":false,"local_id":"","local_material_id":"ebcbc602-a39a-4bb6-af90-e8805c411b67","material_id":"","material_name":"Furina Mission 01.mp4","material_url":"","matting":{"flag":0,"has_use_quick_brush":false,"has_use_quick_eraser":false,"interactiveTime":[],"path":"","strokes":[]},"media_path":"","object_locked":null,"origin_material_id":"","path":"/Volumes/Work/dev/la-vaguelette-chiyu-cover/external/Furina Mission 01.mp4","picture_from":"none","picture_set_category_id":"","picture_set_category_name":"","request_id":"","reverse_intensifies_path":"","reverse_path":"","smart_motion":null,"source":0,"source_platform":0,"stable":{"matrix_path":"","stable_level":0,"time_range":{"duration":0,"start":0}},"team_id":"","type":"video","video_algorithm":{"algorithms":[],"deflicker":null,"motion_blur_config":null,"noise_reduction":null,"path":"","quality_enhance":null,"time_range":null},"width":1920},{"aigc_type":"none","audio_fade":null,"cartoon_path":"","category_id":"","category_name":"local","check_flag":65535,"crop":{"lower_left_x":0.0,"lower_left_y":1.0,"lower_right_x":1.0,"lower_right_y":1.0,"upper_left_x":0.0,"upper_left_y":0.0,"upper_right_x":1.0,"upper_right_y":0.0},"crop_ratio":"free","crop_scale":1.0,"duration":36000000,"extra_type_option":0,"formula_id":"","freeze":null,"gameplay":null,"has_audio":true,"height":1080,"id":"BCD313C0-95C8-4639-8A70-9FDAE6049F83","intensifies_audio_path":"","intensifies_path":"","is_ai_generate_content":false,"is_unified_beauty_mode":false,"local_id":"","local_material_id":"ebcbc602-a39a-4bb6-af90-e8805c411b67","material_id":"","material_name":"Furina Mission 01.mp4","material_url":"","matting":{"flag":0,"has_use_quick_brush":false,"has_use_quick_eraser":false,"interactiveTime":[],"path":"","strokes":[]},"media_path":"","object_locked":null,"origin_material_id":"","path":"/Volumes/Work/dev/la-vaguelette-chiyu-cover/external/Furina Mission 01.mp4","picture_from":"none","picture_set_category_id":"","picture_set_category_name":"","request_id":"","reverse_intensifies_path":"","reverse_path":"","smart_motion":null,"source":0,"source_platform":0,"stable":{"matrix_path":"","stable_level":0,"time_range":{"duration":0,"start":0}},"team_id":"","type":"video","video_algorithm":{"algorithms":[],"deflicker":null,"motion_blur_config":null,"noise_reduction":null,"path":"","quality_enhance":null,"time_range":null},"width":1920}],"vocal_beautifys":[],"vocal_separations":[{"choice":0,"id":"3CE0A812-1D66-46B7-AD86-E277C8382519","production_path":"","time_range":null,"type":"vocal_separation"},{"choice":0,"id":"3E77FE50-472E-497D-84CF-626315C7802F","production_path":"","time_range":null,"type":"vocal_separation"}]},"mutable_config":null,"name":"","new_version":"89.0.0","platform":{"app_id":0,"app_source":"","app_version":"","device_id":"","hard_disk_id":"","mac_address":"","os":"","os_version":""},"relationships":[],"render_index_track_mode_on":true,"retouch_cover":null,"source":"default","static_cover_image_path":"","tracks":[{"attribute":0,"flag":0,"id":"1ECBF7DF-147F-476B-B646-9ABE6B434464","is_default_name":true,"name":"","segments":[],"type":"video"},{"attribute":0,"flag":0,"id":"2EEC0782-8CBC-4E73-B3B2-29AD228D6EA9","is_default_name":true,"name":"","segments":[{"cartoon":false,"clip":{"alpha":1.0,"flip":{"horizontal":false,"vertical":false},"rotation":0.0,"scale":{"x":1.0,"y":1.0},"transform":{"x":0.0,"y":0.0}},"common_keyframes":[],"enable_adjust":true,"enable_color_curves":true,"enable_color_match_adjust":false,"enable_color_wheels":true,"enable_lut":true,"enable_smart_color_adjust":false,"extra_material_refs":["71F647E6-A31F-4415-AD74-5D5B1E090A84","CB862290-71EF-41B7-9D38-BE98E764A70D","9D813639-C1DA-4F4F-945D-008838734AC6","65029E03-7AC7-4D43-9FA8-CF936137FBD1","EA0FEEFC-082B-41A4-A7E6-4B32708A2565","EE60618A-6B3D-4FA6-8BD7-8BDBFE8FB5C1","3CE0A812-1D66-46B7-AD86-E277C8382519"],"group_id":"","hdr_settings":{"intensity":1.0,"mode":1,"nits":1000},"id":"BBF71540-E2E6-4057-BF8E-43B31411CF03","intensifies_audio":false,"is_placeholder":false,"is_tone_modify":false,"keyframe_refs":[],"last_nonzero_volume":1.9952623844146729,"material_id":"9811EBF6-B858-438C-9535-A8EDCDA5C2AF","render_index":3,"responsive_layout":{"enable":false,"horizontal_pos_layout":0,"size_layout":0,"target_follow":"","vertical_pos_layout":0},"reverse":false,"source_timerange":{"duration":9073752,"start":16103278},"speed":1.0999999999999999,"target_timerange":{"duration":8250000,"start":0},"template_id":"","template_scene":"default","track_attribute":0,"track_render_index":4,"uniform_scale":{"on":true,"value":1.0},"visible":true,"volume":1.9952623844146729},{"cartoon":false,"clip":{"alpha":1.0,"flip":{"horizontal":false,"vertical":false},"rotation":0.0,"scale":{"x":1.0,"y":1.0},"transform":{"x":0.0,"y":0.0}},"common_keyframes":[],"enable_adjust":true,"enable_color_curves":true,"enable_color_match_adjust":false,"enable_color_wheels":true,"enable_lut":true,"enable_smart_color_adjust":false,"extra_material_refs":["788D8B30-66B1-4ADB-A674-A6531FC4A9B4","2C4BFE23-BBB3-4279-8E16-EC5EEFEE75AF","B359DB9E-0624-4448-8059-044C1ECA939E","8683C4F9-768E-49AE-9257-84224D02808D","4856C39A-CCC7-44C8-A890-3BCB14BF0842","DA7E96E4-3271-4FA2-BE03-5B4259892E30","3E77FE50-472E-497D-84CF-626315C7802F"],"group_id":"","hdr_settings":{"intensity":1.0,"mode":1,"nits":1000},"id":"CBE92CE7-A30D-4CB1-BA9E-583DE8C11CE6","intensifies_audio":false,"is_placeholder":false,"is_tone_modify":false,"keyframe_refs":[],"last_nonzero_volume":1.9952623844146729,"material_id":"BCD313C0-95C8-4639-8A70-9FDAE6049F83","render_index":3,"responsive_layout":{"enable":false,"horizontal_pos_layout":0,"size_layout":0,"target_follow":"","vertical_pos_layout":0},"reverse":false,"source_timerange":{"duration":2511321,"start":25305346},"speed":1.0999999999999999,"target_timerange":{"duration":2283333,"start":8250000},"template_id":"","template_scene":"default","track_attribute":0,"track_render_index":4,"uniform_scale":{"on":true,"value":1.0},"visible":true,"volume":1.9952623844146729}],"type":"video"}],"update_time":0,"version":360000},"formula_id":"","id":"0E816D5E-3BF4-4473-8F1F-C246534B4F73","name":"","precompile_combination":false,"type":"combination"},{"category_id":"","category_name":"","combination_id":"CBA04977-D171-4557-87DC-3C9A2642E45B","draft":{"canvas_config":{"height":1080,"ratio":"original","width":1920},"color_space":-1,"config":{"adjust_max_index":1,"attachment_info":[],"combination_max_index":1,"export_range":null,"extract_audio_last_index":1,"lyrics_recognition_id":"","lyrics_sync":true,"lyrics_taskinfo":[],"maintrack_adsorb":false,"material_save_mode":0,"original_sound_last_index":1,"record_audio_last_index":1,"sticker_max_index":1,"subtitle_recognition_id":"","subtitle_sync":true,"subtitle_taskinfo":[],"system_font_list":[],"video_mute":false,"zoom_info_params":null},"cover":null,"create_time":0,"duration":6133333,"extra_info":null,"fps":60.0,"free_render_index_mode_on":false,"group_container":{"groups":[{"group_index":0,"group_main_id":"","group_members":["388E5968-0947-49E1-859B-872C5F9E6C6F","C4AE9982-7C41-499D-8519-57073083B90E"],"id":"0F5A591C-0B4C-4CA7-A97C-B4CEA0C1D538","is_expand":true,"material_draft":{"category_id":"","category_name":"","combination_id":"","draft":{"canvas_config":{"height":0,"ratio":"original","width":0},"color_space":-1,"config":{"adjust_max_index":1,"attachment_info":[],"combination_max_index":1,"export_range":null,"extract_audio_last_index":1,"lyrics_recognition_id":"","lyrics_sync":true,"lyrics_taskinfo":[],"maintrack_adsorb":true,"material_save_mode":0,"original_sound_last_index":1,"record_audio_last_index":1,"sticker_max_index":1,"subtitle_recognition_id":"","subtitle_sync":true,"subtitle_taskinfo":[],"system_font_list":[],"video_mute":false,"zoom_info_params":null},"cover":null,"create_time":0,"duration":0,"extra_info":null,"fps":30.0,"free_render_index_mode_on":false,"group_container":null,"id":"5B49F450-B585-40FB-B406-13D81ECCAAAD","keyframe_graph_list":[],"keyframes":{"adjusts":[],"audios":[],"effects":[],"filters":[],"handwrites":[],"stickers":[],"texts":[],"videos":[]},"last_modified_platform":{"app_id":0,"app_source":"","app_version":"","device_id":"","hard_disk_id":"","mac_address":"","os":"","os_version":""},"materials":{"audio_balances":[],"audio_effects":[],"audio_fades":[],"audios":[],"beats":[],"canvases":[],"chromas":[],"color_curves":[],"digital_humans":[],"drafts":[],"effects":[],"flowers":[],"green_screens":[],"handwrites":[],"hsl":[],"images":[],"log_color_wheels":[],"loudnesses":[],"manual_deformations":[],"masks":[],"material_animations":[],"material_colors":[],"placeholders":[],"plugin_effects":[],"primary_color_wheels":[],"realtime_denoises":[],"shapes":[],"smart_crops":[],"smart_relights":[],"sound_channel_mappings":[],"speeds":[],"stickers":[],"tail_leaders":[],"text_templates":[],"texts":[],"transitions":[],"video_effects":[],"video_trackings":[],"videos":[],"vocal_beautifys":[],"vocal_separations":[]},"mutable_config":null,"name":"","new_version":"89.0.0","platform":{"app_id":0,"app_source":"","app_version":"","device_id":"","hard_disk_id":"","mac_address":"","os":"","os_version":""},"relationships":[],"render_index_track_mode_on":false,"retouch_cover":null,"source":"default","static_cover_image_path":"","tracks":[],"update_time":0,"version":360000},"formula_id":"","id":"70EF2AB7-AA8C-4C61-8C60-4E57DB6A1493","name":"","precompile_combination":false,"type":"composition"},"name":""}]},"id":"489E50F6-DE90-477D-B02C-4FD83C375113","keyframe_graph_list":[],"keyframes":{"adjusts":[],"audios":[],"effects":[],"filters":[],"handwrites":[],"stickers":[],"texts":[],"videos":[]},"last_modified_platform":{"app_id":0,"app_source":"","app_version":"","device_id":"","hard_disk_id":"","mac_address":"","os":"","os_version":""},"materials":{"audio_balances":[],"audio_effects":[],"audio_fades":[],"audios":[{"app_id":0,"category_id":"","category_name":"local","check_flag":1,"duration":6133333,"effect_id":"","formula_id":"","id":"55D1B66F-6F6E-4417-A7D1-272DB328AA42","intensifies_path":"","local_material_id":"24b7cea7-fc47-4a54-a8dd-848a1704cfdd","music_id":"e9abdd69-17b1-46e1-8419-d7c79b94edfe","name":"Rolling Slideshow.WAV","path":"/Volumes/Work/dev/la-vaguelette-chiyu-cover/external/Rolling Slideshow.WAV","query":"","request_id":"","resource_id":"","search_id":"","source_platform":0,"team_id":"","text_id":"","tone_category_id":"","tone_category_name":"","tone_effect_id":"","tone_effect_name":"","tone_speaker":"","tone_type":"","type":"extract_music","video_id":"","wave_points":[]}],"beats":[{"ai_beats":{"beat_speed_infos":[],"beats_path":"","beats_url":"","melody_path":"","melody_percents":[0.0],"melody_url":""},"enable_ai_beats":false,"gear":404,"gear_count":0,"id":"9FBA4633-5077-4768-8970-84B7E6BFE357","mode":404,"type":"beats","user_beats":[],"user_delete_ai_beats":null}],"canvases":[{"album_image":"","blur":0.0,"color":"","id":"ED414230-4AB9-48F4-A35B-6494EEA927AA","image":"","image_id":"","image_name":"","source_platform":0,"team_id":"","type":"canvas_color"}],"chromas":[],"color_curves":[],"digital_humans":[],"drafts":[],"effects":[],"flowers":[],"green_screens":[],"handwrites":[],"hsl":[],"images":[],"log_color_wheels":[],"loudnesses":[],"manual_deformations":[],"masks":[],"material_animations":[{"animations":[],"id":"DF143793-7A9B-40D8-8F30-3AE1FAEE0ED6","type":"sticker_animation"}],"material_colors":[],"placeholders":[],"plugin_effects":[],"primary_color_wheels":[],"realtime_denoises":[],"shapes":[],"smart_crops":[],"smart_relights":[],"sound_channel_mappings":[{"audio_channel_mapping":0,"id":"6B67B59C-A8CD-4A45-8EA7-07B534B25992","is_config_open":false,"type":"none"},{"audio_channel_mapping":0,"id":"FBD2651D-E6A6-44BF-8D27-B2749102212E","is_config_open":false,"type":"none"}],"speeds":[{"curve_speed":null,"id":"500709FB-86C5-4C12-AA55-E37D35F2C309","mode":0,"speed":1.3000000000000003,"type":"speed"},{"curve_speed":null,"id":"E386D1E1-5190-4CB1-9796-36FEF30CA076","mode":0,"speed":1.0,"type":"speed"}],"stickers":[],"tail_leaders":[],"text_templates":[],"texts":[],"transitions":[],"video_effects":[],"video_trackings":[],"videos":[{"aigc_type":"none","audio_fade":null,"cartoon_path":"","category_id":"","category_name":"local","check_flag":63487,"crop":{"lower_left_x":0.0,"lower_left_y":1.0,"lower_right_x":1.0,"lower_right_y":1.0,"upper_left_x":0.0,"upper_left_y":0.0,"upper_right_x":1.0,"upper_right_y":0.0},"crop_ratio":"free","crop_scale":1.0,"duration":16877516666,"extra_type_option":1,"formula_id":"","freeze":null,"gameplay":null,"has_audio":true,"height":1080,"id":"3F7191AA-7000-4C06-997C-69B37E8C75C5","intensifies_audio_path":"","intensifies_path":"","is_ai_generate_content":false,"is_unified_beauty_mode":false,"local_id":"","local_material_id":"da0938fd-aad3-472e-bbe7-169e4405df41","material_id":"","material_name":"GENSHIN IMPACT 4.2 - ARCHON QUEST ｜ Full Game Walkthrough ｜ No Commentary [0nIbouB_Qv8].webm","material_url":"","matting":{"flag":0,"has_use_quick_brush":false,"has_use_quick_eraser":false,"interactiveTime":[],"path":"","strokes":[]},"media_path":"","object_locked":null,"origin_material_id":"","path":"/Volumes/Work/dev/la-vaguelette-chiyu-cover/external/GENSHIN IMPACT 4.2 - ARCHON QUEST ｜ Full Game Walkthrough ｜ No Commentary [0nIbouB_Qv8].webm","picture_from":"none","picture_set_category_id":"","picture_set_category_name":"","request_id":"","reverse_intensifies_path":"","reverse_path":"","smart_motion":null,"source":0,"source_platform":0,"stable":{"matrix_path":"","stable_level":0,"time_range":{"duration":0,"start":0}},"team_id":"","type":"video","video_algorithm":{"algorithms":[],"deflicker":null,"motion_blur_config":null,"noise_reduction":null,"path":"","quality_enhance":null,"time_range":null},"width":1920}],"vocal_beautifys":[],"vocal_separations":[{"choice":0,"id":"C89C5D6A-5C8C-47F9-ACDB-4FDCD885DDE9","production_path":"","time_range":null,"type":"vocal_separation"},{"choice":0,"id":"3C0E61AC-62DC-4A68-ABF3-E2E9A2937ADD","production_path":"","time_range":null,"type":"vocal_separation"}]},"mutable_config":null,"name":"","new_version":"89.0.0","platform":{"app_id":0,"app_source":"","app_version":"","device_id":"","hard_disk_id":"","mac_address":"","os":"","os_version":""},"relationships":[],"render_index_track_mode_on":true,"retouch_cover":null,"source":"default","static_cover_image_path":"","tracks":[{"attribute":0,"flag":0,"id":"F5C6E5A8-4AC3-42C2-BF57-7C9FD4CD2ECB","is_default_name":true,"name":"","segments":[],"type":"video"},{"attribute":0,"flag":0,"id":"F4557922-F203-4ED8-B2D6-410EBED91580","is_default_name":true,"name":"","segments":[{"cartoon":false,"clip":{"alpha":1.0,"flip":{"horizontal":false,"vertical":false},"rotation":0.0,"scale":{"x":1.05,"y":1.05},"transform":{"x":0.0,"y":0.0}},"common_keyframes":[],"enable_adjust":true,"enable_color_curves":true,"enable_color_match_adjust":false,"enable_color_wheels":true,"enable_lut":true,"enable_smart_color_adjust":false,"extra_material_refs":["500709FB-86C5-4C12-AA55-E37D35F2C309","ED414230-4AB9-48F4-A35B-6494EEA927AA","DF143793-7A9B-40D8-8F30-3AE1FAEE0ED6","6B67B59C-A8CD-4A45-8EA7-07B534B25992","C89C5D6A-5C8C-47F9-ACDB-4FDCD885DDE9"],"group_id":"99C34E8B-B3E0-4D49-8DD1-7E6481A57155","hdr_settings":{"intensity":1.0,"mode":1,"nits":1000},"id":"29DC3982-3383-4F0D-B4DA-73A414DF9EAC","intensifies_audio":false,"is_placeholder":false,"is_tone_modify":false,"keyframe_refs":[],"last_nonzero_volume":1.0,"material_id":"3F7191AA-7000-4C06-997C-69B37E8C75C5","render_index":10,"responsive_layout":{"enable":false,"horizontal_pos_layout":0,"size_layout":0,"target_follow":"","vertical_pos_layout":0},"reverse":false,"source_timerange":{"duration":7943334,"start":12889450000},"speed":1.3000000000000003,"target_timerange":{"duration":6116667,"start":16666},"template_id":"","template_scene":"default","track_attribute":0,"track_render_index":2,"uniform_scale":{"on":true,"value":1.0},"visible":true,"volume":1.0}],"type":"video"},{"attribute":0,"flag":0,"id":"C36ABA5D-EFDD-4775-AAF4-18CE87A5922D","is_default_name":true,"name":"","segments":[{"cartoon":false,"clip":null,"common_keyframes":[],"enable_adjust":false,"enable_color_curves":true,"enable_color_match_adjust":false,"enable_color_wheels":true,"enable_lut":false,"enable_smart_color_adjust":false,"extra_material_refs":["E386D1E1-5190-4CB1-9796-36FEF30CA076","9FBA4633-5077-4768-8970-84B7E6BFE357","FBD2651D-E6A6-44BF-8D27-B2749102212E","3C0E61AC-62DC-4A68-ABF3-E2E9A2937ADD"],"group_id":"99C34E8B-B3E0-4D49-8DD1-7E6481A57155","hdr_settings":null,"id":"DDAFBEC8-48A6-464E-A5BE-812076ADFB93","intensifies_audio":false,"is_placeholder":false,"is_tone_modify":false,"keyframe_refs":[],"last_nonzero_volume":1.0,"material_id":"55D1B66F-6F6E-4417-A7D1-272DB328AA42","render_index":0,"responsive_layout":{"enable":false,"horizontal_pos_layout":0,"size_layout":0,"target_follow":"","vertical_pos_layout":0},"reverse":false,"source_timerange":{"duration":6133333,"start":0},"speed":1.0,"target_timerange":{"duration":6133333,"start":0},"template_id":"","template_scene":"default","track_attribute":0,"track_render_index":0,"uniform_scale":null,"visible":true,"volume":1.0}],"type":"audio"}],"update_time":0,"version":360000},"formula_id":"","id":"F333854A-60F4-49D9-8357-9602191D6830","name":"","precompile_combination":false,"type":"combination"},{"category_id":"","category_name":"","combination_id":"747F4829-1AC8-4581-940C-70562E8976E9","draft":{"canvas_config":{"height":1080,"ratio":"original","width":1920},"color_space":-1,"config":{"adjust_max_index":1,"attachment_info":[],"combination_max_index":1,"export_range":null,"extract_audio_last_index":1,"lyrics_recognition_id":"","lyrics_sync":true,"lyrics_taskinfo":[],"maintrack_adsorb":false,"material_save_mode":0,"original_sound_last_index":1,"record_audio_last_index":1,"sticker_max_index":1,"subtitle_recognition_id":"","subtitle_sync":true,"subtitle_taskinfo":[],"system_font_list":[],"video_mute":false,"zoom_info_params":null},"cover":null,"create_time":0,"duration":5116666,"extra_info":null,"fps":60.0,"free_render_index_mode_on":false,"group_container":{"groups":[{"group_index":0,"group_main_id":"","group_members":["262ED101-0AAB-4761-81DF-9C5298D8583F","AA6EBCDB-B696-4CB6-A69A-64AF46F5622E","B1322EB2-40D0-4BE7-88DF-CD90B6F9D072","F15F032D-3D01-443F-A8D2-60559FFB28D8"],"id":"4B5D5E57-B2EB-4E18-AE2F-2A08DC87DDFA","is_expand":true,"material_draft":{"category_id":"","category_name":"","combination_id":"","draft":{"canvas_config":{"height":0,"ratio":"original","width":0},"color_space":-1,"config":{"adjust_max_index":1,"attachment_info":[],"combination_max_index":1,"export_range":null,"extract_audio_last_index":1,"lyrics_recognition_id":"","lyrics_sync":true,"lyrics_taskinfo":[],"maintrack_adsorb":true,"material_save_mode":0,"original_sound_last_index":1,"record_audio_last_index":1,"sticker_max_index":1,"subtitle_recognition_id":"","subtitle_sync":true,"subtitle_taskinfo":[],"system_font_list":[],"video_mute":false,"zoom_info_params":null},"cover":null,"create_time":0,"duration":0,"extra_info":null,"fps":30.0,"free_render_index_mode_on":false,"group_container":null,"id":"298445C6-71DA-49E7-9FB5-BAF415868802","keyframe_graph_list":[],"keyframes":{"adjusts":[],"audios":[],"effects":[],"filters":[],"handwrites":[],"stickers":[],"texts":[],"videos":[]},"last_modified_platform":{"app_id":0,"app_source":"","app_version":"","device_id":"","hard_disk_id":"","mac_address":"","os":"","os_version":""},"materials":{"audio_balances":[],"audio_effects":[],"audio_fades":[],"audios":[],"beats":[],"canvases":[],"chromas":[],"color_curves":[],"digital_humans":[],"drafts":[],"effects":[],"flowers":[],"green_screens":[],"handwrites":[],"hsl":[],"images":[],"log_color_wheels":[],"loudnesses":[],"manual_deformations":[],"masks":[],"material_animations":[],"material_colors":[],"placeholders":[],"plugin_effects":[],"primary_color_wheels":[],"realtime_denoises":[],"shapes":[],"smart_crops":[],"smart_relights":[],"sound_channel_mappings":[],"speeds":[],"stickers":[],"tail_leaders":[],"text_templates":[],"texts":[],"transitions":[],"video_effects":[],"video_trackings":[],"videos":[],"vocal_beautifys":[],"vocal_separations":[]},"mutable_config":null,"name":"","new_version":"89.0.0","platform":{"app_id":0,"app_source":"","app_version":"","device_id":"","hard_disk_id":"","mac_address":"","os":"","os_version":""},"relationships":[],"render_index_track_mode_on":false,"retouch_cover":null,"source":"default","static_cover_image_path":"","tracks":[],"update_time":0,"version":360000},"formula_id":"","id":"01C692A1-9207-48E8-9972-8EE079191FCD","name":"","precompile_combination":false,"type":"composition"},"name":""}]},"id":"C83F151F-59C1-4A8A-8B33-61C2D036C1FF","keyframe_graph_list":[],"keyframes":{"adjusts":[],"audios":[],"effects":[],"filters":[],"handwrites":[],"stickers":[],"texts":[],"videos":[]},"last_modified_platform":{"app_id":0,"app_source":"","app_version":"","device_id":"","hard_disk_id":"","mac_address":"","os":"","os_version":""},"materials":{"audio_balances":[],"audio_effects":[],"audio_fades":[],"audios":[],"beats":[],"canvases":[{"album_image":"","blur":0.0,"color":"","id":"4FF61FF5-95EC-4CB7-A448-3EA496952532","image":"","image_id":"","image_name":"","source_platform":0,"team_id":"","type":"canvas_color"},{"album_image":"","blur":0.0,"color":"","id":"4CF43E64-A14A-42A7-BE44-AA6E0210FB32","image":"","image_id":"","image_name":"","source_platform":0,"team_id":"","type":"canvas_color"},{"album_image":"","blur":0.0,"color":"","id":"E20B78FB-12B2-4FCB-8BE4-18478821188A","image":"","image_id":"","image_name":"","source_platform":0,"team_id":"","type":"canvas_color"},{"album_image":"","blur":0.0,"color":"","id":"6C4B39F1-DD8E-456F-BFBE-B6C57D73B680","image":"","image_id":"","image_name":"","source_platform":0,"team_id":"","type":"canvas_color"}],"chromas":[],"color_curves":[],"digital_humans":[],"drafts":[],"effects":[],"flowers":[],"green_screens":[],"handwrites":[],"hsl":[],"images":[],"log_color_wheels":[],"loudnesses":[],"manual_deformations":[],"masks":[],"material_animations":[{"animations":[],"id":"C21AB072-C8C5-4086-8D20-F36EC125DDDF","type":"sticker_animation"},{"animations":[],"id":"349DC294-AF20-4DAD-9479-6CAFE72C1570","type":"sticker_animation"},{"animations":[],"id":"4E6C4550-B5F7-41AB-BA64-ED73909B6C04","type":"sticker_animation"},{"animations":[],"id":"EF2AAEA4-F964-49EF-99BD-B0DE07C948AC","type":"sticker_animation"}],"material_colors":[],"placeholders":[],"plugin_effects":[],"primary_color_wheels":[],"realtime_denoises":[],"shapes":[],"smart_crops":[],"smart_relights":[],"sound_channel_mappings":[{"audio_channel_mapping":0,"id":"6C1F64C2-AE5B-4655-A2FA-FA33D8CB4788","is_config_open":false,"type":"none"},{"audio_channel_mapping":0,"id":"C6AFB2FE-4388-4FA1-9EE5-967FDFC6531B","is_config_open":false,"type":"none"},{"audio_channel_mapping":0,"id":"E4387579-3CD0-479F-BBDB-0ADE3947EAA8","is_config_open":false,"type":"none"},{"audio_channel_mapping":0,"id":"B5A7CEF2-5C4D-40EE-AE36-902129E66CDC","is_config_open":false,"type":"none"}],"speeds":[{"curve_speed":null,"id":"CE178AAE-33B3-4880-B4CC-6961883E67FD","mode":0,"speed":1.0,"type":"speed"},{"curve_speed":null,"id":"B246B074-AB30-4064-9379-CE00821E1967","mode":0,"speed":1.0,"type":"speed"},{"curve_speed":null,"id":"2EF5ED54-FFC7-4AA0-9DD2-1E589E4CCF67","mode":0,"speed":1.0,"type":"speed"},{"curve_speed":null,"id":"F4F4D323-F211-4B29-A53D-7ADDDD9C3E6D","mode":0,"speed":1.0,"type":"speed"}],"stickers":[],"tail_leaders":[],"text_templates":[],"texts":[],"transitions":[],"video_effects":[],"video_trackings":[],"videos":[{"aigc_type":"none","audio_fade":null,"cartoon_path":"","category_id":"","category_name":"local","check_flag":63487,"crop":{"lower_left_x":0.0,"lower_left_y":1.0,"lower_right_x":1.0,"lower_right_y":1.0,"upper_left_x":0.0,"upper_left_y":0.0,"upper_right_x":1.0,"upper_right_y":0.0},"crop_ratio":"free","crop_scale":1.0,"duration":191916666,"extra_type_option":1,"formula_id":"","freeze":null,"gameplay":null,"has_audio":true,"height":2160,"id":"86D6859F-45C6-43CC-A13F-C844496B5C99","intensifies_audio_path":"","intensifies_path":"","is_ai_generate_content":false,"is_unified_beauty_mode":false,"local_id":"","local_material_id":"48a1518a-516f-49fa-968b-9d921d22be1c","material_id":"","material_name":"Cutscene Animation： ＂Sinner's Finale＂ ｜ Genshin Impact [_RAhrisU6Mc].webm","material_url":"","matting":{"flag":0,"has_use_quick_brush":false,"has_use_quick_eraser":false,"interactiveTime":[],"path":"","strokes":[]},"media_path":"","object_locked":null,"origin_material_id":"","path":"/Volumes/Work/dev/la-vaguelette-chiyu-cover/external/Cutscene Animation： ＂Sinner's Finale＂ ｜ Genshin Impact [_RAhrisU6Mc].webm","picture_from":"none","picture_set_category_id":"","picture_set_category_name":"","request_id":"","reverse_intensifies_path":"","reverse_path":"","smart_motion":null,"source":0,"source_platform":0,"stable":{"matrix_path":"","stable_level":0,"time_range":{"duration":0,"start":0}},"team_id":"","type":"video","video_algorithm":{"algorithms":[],"deflicker":null,"motion_blur_config":null,"noise_reduction":null,"path":"","quality_enhance":null,"time_range":null},"width":3840},{"aigc_type":"none","audio_fade":null,"cartoon_path":"","category_id":"","category_name":"","check_flag":63487,"crop":{"lower_left_x":0.0,"lower_left_y":1.0,"lower_right_x":1.0,"lower_right_y":1.0,"upper_left_x":0.0,"upper_left_y":0.0,"upper_right_x":1.0,"upper_right_y":0.0},"crop_ratio":"free","crop_scale":1.0,"duration":10800000000,"extra_type_option":0,"formula_id":"","freeze":{"reverse_material_path":"","source_material_id":"021132E5-7F21-4678-9FBE-5DA6B9104839","source_material_path":"/Volumes/Work/dev/la-vaguelette-chiyu-cover/external/Cutscene Animation： ＂Sinner's Finale＂ ｜ Genshin Impact [_RAhrisU6Mc].webm","timestamp":123416665},"gameplay":null,"has_audio":false,"height":2160,"id":"906F16DF-AEBF-4C2E-8E5F-BF205E4624F9","intensifies_audio_path":"","intensifies_path":"","is_ai_generate_content":false,"is_unified_beauty_mode":false,"local_id":"","local_material_id":"","material_id":"","material_name":"定格","material_url":"","matting":{"flag":0,"has_use_quick_brush":false,"has_use_quick_eraser":false,"interactiveTime":[],"path":"##_draftpath_placeholder_0E685133-18CE-45ED-8CB8-2904A212EC80_##/matting/542e95bc1032a2a65fa6306ca4f0ed5b","strokes":[]},"media_path":"","object_locked":null,"origin_material_id":"","path":"##_draftpath_placeholder_0E685133-18CE-45ED-8CB8-2904A212EC80_##/c7c4914d5a0692b7652b137ae72ec26c_123416665-sdr709.jpg","picture_from":"none","picture_set_category_id":"","picture_set_category_name":"","request_id":"","reverse_intensifies_path":"","reverse_path":"","smart_motion":null,"source":0,"source_platform":0,"stable":{"matrix_path":"","stable_level":0,"time_range":{"duration":0,"start":0}},"team_id":"","type":"photo","video_algorithm":{"algorithms":[],"deflicker":null,"motion_blur_config":null,"noise_reduction":null,"path":"","quality_enhance":null,"time_range":null},"width":3840},{"aigc_type":"none","audio_fade":null,"cartoon_path":"","category_id":"","category_name":"local","check_flag":63487,"crop":{"lower_left_x":0.0,"lower_left_y":0.8333135190217391,"lower_right_x":1.0,"lower_right_y":0.8333135190217391,"upper_left_x":0.0,"upper_left_y":0.3981997282608696,"upper_right_x":1.0,"upper_right_y":0.3981997282608696},"crop_ratio":"free","crop_scale":1.0,"duration":191916666,"extra_type_option":1,"formula_id":"","freeze":null,"gameplay":null,"has_audio":true,"height":2160,"id":"91C0E816-70F0-404F-8F0B-88EFCBE2B43B","intensifies_audio_path":"","intensifies_path":"","is_ai_generate_content":false,"is_unified_beauty_mode":false,"local_id":"","local_material_id":"48a1518a-516f-49fa-968b-9d921d22be1c","material_id":"","material_name":"Cutscene Animation： ＂Sinner's Finale＂ ｜ Genshin Impact [_RAhrisU6Mc].webm","material_url":"","matting":{"flag":0,"has_use_quick_brush":false,"has_use_quick_eraser":false,"interactiveTime":[],"path":"","strokes":[]},"media_path":"","object_locked":null,"origin_material_id":"","path":"/Volumes/Work/dev/la-vaguelette-chiyu-cover/external/Cutscene Animation： ＂Sinner's Finale＂ ｜ Genshin Impact [_RAhrisU6Mc].webm","picture_from":"none","picture_set_category_id":"","picture_set_category_name":"","request_id":"","reverse_intensifies_path":"","reverse_path":"","smart_motion":null,"source":0,"source_platform":0,"stable":{"matrix_path":"","stable_level":0,"time_range":{"duration":0,"start":0}},"team_id":"","type":"video","video_algorithm":{"algorithms":[],"deflicker":null,"motion_blur_config":null,"noise_reduction":null,"path":"","quality_enhance":null,"time_range":null},"width":3840},{"aigc_type":"none","audio_fade":null,"cartoon_path":"","category_id":"","category_name":"local","check_flag":63487,"crop":{"lower_left_x":0.0,"lower_left_y":0.6398352581521739,"lower_right_x":1.0,"lower_right_y":0.6398352581521739,"upper_left_x":0.0,"upper_left_y":0.30583389945652173,"upper_right_x":1.0,"upper_right_y":0.30583389945652173},"crop_ratio":"free","crop_scale":1.0,"duration":191916666,"extra_type_option":1,"formula_id":"","freeze":null,"gameplay":null,"has_audio":true,"height":2160,"id":"980BD5C3-9EB8-41DC-800C-C1A31944390B","intensifies_audio_path":"","intensifies_path":"","is_ai_generate_content":false,"is_unified_beauty_mode":false,"local_id":"","local_material_id":"48a1518a-516f-49fa-968b-9d921d22be1c","material_id":"","material_name":"Cutscene Animation： ＂Sinner's Finale＂ ｜ Genshin Impact [_RAhrisU6Mc].webm","material_url":"","matting":{"flag":0,"has_use_quick_brush":false,"has_use_quick_eraser":false,"interactiveTime":[],"path":"","strokes":[]},"media_path":"","object_locked":null,"origin_material_id":"","path":"/Volumes/Work/dev/la-vaguelette-chiyu-cover/external/Cutscene Animation： ＂Sinner's Finale＂ ｜ Genshin Impact [_RAhrisU6Mc].webm","picture_from":"none","picture_set_category_id":"","picture_set_category_name":"","request_id":"","reverse_intensifies_path":"","reverse_path":"","smart_motion":null,"source":0,"source_platform":0,"stable":{"matrix_path":"","stable_level":0,"time_range":{"duration":0,"start":0}},"team_id":"","type":"video","video_algorithm":{"algorithms":[],"deflicker":null,"motion_blur_config":null,"noise_reduction":null,"path":"","quality_enhance":null,"time_range":null},"width":3840}],"vocal_beautifys":[],"vocal_separations":[{"choice":0,"id":"BA0AA537-439A-458E-B419-05DB01F5D41E","production_path":"","time_range":null,"type":"vocal_separation"},{"choice":0,"id":"0F184657-6F1A-429C-9EC8-C87006BE58D5","production_path":"","time_range":null,"type":"vocal_separation"},{"choice":0,"id":"C51F70D6-F9F6-45F1-A27A-96A095609183","production_path":"","time_range":null,"type":"vocal_separation"},{"choice":0,"id":"37AAB03F-8876-4677-91AA-290AA89A8A47","production_path":"","time_range":null,"type":"vocal_separation"}]},"mutable_config":null,"name":"","new_version":"89.0.0","platform":{"app_id":0,"app_source":"","app_version":"","device_id":"","hard_disk_id":"","mac_address":"","os":"","os_version":""},"relationships":[],"render_index_track_mode_on":true,"retouch_cover":null,"source":"default","static_cover_image_path":"","tracks":[{"attribute":0,"flag":0,"id":"8D8C227E-47CB-4A0E-8B12-C2DA659E6C9D","is_default_name":true,"name":"","segments":[],"type":"video"},{"attribute":0,"flag":0,"id":"5EEED5D8-E98F-4490-BD7B-D4EBE1480AA4","is_default_name":true,"name":"","segments":[{"cartoon":false,"clip":{"alpha":1.0,"flip":{"horizontal":false,"vertical":false},"rotation":0.0,"scale":{"x":1.0,"y":1.0},"transform":{"x":0.0,"y":0.0}},"common_keyframes":[],"enable_adjust":true,"enable_color_curves":true,"enable_color_match_adjust":false,"enable_color_wheels":true,"enable_lut":true,"enable_smart_color_adjust":false,"extra_material_refs":["CE178AAE-33B3-4880-B4CC-6961883E67FD","4FF61FF5-95EC-4CB7-A448-3EA496952532","C21AB072-C8C5-4086-8D20-F36EC125DDDF","6C1F64C2-AE5B-4655-A2FA-FA33D8CB4788","BA0AA537-439A-458E-B419-05DB01F5D41E"],"group_id":"4B5D5E57-B2EB-4E18-AE2F-2A08DC87DDFA","hdr_settings":{"intensity":1.0,"mode":1,"nits":1000},"id":"AA6EBCDB-B696-4CB6-A69A-64AF46F5622E","intensifies_audio":false,"is_placeholder":false,"is_tone_modify":false,"keyframe_refs":[],"last_nonzero_volume":1.0,"material_id":"86D6859F-45C6-43CC-A13F-C844496B5C99","render_index":6,"responsive_layout":{"enable":false,"horizontal_pos_layout":0,"size_layout":0,"target_follow":"","vertical_pos_layout":0},"reverse":false,"source_timerange":{"duration":3816667,"start":119599998},"speed":1.0,"target_timerange":{"duration":3816666,"start":0},"template_id":"","template_scene":"default","track_attribute":0,"track_render_index":4,"uniform_scale":{"on":true,"value":1.0},"visible":true,"volume":1.0},{"cartoon":false,"clip":{"alpha":1.0,"flip":{"horizontal":false,"vertical":false},"rotation":0.0,"scale":{"x":1.0,"y":1.0},"transform":{"x":0.0,"y":0.0}},"common_keyframes":[],"enable_adjust":true,"enable_color_curves":true,"enable_color_match_adjust":false,"enable_color_wheels":true,"enable_lut":true,"enable_smart_color_adjust":false,"extra_material_refs":["B246B074-AB30-4064-9379-CE00821E1967","4CF43E64-A14A-42A7-BE44-AA6E0210FB32","349DC294-AF20-4DAD-9479-6CAFE72C1570","C6AFB2FE-4388-4FA1-9EE5-967FDFC6531B","0F184657-6F1A-429C-9EC8-C87006BE58D5"],"group_id":"4B5D5E57-B2EB-4E18-AE2F-2A08DC87DDFA","hdr_settings":{"intensity":1.0,"mode":1,"nits":1000},"id":"262ED101-0AAB-4761-81DF-9C5298D8583F","intensifies_audio":false,"is_placeholder":false,"is_tone_modify":false,"keyframe_refs":[],"last_nonzero_volume":1.0,"material_id":"906F16DF-AEBF-4C2E-8E5F-BF205E4624F9","render_index":6,"responsive_layout":{"enable":false,"horizontal_pos_layout":0,"size_layout":0,"target_follow":"","vertical_pos_layout":0},"reverse":false,"source_timerange":{"duration":1300000,"start":0},"speed":1.0,"target_timerange":{"duration":1300000,"start":3816666},"template_id":"","template_scene":"default","track_attribute":0,"track_render_index":4,"uniform_scale":{"on":true,"value":1.0},"visible":true,"volume":1.0}],"type":"video"},{"attribute":0,"flag":0,"id":"897A2C23-DA8D-47C9-AA10-1F3348D57EC0","is_default_name":true,"name":"","segments":[{"cartoon":false,"clip":{"alpha":1.0,"flip":{"horizontal":false,"vertical":false},"rotation":0.0,"scale":{"x":1.0,"y":1.0},"transform":{"x":0.0,"y":0.17334455835187457}},"common_keyframes":[],"enable_adjust":true,"enable_color_curves":true,"enable_color_match_adjust":false,"enable_color_wheels":true,"enable_lut":true,"enable_smart_color_adjust":false,"extra_material_refs":["2EF5ED54-FFC7-4AA0-9DD2-1E589E4CCF67","E20B78FB-12B2-4FCB-8BE4-18478821188A","4E6C4550-B5F7-41AB-BA64-ED73909B6C04","E4387579-3CD0-479F-BBDB-0ADE3947EAA8","C51F70D6-F9F6-45F1-A27A-96A095609183"],"group_id":"4B5D5E57-B2EB-4E18-AE2F-2A08DC87DDFA","hdr_settings":{"intensity":1.0,"mode":1,"nits":1000},"id":"F15F032D-3D01-443F-A8D2-60559FFB28D8","intensifies_audio":false,"is_placeholder":false,"is_tone_modify":false,"keyframe_refs":[],"last_nonzero_volume":1.0,"material_id":"91C0E816-70F0-404F-8F0B-88EFCBE2B43B","render_index":4,"responsive_layout":{"enable":false,"horizontal_pos_layout":0,"size_layout":0,"target_follow":"","vertical_pos_layout":0},"reverse":false,"source_timerange":{"duration":3983334,"start":119599998},"speed":1.0,"target_timerange":{"duration":3983333,"start":0},"template_id":"","template_scene":"default","track_attribute":0,"track_render_index":5,"uniform_scale":{"on":true,"value":1.0},"visible":true,"volume":1.0}],"type":"video"},{"attribute":0,"flag":0,"id":"67C8765B-3DC7-428F-A742-1F1000E6DB5D","is_default_name":true,"name":"","segments":[{"cartoon":false,"clip":{"alpha":1.0,"flip":{"horizontal":false,"vertical":false},"rotation":0.0,"scale":{"x":1.0,"y":1.0},"transform":{"x":0.0,"y":-0.3108247253206027}},"common_keyframes":[],"enable_adjust":true,"enable_color_curves":true,"enable_color_match_adjust":false,"enable_color_wheels":true,"enable_lut":true,"enable_smart_color_adjust":false,"extra_material_refs":["F4F4D323-F211-4B29-A53D-7ADDDD9C3E6D","6C4B39F1-DD8E-456F-BFBE-B6C57D73B680","EF2AAEA4-F964-49EF-99BD-B0DE07C948AC","B5A7CEF2-5C4D-40EE-AE36-902129E66CDC","37AAB03F-8876-4677-91AA-290AA89A8A47"],"group_id":"4B5D5E57-B2EB-4E18-AE2F-2A08DC87DDFA","hdr_settings":{"intensity":1.0,"mode":1,"nits":1000},"id":"B1322EB2-40D0-4BE7-88DF-CD90B6F9D072","intensifies_audio":false,"is_placeholder":false,"is_tone_modify":false,"keyframe_refs":[],"last_nonzero_volume":1.0,"material_id":"980BD5C3-9EB8-41DC-800C-C1A31944390B","render_index":5,"responsive_layout":{"enable":false,"horizontal_pos_layout":0,"size_layout":0,"target_follow":"","vertical_pos_layout":0},"reverse":false,"source_timerange":{"duration":5116667,"start":124666665},"speed":1.0,"target_timerange":{"duration":5116666,"start":0},"template_id":"","template_scene":"default","track_attribute":0,"track_render_index":6,"uniform_scale":{"on":true,"value":1.0},"visible":true,"volume":1.0}],"type":"video"}],"update_time":0,"version":360000},"formula_id":"","id":"21A5BCEE-6FED-495C-8817-FDD882097FB5","name":"","precompile_combination":false,"type":"combination"},{"category_id":"","category_name":"","combination_id":"FA4DA28F-FEF2-4CC1-9EEF-7B1A8E457E6E","draft":{"canvas_config":{"height":1080,"ratio":"original","width":1920},"color_space":-1,"config":{"adjust_max_index":1,"attachment_info":[],"combination_max_index":1,"export_range":null,"extract_audio_last_index":1,"lyrics_recognition_id":"","lyrics_sync":true,"lyrics_taskinfo":[],"maintrack_adsorb":false,"material_save_mode":0,"original_sound_last_index":1,"record_audio_last_index":1,"sticker_max_index":1,"subtitle_recognition_id":"","subtitle_sync":true,"subtitle_taskinfo":[],"system_font_list":[],"video_mute":false,"zoom_info_params":null},"cover":null,"create_time":0,"duration":6133333,"extra_info":null,"fps":60.0,"free_render_index_mode_on":false,"group_container":{"groups":[{"group_index":0,"group_main_id":"","group_members":["7D6DB7A5-5301-4541-9393-9AAB6F65B349","C26A5E52-633C-4545-8209-99A1BD7375BD"],"id":"34F42588-37A4-4564-85E6-058913ADD0B9","is_expand":true,"material_draft":{"category_id":"","category_name":"","combination_id":"","draft":{"canvas_config":{"height":0,"ratio":"original","width":0},"color_space":-1,"config":{"adjust_max_index":1,"attachment_info":[],"combination_max_index":1,"export_range":null,"extract_audio_last_index":1,"lyrics_recognition_id":"","lyrics_sync":true,"lyrics_taskinfo":[],"maintrack_adsorb":true,"material_save_mode":0,"original_sound_last_index":1,"record_audio_last_index":1,"sticker_max_index":1,"subtitle_recognition_id":"","subtitle_sync":true,"subtitle_taskinfo":[],"system_font_list":[],"video_mute":false,"zoom_info_params":null},"cover":null,"create_time":0,"duration":0,"extra_info":null,"fps":30.0,"free_render_index_mode_on":false,"group_container":null,"id":"965D1284-8E06-4CDE-8596-F7145B072A7B","keyframe_graph_list":[],"keyframes":{"adjusts":[],"audios":[],"effects":[],"filters":[],"handwrites":[],"stickers":[],"texts":[],"videos":[]},"last_modified_platform":{"app_id":0,"app_source":"","app_version":"","device_id":"","hard_disk_id":"","mac_address":"","os":"","os_version":""},"materials":{"audio_balances":[],"audio_effects":[],"audio_fades":[],"audios":[],"beats":[],"canvases":[],"chromas":[],"color_curves":[],"digital_humans":[],"drafts":[],"effects":[],"flowers":[],"green_screens":[],"handwrites":[],"hsl":[],"images":[],"log_color_wheels":[],"loudnesses":[],"manual_deformations":[],"masks":[],"material_animations":[],"material_colors":[],"placeholders":[],"plugin_effects":[],"primary_color_wheels":[],"realtime_denoises":[],"shapes":[],"smart_crops":[],"smart_relights":[],"sound_channel_mappings":[],"speeds":[],"stickers":[],"tail_leaders":[],"text_templates":[],"texts":[],"transitions":[],"video_effects":[],"video_trackings":[],"videos":[],"vocal_beautifys":[],"vocal_separations":[]},"mutable_config":null,"name":"","new_version":"89.0.0","platform":{"app_id":0,"app_source":"","app_version":"","device_id":"","hard_disk_id":"","mac_address":"","os":"","os_version":""},"relationships":[],"render_index_track_mode_on":false,"retouch_cover":null,"source":"default","static_cover_image_path":"","tracks":[],"update_time":0,"version":360000},"formula_id":"","id":"AD5865B5-1872-4392-B8EC-6D547A480DB3","name":"","precompile_combination":false,"type":"composition"},"name":""}]},"id":"77102E55-2EA7-4738-81E9-528FACBE775D","keyframe_graph_list":[],"keyframes":{"adjusts":[],"audios":[],"effects":[],"filters":[],"handwrites":[],"stickers":[],"texts":[],"videos":[]},"last_modified_platform":{"app_id":0,"app_source":"","app_version":"","device_id":"","hard_disk_id":"","mac_address":"","os":"","os_version":""},"materials":{"audio_balances":[],"audio_effects":[],"audio_fades":[],"audios":[{"app_id":0,"category_id":"","category_name":"local","check_flag":1,"duration":6133333,"effect_id":"","formula_id":"","id":"7806F033-F832-4E2F-86D7-E158D1DFDFBE","intensifies_path":"","local_material_id":"24b7cea7-fc47-4a54-a8dd-848a1704cfdd","music_id":"e9abdd69-17b1-46e1-8419-d7c79b94edfe","name":"Rolling Slideshow.WAV","path":"/Volumes/Work/dev/la-vaguelette-chiyu-cover/external/Rolling Slideshow.WAV","query":"","request_id":"","resource_id":"","search_id":"","source_platform":0,"team_id":"","text_id":"","tone_category_id":"","tone_category_name":"","tone_effect_id":"","tone_effect_name":"","tone_speaker":"","tone_type":"","type":"extract_music","video_id":"","wave_points":[]}],"beats":[{"ai_beats":{"beat_speed_infos":[],"beats_path":"","beats_url":"","melody_path":"","melody_percents":[0.0],"melody_url":""},"enable_ai_beats":false,"gear":404,"gear_count":0,"id":"38593C05-2DB2-4E04-8924-B6FF93198832","mode":404,"type":"beats","user_beats":[],"user_delete_ai_beats":null}],"canvases":[{"album_image":"","blur":0.0,"color":"","id":"180C42C0-E3D1-4B9C-9F8B-05B100FEE521","image":"","image_id":"","image_name":"","source_platform":0,"team_id":"","type":"canvas_color"}],"chromas":[],"color_curves":[],"digital_humans":[],"drafts":[],"effects":[],"flowers":[],"green_screens":[],"handwrites":[],"hsl":[],"images":[],"log_color_wheels":[],"loudnesses":[],"manual_deformations":[],"masks":[],"material_animations":[{"animations":[],"id":"B743D89D-D644-432E-A81B-BA89286CF5A1","type":"sticker_animation"}],"material_colors":[],"placeholders":[],"plugin_effects":[],"primary_color_wheels":[],"realtime_denoises":[],"shapes":[],"smart_crops":[],"smart_relights":[],"sound_channel_mappings":[{"audio_channel_mapping":0,"id":"4D79F129-49FD-47EF-BE88-C851BF7D622B","is_config_open":false,"type":"none"},{"audio_channel_mapping":0,"id":"720ADA4C-3D2F-4327-874F-BC3BF789642B","is_config_open":false,"type":"none"}],"speeds":[{"curve_speed":null,"id":"2385D9CC-65B1-4617-98E8-C0D7824007CA","mode":0,"speed":1.0,"type":"speed"},{"curve_speed":null,"id":"2D2814A7-1773-4B8E-8B81-5ACA70C79018","mode":0,"speed":1.0,"type":"speed"}],"stickers":[],"tail_leaders":[],"text_templates":[],"texts":[],"transitions":[],"video_effects":[],"video_trackings":[],"videos":[{"aigc_type":"none","audio_fade":null,"cartoon_path":"","category_id":"","category_name":"local","check_flag":63487,"crop":{"lower_left_x":0.0,"lower_left_y":1.0,"lower_right_x":1.0,"lower_right_y":1.0,"upper_left_x":0.0,"upper_left_y":0.0,"upper_right_x":1.0,"upper_right_y":0.0},"crop_ratio":"free","crop_scale":1.0,"duration":16877516666,"extra_type_option":1,"formula_id":"","freeze":null,"gameplay":null,"has_audio":true,"height":1080,"id":"5ADA5F5A-D3AA-48D4-9516-53C948CA8BF8","intensifies_audio_path":"","intensifies_path":"","is_ai_generate_content":false,"is_unified_beauty_mode":false,"local_id":"","local_material_id":"da0938fd-aad3-472e-bbe7-169e4405df41","material_id":"","material_name":"GENSHIN IMPACT 4.2 - ARCHON QUEST ｜ Full Game Walkthrough ｜ No Commentary [0nIbouB_Qv8].webm","material_url":"","matting":{"flag":0,"has_use_quick_brush":false,"has_use_quick_eraser":false,"interactiveTime":[],"path":"","strokes":[]},"media_path":"","object_locked":null,"origin_material_id":"","path":"/Volumes/Work/dev/la-vaguelette-chiyu-cover/external/GENSHIN IMPACT 4.2 - ARCHON QUEST ｜ Full Game Walkthrough ｜ No Commentary [0nIbouB_Qv8].webm","picture_from":"none","picture_set_category_id":"","picture_set_category_name":"","request_id":"","reverse_intensifies_path":"","reverse_path":"","smart_motion":null,"source":0,"source_platform":0,"stable":{"matrix_path":"","stable_level":0,"time_range":{"duration":0,"start":0}},"team_id":"","type":"video","video_algorithm":{"algorithms":[],"deflicker":null,"motion_blur_config":null,"noise_reduction":null,"path":"","quality_enhance":null,"time_range":null},"width":1920}],"vocal_beautifys":[],"vocal_separations":[{"choice":0,"id":"D132FAEA-24FE-477A-A2BD-7A30E16FB804","production_path":"","time_range":null,"type":"vocal_separation"},{"choice":0,"id":"2A59E2CA-EF02-4989-BE52-0EDE2C64DB6C","production_path":"","time_range":null,"type":"vocal_separation"}]},"mutable_config":null,"name":"","new_version":"89.0.0","platform":{"app_id":0,"app_source":"","app_version":"","device_id":"","hard_disk_id":"","mac_address":"","os":"","os_version":""},"relationships":[],"render_index_track_mode_on":true,"retouch_cover":null,"source":"default","static_cover_image_path":"","tracks":[{"attribute":0,"flag":0,"id":"EC7118C8-E5E7-44D7-A57A-8740D3974D55","is_default_name":true,"name":"","segments":[],"type":"video"},{"attribute":0,"flag":0,"id":"934B4224-D79A-48FC-851C-ED6366F619CA","is_default_name":true,"name":"","segments":[{"cartoon":false,"clip":{"alpha":1.0,"flip":{"horizontal":false,"vertical":false},"rotation":0.0,"scale":{"x":1.05,"y":1.05},"transform":{"x":0.0,"y":0.0}},"common_keyframes":[],"enable_adjust":true,"enable_color_curves":true,"enable_color_match_adjust":false,"enable_color_wheels":true,"enable_lut":true,"enable_smart_color_adjust":false,"extra_material_refs":["2385D9CC-65B1-4617-98E8-C0D7824007CA","180C42C0-E3D1-4B9C-9F8B-05B100FEE521","B743D89D-D644-432E-A81B-BA89286CF5A1","4D79F129-49FD-47EF-BE88-C851BF7D622B","D132FAEA-24FE-477A-A2BD-7A30E16FB804"],"group_id":"E3CBAE35-37D3-49A3-B9EB-96A25C67FF55","hdr_settings":{"intensity":1.0,"mode":1,"nits":1000},"id":"E56620A9-0D6D-4386-B376-CED841AC82FF","intensifies_audio":false,"is_placeholder":false,"is_tone_modify":false,"keyframe_refs":[],"last_nonzero_volume":1.0,"material_id":"5ADA5F5A-D3AA-48D4-9516-53C948CA8BF8","render_index":9,"responsive_layout":{"enable":false,"horizontal_pos_layout":0,"size_layout":0,"target_follow":"","vertical_pos_layout":0},"reverse":false,"source_timerange":{"duration":6133334,"start":12277133333},"speed":1.0,"target_timerange":{"duration":6133333,"start":0},"template_id":"","template_scene":"default","track_attribute":0,"track_render_index":2,"uniform_scale":{"on":true,"value":1.0},"visible":true,"volume":1.0}],"type":"video"},{"attribute":0,"flag":0,"id":"C4757B65-F928-4106-92E5-51C08F9FE6D7","is_default_name":true,"name":"","segments":[{"cartoon":false,"clip":null,"common_keyframes":[],"enable_adjust":false,"enable_color_curves":true,"enable_color_match_adjust":false,"enable_color_wheels":true,"enable_lut":false,"enable_smart_color_adjust":false,"extra_material_refs":["2D2814A7-1773-4B8E-8B81-5ACA70C79018","38593C05-2DB2-4E04-8924-B6FF93198832","720ADA4C-3D2F-4327-874F-BC3BF789642B","2A59E2CA-EF02-4989-BE52-0EDE2C64DB6C"],"group_id":"E3CBAE35-37D3-49A3-B9EB-96A25C67FF55","hdr_settings":null,"id":"B5EFE2C7-36A9-4126-AF06-9E4DBA5C12D2","intensifies_audio":false,"is_placeholder":false,"is_tone_modify":false,"keyframe_refs":[],"last_nonzero_volume":1.0,"material_id":"7806F033-F832-4E2F-86D7-E158D1DFDFBE","render_index":0,"responsive_layout":{"enable":false,"horizontal_pos_layout":0,"size_layout":0,"target_follow":"","vertical_pos_layout":0},"reverse":false,"source_timerange":{"duration":6133333,"start":0},"speed":1.0,"target_timerange":{"duration":6133333,"start":0},"template_id":"","template_scene":"default","track_attribute":0,"track_render_index":0,"uniform_scale":null,"visible":true,"volume":1.0}],"type":"audio"}],"update_time":0,"version":360000},"formula_id":"","id":"769319CF-C87A-4B79-BF6F-B09E64E98971","name":"","precompile_combination":false,"type":"combination"},{"category_id":"","category_name":"","combination_id":"E1531AD1-B2FE-4627-8AB6-A3A68037B84D","draft":{"canvas_config":{"height":1080,"ratio":"original","width":1920},"color_space":-1,"config":{"adjust_max_index":1,"attachment_info":[],"combination_max_index":1,"export_range":null,"extract_audio_last_index":1,"lyrics_recognition_id":"","lyrics_sync":true,"lyrics_taskinfo":[],"maintrack_adsorb":false,"material_save_mode":0,"original_sound_last_index":1,"record_audio_last_index":1,"sticker_max_index":1,"subtitle_recognition_id":"","subtitle_sync":true,"subtitle_taskinfo":[],"system_font_list":[],"video_mute":false,"zoom_info_params":null},"cover":null,"create_time":0,"duration":6133333,"extra_info":null,"fps":60.0,"free_render_index_mode_on":false,"group_container":{"groups":[{"group_index":0,"group_main_id":"","group_members":["3F7C1EF9-799A-4A1D-B34D-BDC76CA2DAEC","DC22CE11-5F7D-42E5-81F4-61B10798819A"],"id":"0113A00C-B0C2-4C19-AB49-9758D191A01D","is_expand":true,"material_draft":{"category_id":"","category_name":"","combination_id":"","draft":{"canvas_config":{"height":0,"ratio":"original","width":0},"color_space":-1,"config":{"adjust_max_index":1,"attachment_info":[],"combination_max_index":1,"export_range":null,"extract_audio_last_index":1,"lyrics_recognition_id":"","lyrics_sync":true,"lyrics_taskinfo":[],"maintrack_adsorb":true,"material_save_mode":0,"original_sound_last_index":1,"record_audio_last_index":1,"sticker_max_index":1,"subtitle_recognition_id":"","subtitle_sync":true,"subtitle_taskinfo":[],"system_font_list":[],"video_mute":false,"zoom_info_params":null},"cover":null,"create_time":0,"duration":0,"extra_info":null,"fps":30.0,"free_render_index_mode_on":false,"group_container":null,"id":"7131686A-687B-44C2-BD05-226046D2A470","keyframe_graph_list":[],"keyframes":{"adjusts":[],"audios":[],"effects":[],"filters":[],"handwrites":[],"stickers":[],"texts":[],"videos":[]},"last_modified_platform":{"app_id":0,"app_source":"","app_version":"","device_id":"","hard_disk_id":"","mac_address":"","os":"","os_version":""},"materials":{"audio_balances":[],"audio_effects":[],"audio_fades":[],"audios":[],"beats":[],"canvases":[],"chromas":[],"color_curves":[],"digital_humans":[],"drafts":[],"effects":[],"flowers":[],"green_screens":[],"handwrites":[],"hsl":[],"images":[],"log_color_wheels":[],"loudnesses":[],"manual_deformations":[],"masks":[],"material_animations":[],"material_colors":[],"placeholders":[],"plugin_effects":[],"primary_color_wheels":[],"realtime_denoises":[],"shapes":[],"smart_crops":[],"smart_relights":[],"sound_channel_mappings":[],"speeds":[],"stickers":[],"tail_leaders":[],"text_templates":[],"texts":[],"transitions":[],"video_effects":[],"video_trackings":[],"videos":[],"vocal_beautifys":[],"vocal_separations":[]},"mutable_config":null,"name":"","new_version":"89.0.0","platform":{"app_id":0,"app_source":"","app_version":"","device_id":"","hard_disk_id":"","mac_address":"","os":"","os_version":""},"relationships":[],"render_index_track_mode_on":false,"retouch_cover":null,"source":"default","static_cover_image_path":"","tracks":[],"update_time":0,"version":360000},"formula_id":"","id":"C70C88A0-AC95-4B15-8BDB-9EA5BABEB9C2","name":"","precompile_combination":false,"type":"composition"},"name":""}]},"id":"6F3D25C5-5AB7-4836-85E7-091B82104FC2","keyframe_graph_list":[],"keyframes":{"adjusts":[],"audios":[],"effects":[],"filters":[],"handwrites":[],"stickers":[],"texts":[],"videos":[]},"last_modified_platform":{"app_id":0,"app_source":"","app_version":"","device_id":"","hard_disk_id":"","mac_address":"","os":"","os_version":""},"materials":{"audio_balances":[],"audio_effects":[],"audio_fades":[],"audios":[{"app_id":0,"category_id":"","category_name":"local","check_flag":1,"duration":6133333,"effect_id":"","formula_id":"","id":"51D1C855-E5C2-4CC9-A22A-B0A8720AD531","intensifies_path":"","local_material_id":"24b7cea7-fc47-4a54-a8dd-848a1704cfdd","music_id":"e9abdd69-17b1-46e1-8419-d7c79b94edfe","name":"Rolling Slideshow.WAV","path":"/Volumes/Work/dev/la-vaguelette-chiyu-cover/external/Rolling Slideshow.WAV","query":"","request_id":"","resource_id":"","search_id":"","source_platform":0,"team_id":"","text_id":"","tone_category_id":"","tone_category_name":"","tone_effect_id":"","tone_effect_name":"","tone_speaker":"","tone_type":"","type":"extract_music","video_id":"","wave_points":[]}],"beats":[{"ai_beats":{"beat_speed_infos":[],"beats_path":"","beats_url":"","melody_path":"","melody_percents":[0.0],"melody_url":""},"enable_ai_beats":false,"gear":404,"gear_count":0,"id":"EF40BD5F-61F6-4F42-942B-C928534AC5CE","mode":404,"type":"beats","user_beats":[],"user_delete_ai_beats":null}],"canvases":[{"album_image":"","blur":0.0,"color":"","id":"B9529470-8FD1-4961-81C8-D9BA9A935531","image":"","image_id":"","image_name":"","source_platform":0,"team_id":"","type":"canvas_color"}],"chromas":[],"color_curves":[],"digital_humans":[],"drafts":[],"effects":[],"flowers":[],"green_screens":[],"handwrites":[],"hsl":[],"images":[],"log_color_wheels":[],"loudnesses":[],"manual_deformations":[],"masks":[],"material_animations":[{"animations":[],"id":"1BE9219E-44A5-47C5-ACCC-44AC53457FFA","type":"sticker_animation"}],"material_colors":[],"placeholders":[],"plugin_effects":[],"primary_color_wheels":[],"realtime_denoises":[],"shapes":[],"smart_crops":[],"smart_relights":[],"sound_channel_mappings":[{"audio_channel_mapping":0,"id":"CD98CD80-0077-42EC-8A87-0261F008CD7A","is_config_open":false,"type":"none"},{"audio_channel_mapping":0,"id":"42444785-6720-4B4E-9EE5-75C98EF04F6E","is_config_open":false,"type":"none"}],"speeds":[{"curve_speed":null,"id":"CF6DBFE8-1902-4827-BDA7-E08EC7FB371F","mode":0,"speed":1.0,"type":"speed"},{"curve_speed":null,"id":"BD0E759A-702A-4B25-B0DA-935F87DE0527","mode":0,"speed":1.0,"type":"speed"}],"stickers":[],"tail_leaders":[],"text_templates":[],"texts":[],"transitions":[],"video_effects":[],"video_trackings":[],"videos":[{"aigc_type":"none","audio_fade":null,"cartoon_path":"","category_id":"","category_name":"local","check_flag":63487,"crop":{"lower_left_x":0.0,"lower_left_y":1.0,"lower_right_x":1.0,"lower_right_y":1.0,"upper_left_x":0.0,"upper_left_y":0.0,"upper_right_x":1.0,"upper_right_y":0.0},"crop_ratio":"free","crop_scale":1.0,"duration":16877516666,"extra_type_option":1,"formula_id":"","freeze":null,"gameplay":null,"has_audio":true,"height":1080,"id":"EEE73F83-5ED7-4DFB-9A2D-498D1469AAFE","intensifies_audio_path":"","intensifies_path":"","is_ai_generate_content":false,"is_unified_beauty_mode":false,"local_id":"","local_material_id":"da0938fd-aad3-472e-bbe7-169e4405df41","material_id":"","material_name":"GENSHIN IMPACT 4.2 - ARCHON QUEST ｜ Full Game Walkthrough ｜ No Commentary [0nIbouB_Qv8].webm","material_url":"","matting":{"flag":0,"has_use_quick_brush":false,"has_use_quick_eraser":false,"interactiveTime":[],"path":"","strokes":[]},"media_path":"","object_locked":null,"origin_material_id":"","path":"/Volumes/Work/dev/la-vaguelette-chiyu-cover/external/GENSHIN IMPACT 4.2 - ARCHON QUEST ｜ Full Game Walkthrough ｜ No Commentary [0nIbouB_Qv8].webm","picture_from":"none","picture_set_category_id":"","picture_set_category_name":"","request_id":"","reverse_intensifies_path":"","reverse_path":"","smart_motion":null,"source":0,"source_platform":0,"stable":{"matrix_path":"","stable_level":0,"time_range":{"duration":0,"start":0}},"team_id":"","type":"video","video_algorithm":{"algorithms":[],"deflicker":null,"motion_blur_config":null,"noise_reduction":null,"path":"","quality_enhance":null,"time_range":null},"width":1920}],"vocal_beautifys":[],"vocal_separations":[{"choice":0,"id":"53E680DC-F83B-43E9-8ACB-1CECDA51F0F0","production_path":"","time_range":null,"type":"vocal_separation"},{"choice":0,"id":"3FB954F0-98D0-4C89-BFB9-CE37A9CDEAA4","production_path":"","time_range":null,"type":"vocal_separation"}]},"mutable_config":null,"name":"","new_version":"89.0.0","platform":{"app_id":0,"app_source":"","app_version":"","device_id":"","hard_disk_id":"","mac_address":"","os":"","os_version":""},"relationships":[],"render_index_track_mode_on":true,"retouch_cover":null,"source":"default","static_cover_image_path":"","tracks":[{"attribute":0,"flag":0,"id":"BF764CAB-1D32-40F0-93A7-64665DBD0A51","is_default_name":true,"name":"","segments":[],"type":"video"},{"attribute":0,"flag":0,"id":"B33117CD-ADDA-4362-8C00-B6568576504B","is_default_name":true,"name":"","segments":[{"cartoon":false,"clip":{"alpha":1.0,"flip":{"horizontal":false,"vertical":false},"rotation":0.0,"scale":{"x":1.05,"y":1.05},"transform":{"x":0.0,"y":0.0}},"common_keyframes":[],"enable_adjust":true,"enable_color_curves":true,"enable_color_match_adjust":false,"enable_color_wheels":true,"enable_lut":true,"enable_smart_color_adjust":false,"extra_material_refs":["CF6DBFE8-1902-4827-BDA7-E08EC7FB371F","B9529470-8FD1-4961-81C8-D9BA9A935531","1BE9219E-44A5-47C5-ACCC-44AC53457FFA","CD98CD80-0077-42EC-8A87-0261F008CD7A","53E680DC-F83B-43E9-8ACB-1CECDA51F0F0"],"group_id":"549F7D06-C43D-4708-94C2-54F23E23423F","hdr_settings":{"intensity":1.0,"mode":1,"nits":1000},"id":"FDC59364-CEE2-4381-82A1-DD5D61100F92","intensifies_audio":false,"is_placeholder":false,"is_tone_modify":false,"keyframe_refs":[],"last_nonzero_volume":1.0,"material_id":"EEE73F83-5ED7-4DFB-9A2D-498D1469AAFE","render_index":11,"responsive_layout":{"enable":false,"horizontal_pos_layout":0,"size_layout":0,"target_follow":"","vertical_pos_layout":0},"reverse":false,"source_timerange":{"duration":6133333,"start":12592083333},"speed":1.0,"target_timerange":{"duration":6133333,"start":0},"template_id":"","template_scene":"default","track_attribute":0,"track_render_index":2,"uniform_scale":{"on":true,"value":1.0},"visible":true,"volume":1.0}],"type":"video"},{"attribute":0,"flag":0,"id":"C5F4E434-14F3-4A02-BEE7-E52B388C74CE","is_default_name":true,"name":"","segments":[{"cartoon":false,"clip":null,"common_keyframes":[],"enable_adjust":false,"enable_color_curves":true,"enable_color_match_adjust":false,"enable_color_wheels":true,"enable_lut":false,"enable_smart_color_adjust":false,"extra_material_refs":["BD0E759A-702A-4B25-B0DA-935F87DE0527","EF40BD5F-61F6-4F42-942B-C928534AC5CE","42444785-6720-4B4E-9EE5-75C98EF04F6E","3FB954F0-98D0-4C89-BFB9-CE37A9CDEAA4"],"group_id":"549F7D06-C43D-4708-94C2-54F23E23423F","hdr_settings":null,"id":"4E4EEF45-C3CA-452B-8A47-1277DB2BC167","intensifies_audio":false,"is_placeholder":false,"is_tone_modify":false,"keyframe_refs":[],"last_nonzero_volume":1.0,"material_id":"51D1C855-E5C2-4CC9-A22A-B0A8720AD531","render_index":0,"responsive_layout":{"enable":false,"horizontal_pos_layout":0,"size_layout":0,"target_follow":"","vertical_pos_layout":0},"reverse":false,"source_timerange":{"duration":6133333,"start":0},"speed":1.0,"target_timerange":{"duration":6133333,"start":0},"template_id":"","template_scene":"default","track_attribute":0,"track_render_index":0,"uniform_scale":null,"visible":true,"volume":1.0}],"type":"audio"}],"update_time":0,"version":360000},"formula_id":"","id":"2143D714-1BFB-47D1-92ED-48C2DC23F45D","name":"","precompile_combination":false,"type":"combination"},{"category_id":"","category_name":"","combination_id":"58F17D36-AC4F-4203-9CCA-25ADFFF4D2CA","draft":{"canvas_config":{"height":1080,"ratio":"original","width":1920},"color_space":-1,"config":{"adjust_max_index":1,"attachment_info":[],"combination_max_index":1,"export_range":null,"extract_audio_last_index":1,"lyrics_recognition_id":"","lyrics_sync":true,"lyrics_taskinfo":[],"maintrack_adsorb":false,"material_save_mode":0,"original_sound_last_index":1,"record_audio_last_index":1,"sticker_max_index":1,"subtitle_recognition_id":"","subtitle_sync":true,"subtitle_taskinfo":[],"system_font_list":[],"video_mute":false,"zoom_info_params":null},"cover":null,"create_time":0,"duration":7383333,"extra_info":null,"fps":60.0,"free_render_index_mode_on":false,"group_container":{"groups":[{"group_index":0,"group_main_id":"","group_members":["0928673F-25FA-4D0B-8C9D-463431E35101","B57728BE-7BB2-419E-A4EA-02D6A9095C57"],"id":"E5ABDEE2-EDF9-4C87-8263-32019C5AC356","is_expand":true,"material_draft":{"category_id":"","category_name":"","combination_id":"","draft":{"canvas_config":{"height":0,"ratio":"original","width":0},"color_space":-1,"config":{"adjust_max_index":1,"attachment_info":[],"combination_max_index":1,"export_range":null,"extract_audio_last_index":1,"lyrics_recognition_id":"","lyrics_sync":true,"lyrics_taskinfo":[],"maintrack_adsorb":true,"material_save_mode":0,"original_sound_last_index":1,"record_audio_last_index":1,"sticker_max_index":1,"subtitle_recognition_id":"","subtitle_sync":true,"subtitle_taskinfo":[],"system_font_list":[],"video_mute":false,"zoom_info_params":null},"cover":null,"create_time":0,"duration":0,"extra_info":null,"fps":30.0,"free_render_index_mode_on":false,"group_container":null,"id":"E52F721D-20CF-4345-970D-ED985F2DE175","keyframe_graph_list":[],"keyframes":{"adjusts":[],"audios":[],"effects":[],"filters":[],"handwrites":[],"stickers":[],"texts":[],"videos":[]},"last_modified_platform":{"app_id":0,"app_source":"","app_version":"","device_id":"","hard_disk_id":"","mac_address":"","os":"","os_version":""},"materials":{"audio_balances":[],"audio_effects":[],"audio_fades":[],"audios":[],"beats":[],"canvases":[],"chromas":[],"color_curves":[],"digital_humans":[],"drafts":[],"effects":[],"flowers":[],"green_screens":[],"handwrites":[],"hsl":[],"images":[],"log_color_wheels":[],"loudnesses":[],"manual_deformations":[],"masks":[],"material_animations":[],"material_colors":[],"placeholders":[],"plugin_effects":[],"primary_color_wheels":[],"realtime_denoises":[],"shapes":[],"smart_crops":[],"smart_relights":[],"sound_channel_mappings":[],"speeds":[],"stickers":[],"tail_leaders":[],"text_templates":[],"texts":[],"transitions":[],"video_effects":[],"video_trackings":[],"videos":[],"vocal_beautifys":[],"vocal_separations":[]},"mutable_config":null,"name":"","new_version":"89.0.0","platform":{"app_id":0,"app_source":"","app_version":"","device_id":"","hard_disk_id":"","mac_address":"","os":"","os_version":""},"relationships":[],"render_index_track_mode_on":false,"retouch_cover":null,"source":"default","static_cover_image_path":"","tracks":[],"update_time":0,"version":360000},"formula_id":"","id":"C044B123-E6E9-4BB6-A40D-057102F50CAA","name":"","precompile_combination":false,"type":"composition"},"name":""}]},"id":"03C65689-B4D7-4C17-AC98-D5A6541335F6","keyframe_graph_list":[],"keyframes":{"adjusts":[],"audios":[],"effects":[],"filters":[],"handwrites":[],"stickers":[],"texts":[],"videos":[]},"last_modified_platform":{"app_id":0,"app_source":"","app_version":"","device_id":"","hard_disk_id":"","mac_address":"","os":"","os_version":""},"materials":{"audio_balances":[],"audio_effects":[],"audio_fades":[],"audios":[{"app_id":0,"category_id":"","category_name":"local","check_flag":1,"duration":6133333,"effect_id":"","formula_id":"","id":"02DEA4B1-8F80-4C06-B881-F6E8AEB368A9","intensifies_path":"","local_material_id":"24b7cea7-fc47-4a54-a8dd-848a1704cfdd","music_id":"7607ff1d-cb9a-46af-88a6-edb10b8002cf","name":"Rolling Slideshow.WAV","path":"/Volumes/Work/dev/la-vaguelette-chiyu-cover/external/Rolling Slideshow.WAV","query":"","request_id":"","resource_id":"","search_id":"","source_platform":0,"team_id":"","text_id":"","tone_category_id":"","tone_category_name":"","tone_effect_id":"","tone_effect_name":"","tone_speaker":"","tone_type":"","type":"extract_music","video_id":"","wave_points":[]}],"beats":[{"ai_beats":{"beat_speed_infos":[],"beats_path":"","beats_url":"","melody_path":"","melody_percents":[0.0],"melody_url":""},"enable_ai_beats":false,"gear":404,"gear_count":0,"id":"7F0DAF9D-8682-4EF5-8831-851E0A3D72C9","mode":404,"type":"beats","user_beats":[],"user_delete_ai_beats":null}],"canvases":[{"album_image":"","blur":0.0,"color":"","id":"D38A7BA5-A0B2-437F-9167-00A7CB357DC9","image":"","image_id":"","image_name":"","source_platform":0,"team_id":"","type":"canvas_color"}],"chromas":[],"color_curves":[],"digital_humans":[],"drafts":[],"effects":[],"flowers":[],"green_screens":[],"handwrites":[],"hsl":[],"images":[],"log_color_wheels":[],"loudnesses":[],"manual_deformations":[],"masks":[],"material_animations":[{"animations":[],"id":"9120D8F9-EEA5-45D4-8602-06D2539C4FE2","type":"sticker_animation"}],"material_colors":[],"placeholders":[],"plugin_effects":[],"primary_color_wheels":[],"realtime_denoises":[],"shapes":[],"smart_crops":[],"smart_relights":[],"sound_channel_mappings":[{"audio_channel_mapping":0,"id":"9CC6F148-B6F7-4C1E-8FA8-7EB0030B3429","is_config_open":false,"type":"none"},{"audio_channel_mapping":0,"id":"160325B9-BB7E-41C9-B8C7-6BFD1A3A6E4E","is_config_open":false,"type":"none"}],"speeds":[{"curve_speed":null,"id":"49D06AE0-D2CD-4570-9E42-BFD5427426CF","mode":0,"speed":1.2,"type":"speed"},{"curve_speed":null,"id":"F734B202-65A3-4A4C-9FFA-771839DD0ABF","mode":0,"speed":1.0,"type":"speed"}],"stickers":[],"tail_leaders":[],"text_templates":[],"texts":[],"transitions":[],"video_effects":[],"video_trackings":[],"videos":[{"aigc_type":"none","audio_fade":null,"cartoon_path":"","category_id":"","category_name":"local","check_flag":63487,"crop":{"lower_left_x":0.0,"lower_left_y":1.0,"lower_right_x":1.0,"lower_right_y":1.0,"upper_left_x":0.0,"upper_left_y":0.0,"upper_right_x":1.0,"upper_right_y":0.0},"crop_ratio":"free","crop_scale":1.0,"duration":16877516666,"extra_type_option":1,"formula_id":"","freeze":null,"gameplay":null,"has_audio":true,"height":1080,"id":"3EF25203-DB38-4D98-BD01-2FF0302D56C3","intensifies_audio_path":"","intensifies_path":"","is_ai_generate_content":false,"is_unified_beauty_mode":false,"local_id":"","local_material_id":"da0938fd-aad3-472e-bbe7-169e4405df41","material_id":"","material_name":"GENSHIN IMPACT 4.2 - ARCHON QUEST ｜ Full Game Walkthrough ｜ No Commentary [0nIbouB_Qv8].webm","material_url":"","matting":{"flag":0,"has_use_quick_brush":false,"has_use_quick_eraser":false,"interactiveTime":[],"path":"","strokes":[]},"media_path":"","object_locked":null,"origin_material_id":"","path":"/Volumes/Work/dev/la-vaguelette-chiyu-cover/external/GENSHIN IMPACT 4.2 - ARCHON QUEST ｜ Full Game Walkthrough ｜ No Commentary [0nIbouB_Qv8].webm","picture_from":"none","picture_set_category_id":"","picture_set_category_name":"","request_id":"","reverse_intensifies_path":"","reverse_path":"","smart_motion":null,"source":0,"source_platform":0,"stable":{"matrix_path":"","stable_level":0,"time_range":{"duration":0,"start":0}},"team_id":"","type":"video","video_algorithm":{"algorithms":[],"deflicker":null,"motion_blur_config":null,"noise_reduction":null,"path":"","quality_enhance":null,"time_range":null},"width":1920}],"vocal_beautifys":[],"vocal_separations":[{"choice":0,"id":"4283CC24-8760-4C7E-89BF-FBAD72BCAD7F","production_path":"","time_range":null,"type":"vocal_separation"},{"choice":0,"id":"A509E45C-87D8-42BB-A542-572793634C5F","production_path":"","time_range":null,"type":"vocal_separation"}]},"mutable_config":null,"name":"","new_version":"89.0.0","platform":{"app_id":0,"app_source":"","app_version":"","device_id":"","hard_disk_id":"","mac_address":"","os":"","os_version":""},"relationships":[],"render_index_track_mode_on":true,"retouch_cover":null,"source":"default","static_cover_image_path":"","tracks":[{"attribute":0,"flag":0,"id":"8DA8FA9C-26C7-4168-A27D-4EBC7C70F132","is_default_name":true,"name":"","segments":[],"type":"video"},{"attribute":0,"flag":0,"id":"C606CCE2-C92B-46BE-8774-DF2B2AC0A7D2","is_default_name":true,"name":"","segments":[{"cartoon":false,"clip":{"alpha":1.0,"flip":{"horizontal":false,"vertical":false},"rotation":0.0,"scale":{"x":1.0,"y":1.0},"transform":{"x":0.0,"y":0.0}},"common_keyframes":[],"enable_adjust":true,"enable_color_curves":true,"enable_color_match_adjust":false,"enable_color_wheels":true,"enable_lut":true,"enable_smart_color_adjust":false,"extra_material_refs":["49D06AE0-D2CD-4570-9E42-BFD5427426CF","D38A7BA5-A0B2-437F-9167-00A7CB357DC9","9120D8F9-EEA5-45D4-8602-06D2539C4FE2","9CC6F148-B6F7-4C1E-8FA8-7EB0030B3429","4283CC24-8760-4C7E-89BF-FBAD72BCAD7F"],"group_id":"C7AC0971-B979-42A4-94A8-2AC103145BAE","hdr_settings":{"intensity":1.0,"mode":1,"nits":1000},"id":"A33F4D7F-F2C3-445A-B4BD-CD541996D344","intensifies_audio":false,"is_placeholder":false,"is_tone_modify":false,"keyframe_refs":[],"last_nonzero_volume":1.0,"material_id":"3EF25203-DB38-4D98-BD01-2FF0302D56C3","render_index":10,"responsive_layout":{"enable":false,"horizontal_pos_layout":0,"size_layout":0,"target_follow":"","vertical_pos_layout":0},"reverse":false,"source_timerange":{"duration":8850001,"start":12703099999},"speed":1.2,"target_timerange":{"duration":7383333,"start":0},"template_id":"","template_scene":"default","track_attribute":0,"track_render_index":8,"uniform_scale":{"on":true,"value":1.0},"visible":true,"volume":1.0}],"type":"video"},{"attribute":0,"flag":0,"id":"1584537E-B92E-4279-975B-132585A1430B","is_default_name":true,"name":"","segments":[{"cartoon":false,"clip":null,"common_keyframes":[],"enable_adjust":false,"enable_color_curves":true,"enable_color_match_adjust":false,"enable_color_wheels":true,"enable_lut":false,"enable_smart_color_adjust":false,"extra_material_refs":["F734B202-65A3-4A4C-9FFA-771839DD0ABF","7F0DAF9D-8682-4EF5-8831-851E0A3D72C9","160325B9-BB7E-41C9-B8C7-6BFD1A3A6E4E","A509E45C-87D8-42BB-A542-572793634C5F"],"group_id":"C7AC0971-B979-42A4-94A8-2AC103145BAE","hdr_settings":null,"id":"1F762248-1C78-474A-86A3-0B7278F42CE7","intensifies_audio":false,"is_placeholder":false,"is_tone_modify":false,"keyframe_refs":[],"last_nonzero_volume":1.0,"material_id":"02DEA4B1-8F80-4C06-B881-F6E8AEB368A9","render_index":0,"responsive_layout":{"enable":false,"horizontal_pos_layout":0,"size_layout":0,"target_follow":"","vertical_pos_layout":0},"reverse":false,"source_timerange":{"duration":6133333,"start":0},"speed":1.0,"target_timerange":{"duration":6133333,"start":0},"template_id":"","template_scene":"default","track_attribute":0,"track_render_index":0,"uniform_scale":null,"visible":true,"volume":1.0}],"type":"audio"}],"update_time":0,"version":360000},"formula_id":"","id":"3C4A9B4F-5250-4E3D-83BE-A809127D2DB9","name":"","precompile_combination":false,"type":"combination"},{"category_id":"","category_name":"","combination_id":"","draft":{"canvas_config":{"height":0,"ratio":"original","width":0},"color_space":-1,"config":{"adjust_max_index":1,"attachment_info":[],"combination_max_index":1,"export_range":null,"extract_audio_last_index":1,"lyrics_recognition_id":"","lyrics_sync":true,"lyrics_taskinfo":[],"maintrack_adsorb":true,"material_save_mode":0,"original_sound_last_index":1,"record_audio_last_index":1,"sticker_max_index":14003,"subtitle_recognition_id":"","subtitle_sync":true,"subtitle_taskinfo":[],"system_font_list":[],"video_mute":false,"zoom_info_params":null},"cover":null,"create_time":0,"duration":157033333,"extra_info":null,"fps":30.0,"free_render_index_mode_on":false,"group_container":null,"id":"D6A9AC94-D86C-4197-AF5D-4903E8E1A74A","keyframe_graph_list":[],"keyframes":{"adjusts":[],"audios":[],"effects":[],"filters":[],"handwrites":[],"stickers":[],"texts":[],"videos":[]},"last_modified_platform":{"app_id":0,"app_source":"","app_version":"","device_id":"","hard_disk_id":"","mac_address":"","os":"","os_version":""},"materials":{"audio_balances":[],"audio_effects":[],"audio_fades":[],"audios":[],"beats":[],"canvases":[{"album_image":"","blur":0.0,"color":"","id":"A93BE61B-F267-4884-956F-A067D2EDE017","image":"","image_id":"","image_name":"","source_platform":0,"team_id":"","type":"canvas_color"}],"chromas":[],"color_curves":[],"digital_humans":[],"drafts":[],"effects":[],"flowers":[],"green_screens":[],"handwrites":[],"hsl":[],"images":[],"log_color_wheels":[],"loudnesses":[],"manual_deformations":[],"masks":[],"material_animations":[{"animations":[],"id":"93B60259-B932-4D07-B1EC-30A7526C578D","type":"sticker_animation"},{"animations":[],"id":"1F718D50-8727-47B6-8DB0-5A48B96645C6","type":"sticker_animation"},{"animations":[],"id":"C1B7CF17-8D64-4126-9E04-F98BAFD0FF90","type":"sticker_animation"}],"material_colors":[],"placeholders":[],"plugin_effects":[],"primary_color_wheels":[],"realtime_denoises":[],"shapes":[],"smart_crops":[],"smart_relights":[],"sound_channel_mappings":[{"audio_channel_mapping":0,"id":"02F2FEBA-A923-4289-968F-F50E5E1C75DE","is_config_open":false,"type":"none"}],"speeds":[{"curve_speed":null,"id":"9BFA8603-8EBC-4D5F-BE35-0D421A7C371E","mode":0,"speed":1.0,"type":"speed"}],"stickers":[],"tail_leaders":[],"text_templates":[],"texts":[{"add_type":0,"alignment":1,"background_alpha":1.0,"background_color":"","background_height":0.14,"background_horizontal_offset":0.0,"background_round_radius":0.0,"background_style":0,"background_vertical_offset":0.0,"background_width":0.14,"bold_width":0.0,"border_alpha":1.0,"border_color":"","border_width":0.059999998658895,"caption_template_info":{"category_id":"","category_name":"","effect_id":"","resource_id":"","resource_name":""},"check_flag":7,"combo_info":{"text_templates":[]},"content":"<useLetterColor><shadow color=(0,0,0,0.74) offset=(0.014142,-0.014142) smooth=0.001667 angle=-45><i><size=15><font id=\"6740512665455563272\" path=\"/Users/iluminar/Library/Containers/com.lemon.lvoverseas/Data/Movies/CapCut/User Data/Cache/effect/3197284/7e918afb45c0ac4ca84c66b37c23b7a0/StereoType Fonts - Gloss And Bloom.ttf\">[La Vaguelette]</font></size></i></shadow></useLetterColor>","fixed_height":-1.0,"fixed_width":-1.0,"font_category_id":"","font_category_name":"","font_id":"","font_name":"","font_path":"/Users/iluminar/Library/Containers/com.lemon.lvoverseas/Data/Movies/CapCut/User Data/Cache/effect/3197284/7e918afb45c0ac4ca84c66b37c23b7a0/StereoType Fonts - Gloss And Bloom.ttf","font_resource_id":"6740512665455563272","font_size":15.0,"font_source_platform":0,"font_team_id":"","font_title":"none","font_url":"","fonts":[{"category_id":"","category_name":"","effect_id":"3197284","id":"","path":"/Users/iluminar/Library/Containers/com.lemon.lvoverseas/Data/Movies/CapCut/User Data/Cache/effect/3197284/7e918afb45c0ac4ca84c66b37c23b7a0/StereoType Fonts - Gloss And Bloom.ttf","request_id":"","resource_id":"6740512665455563272","source_platform":0,"team_id":"","title":"Paint"}],"force_apply_line_max_width":false,"global_alpha":1.0,"group_id":"","has_shadow":false,"id":"31DE8FB8-B701-4013-8C80-2A075FE0A4BC","initial_scale":0.0,"is_rich_text":false,"italic_degree":10,"ktv_color":"","language":"","layer_weight":1,"letter_spacing":0.050000000745058,"line_feed":1,"line_max_width":0.82,"line_spacing":0.100000001490116,"name":"","original_size":[],"preset_category":"","preset_category_id":"","preset_has_set_alignment":false,"preset_id":"","preset_index":0,"preset_name":"","recognize_type":0,"relevance_segment":[],"shadow_alpha":0.740000009536743,"shadow_angle":-45.0,"shadow_color":"#000000","shadow_distance":8.0,"shadow_point":{"x":1.0182337649086284,"y":-1.0182337649086284},"shadow_smoothing":0.029999999329448,"shape_clip_x":false,"shape_clip_y":false,"style_name":"","sub_type":0,"text_alpha":1.0,"text_color":"","text_curve":null,"text_preset_resource_id":"","text_size":30,"text_to_audio_ids":[],"tts_auto_update":false,"type":"text","typesetting":0,"underline":false,"underline_offset":0.22,"underline_width":0.05,"use_effect_default_color":false,"words":{"end_time":[],"start_time":[],"text":[]}},{"add_type":0,"alignment":1,"background_alpha":1.0,"background_color":"","background_height":0.14,"background_horizontal_offset":0.0,"background_round_radius":0.0,"background_style":0,"background_vertical_offset":0.0,"background_width":0.14,"bold_width":0.0,"border_alpha":1.0,"border_color":"","border_width":0.059999998658895,"caption_template_info":{"category_id":"","category_name":"","effect_id":"","resource_id":"","resource_name":""},"check_flag":7,"combo_info":{"text_templates":[]},"content":"<useLetterColor><shadow color=(0,0,0,0.74) offset=(0.014142,-0.014142) smooth=0.001667 angle=-45><i><size=15><font id=\"7042286453497270785\" path=\"/Users/iluminar/Library/Containers/com.lemon.lvoverseas/Data/Movies/CapCut/User Data/Cache/effect/3197462/64b0eee1f99387b2d7a27f9c961e6bba/默陌专辑手写体.ttf\">[轻涟]</font></size></i></shadow></useLetterColor>","fixed_height":-1.0,"fixed_width":-1.0,"font_category_id":"","font_category_name":"","font_id":"","font_name":"","font_path":"/Users/iluminar/Library/Containers/com.lemon.lvoverseas/Data/Movies/CapCut/User Data/Cache/effect/3197462/64b0eee1f99387b2d7a27f9c961e6bba/默陌专辑手写体.ttf","font_resource_id":"7042286453497270785","font_size":15.0,"font_source_platform":0,"font_team_id":"","font_title":"none","font_url":"","fonts":[{"category_id":"","category_name":"","effect_id":"7042286453497270785","id":"39C284EA-FA28-4848-B45E-AD0D730F32A1","path":"/Users/iluminar/Library/Containers/com.lemon.lvoverseas/Data/Movies/CapCut/User Data/Cache/effect/3197462/64b0eee1f99387b2d7a27f9c961e6bba/默陌专辑手写体.ttf","request_id":"","resource_id":"7042286453497270785","source_platform":0,"team_id":"","title":"默陌手写"}],"force_apply_line_max_width":false,"global_alpha":1.0,"group_id":"","has_shadow":false,"id":"5E59F784-9A27-4AF2-AC3D-13CE93331AE2","initial_scale":0.0,"is_rich_text":false,"italic_degree":10,"ktv_color":"","language":"","layer_weight":1,"letter_spacing":0.050000000745058,"line_feed":1,"line_max_width":0.82,"line_spacing":0.100000001490116,"name":"","original_size":[],"preset_category":"","preset_category_id":"","preset_has_set_alignment":false,"preset_id":"","preset_index":0,"preset_name":"","recognize_type":0,"relevance_segment":[],"shadow_alpha":0.740000009536743,"shadow_angle":-45.0,"shadow_color":"#000000","shadow_distance":8.0,"shadow_point":{"x":1.0182337649086284,"y":-1.0182337649086284},"shadow_smoothing":0.029999999329448,"shape_clip_x":false,"shape_clip_y":false,"style_name":"","sub_type":0,"text_alpha":1.0,"text_color":"","text_curve":null,"text_preset_resource_id":"","text_size":30,"text_to_audio_ids":[],"tts_auto_update":false,"type":"text","typesetting":0,"underline":false,"underline_offset":0.22,"underline_width":0.05,"use_effect_default_color":false,"words":{"end_time":[],"start_time":[],"text":[]}},{"add_type":0,"alignment":1,"background_alpha":1.0,"background_color":"","background_height":0.14,"background_horizontal_offset":0.0,"background_round_radius":0.0,"background_style":0,"background_vertical_offset":0.0,"background_width":0.14,"bold_width":0.0,"border_alpha":1.0,"border_color":"","border_width":0.059999998658895,"caption_template_info":{"category_id":"","category_name":"","effect_id":"","resource_id":"","resource_name":""},"check_flag":7,"combo_info":{"text_templates":[]},"content":"<useLetterColor><shadow color=(0,0,0,0.74) offset=(0.014142,-0.014142) smooth=0.001667 angle=-45><i><size=15><font id=\"7176918942324101634\" path=\"/Users/iluminar/Library/Containers/com.lemon.lvoverseas/Data/Movies/CapCut/User Data/Cache/effect/6765068/556a3f0ce762e7524a1163ffc59ffd54/Italianno-Regular.ttf\">[To Furina the Greatest]</font></size></i></shadow></useLetterColor>","fixed_height":-1.0,"fixed_width":-1.0,"font_category_id":"","font_category_name":"","font_id":"","font_name":"","font_path":"/Users/iluminar/Library/Containers/com.lemon.lvoverseas/Data/Movies/CapCut/User Data/Cache/effect/6765068/556a3f0ce762e7524a1163ffc59ffd54/Italianno-Regular.ttf","font_resource_id":"7176918942324101634","font_size":15.0,"font_source_platform":0,"font_team_id":"","font_title":"none","font_url":"","fonts":[{"category_id":"","category_name":"","effect_id":"7176918942324101634","id":"E38A6017-5A95-400A-8C58-5F96C07DDE08","path":"/Users/iluminar/Library/Containers/com.lemon.lvoverseas/Data/Movies/CapCut/User Data/Cache/effect/6765068/556a3f0ce762e7524a1163ffc59ffd54/Italianno-Regular.ttf","request_id":"","resource_id":"7176918942324101634","source_platform":0,"team_id":"","title":"Italianno"}],"force_apply_line_max_width":false,"global_alpha":1.0,"group_id":"","has_shadow":false,"id":"BA286455-FFAB-473C-AA9E-FBA46961C575","initial_scale":0.0,"is_rich_text":false,"italic_degree":10,"ktv_color":"","language":"","layer_weight":1,"letter_spacing":0.050000000745058,"line_feed":1,"line_max_width":0.82,"line_spacing":0.100000001490116,"name":"","original_size":[],"preset_category":"","preset_category_id":"","preset_has_set_alignment":false,"preset_id":"","preset_index":0,"preset_name":"","recognize_type":0,"relevance_segment":[],"shadow_alpha":0.740000009536743,"shadow_angle":-45.0,"shadow_color":"#000000","shadow_distance":8.0,"shadow_point":{"x":1.0182337649086284,"y":-1.0182337649086284},"shadow_smoothing":0.029999999329448,"shape_clip_x":false,"shape_clip_y":false,"style_name":"","sub_type":0,"text_alpha":1.0,"text_color":"","text_curve":null,"text_preset_resource_id":"","text_size":30,"text_to_audio_ids":[],"tts_auto_update":false,"type":"text","typesetting":0,"underline":false,"underline_offset":0.22,"underline_width":0.05,"use_effect_default_color":false,"words":{"end_time":[],"start_time":[],"text":[]}}],"transitions":[],"video_effects":[],"video_trackings":[],"videos":[{"aigc_type":"none","audio_fade":null,"cartoon_path":"","category_id":"","category_name":"","check_flag":63487,"crop":{"lower_left_x":0.0,"lower_left_y":1.0,"lower_right_x":1.0,"lower_right_y":1.0,"upper_left_x":0.0,"upper_left_y":0.0,"upper_right_x":1.0,"upper_right_y":0.0},"crop_ratio":"free","crop_scale":1.0,"duration":10800000000,"extra_type_option":0,"formula_id":"","freeze":null,"gameplay":null,"has_audio":false,"height":1080,"id":"4D209C07-1723-49AD-ADA8-59A77B71762D","intensifies_audio_path":"","intensifies_path":"","is_ai_generate_content":false,"is_unified_beauty_mode":false,"local_id":"","local_material_id":"","material_id":"","material_name":"","material_url":"","matting":{"flag":0,"has_use_quick_brush":false,"has_use_quick_eraser":false,"interactiveTime":[],"path":"","strokes":[]},"media_path":"","object_locked":null,"origin_material_id":"","path":"##_draftpath_placeholder_0E685133-18CE-45ED-8CB8-2904A212EC80_##/Resources/cover/8532B6E6-8F32-4FE3-8751-0C6271E29D89.png","picture_from":"none","picture_set_category_id":"","picture_set_category_name":"","request_id":"","reverse_intensifies_path":"","reverse_path":"","smart_motion":null,"source":0,"source_platform":0,"stable":{"matrix_path":"","stable_level":0,"time_range":{"duration":0,"start":0}},"team_id":"","type":"photo","video_algorithm":{"algorithms":[],"deflicker":null,"motion_blur_config":null,"noise_reduction":null,"path":"","quality_enhance":null,"time_range":null},"width":1920}],"vocal_beautifys":[],"vocal_separations":[{"choice":0,"id":"14A3BDBC-6B92-4573-B604-05B77D87703A","production_path":"","time_range":null,"type":"vocal_separation"}]},"mutable_config":null,"name":"","new_version":"89.0.0","platform":{"app_id":0,"app_source":"","app_version":"","device_id":"","hard_disk_id":"","mac_address":"","os":"","os_version":""},"relationships":[],"render_index_track_mode_on":false,"retouch_cover":null,"source":"default","static_cover_image_path":"","tracks":[{"attribute":0,"flag":0,"id":"BF36E8B4-BA20-45E2-941C-30A7F3F6CCF4","is_default_name":true,"name":"","segments":[{"cartoon":false,"clip":{"alpha":1.0,"flip":{"horizontal":false,"vertical":false},"rotation":0.0,"scale":{"x":1.0,"y":1.0},"transform":{"x":0.0,"y":0.0}},"common_keyframes":[],"enable_adjust":true,"enable_color_curves":true,"enable_color_match_adjust":false,"enable_color_wheels":true,"enable_lut":true,"enable_smart_color_adjust":false,"extra_material_refs":["9BFA8603-8EBC-4D5F-BE35-0D421A7C371E","A93BE61B-F267-4884-956F-A067D2EDE017","02F2FEBA-A923-4289-968F-F50E5E1C75DE","14A3BDBC-6B92-4573-B604-05B77D87703A"],"group_id":"","hdr_settings":null,"id":"F0D3641A-3D89-41DB-8319-4ED1E29D2B6A","intensifies_audio":false,"is_placeholder":false,"is_tone_modify":false,"keyframe_refs":[],"last_nonzero_volume":1.0,"material_id":"4D209C07-1723-49AD-ADA8-59A77B71762D","render_index":101,"responsive_layout":{"enable":false,"horizontal_pos_layout":0,"size_layout":0,"target_follow":"","vertical_pos_layout":0},"reverse":false,"source_timerange":{"duration":3000000,"start":0},"speed":1.0,"target_timerange":{"duration":3000000,"start":154033333},"template_id":"","template_scene":"default","track_attribute":0,"track_render_index":101,"uniform_scale":{"on":true,"value":1.0},"visible":true,"volume":1.0}],"type":"video"},{"attribute":0,"flag":0,"id":"F0D69DEF-F4E8-48ED-AB86-ED95AB9DE708","is_default_name":true,"name":"","segments":[{"cartoon":false,"clip":{"alpha":1.0,"flip":{"horizontal":false,"vertical":false},"rotation":-8.04476138998527,"scale":{"x":1.897128701210022,"y":1.897128701210022},"transform":{"x":-0.09872127554783705,"y":-0.14752549089963973}},"common_keyframes":[],"enable_adjust":false,"enable_color_curves":true,"enable_color_match_adjust":false,"enable_color_wheels":true,"enable_lut":false,"enable_smart_color_adjust":false,"extra_material_refs":["93B60259-B932-4D07-B1EC-30A7526C578D"],"group_id":"","hdr_settings":null,"id":"9D770EDF-34CE-4B88-BE83-80485857BEF4","intensifies_audio":false,"is_placeholder":false,"is_tone_modify":false,"keyframe_refs":[],"last_nonzero_volume":1.0,"material_id":"31DE8FB8-B701-4013-8C80-2A075FE0A4BC","render_index":14003,"responsive_layout":{"enable":false,"horizontal_pos_layout":0,"size_layout":0,"target_follow":"","vertical_pos_layout":0},"reverse":false,"source_timerange":null,"speed":1.0,"target_timerange":{"duration":157033333,"start":0},"template_id":"","template_scene":"default","track_attribute":0,"track_render_index":104,"uniform_scale":{"on":true,"value":1.0},"visible":true,"volume":1.0}],"type":"text"},{"attribute":0,"flag":0,"id":"781BF7A6-8215-482A-868F-37F5AC65B553","is_default_name":true,"name":"","segments":[{"cartoon":false,"clip":{"alpha":1.0,"flip":{"horizontal":false,"vertical":false},"rotation":0.0,"scale":{"x":1.949906826019287,"y":1.949906826019287},"transform":{"x":0.38013462616897975,"y":-0.5778210759162903}},"common_keyframes":[],"enable_adjust":false,"enable_color_curves":true,"enable_color_match_adjust":false,"enable_color_wheels":true,"enable_lut":false,"enable_smart_color_adjust":false,"extra_material_refs":["1F718D50-8727-47B6-8DB0-5A48B96645C6"],"group_id":"","hdr_settings":null,"id":"715656E2-2F99-4BBE-BCDB-74295B971FCC","intensifies_audio":false,"is_placeholder":false,"is_tone_modify":false,"keyframe_refs":[],"last_nonzero_volume":1.0,"material_id":"5E59F784-9A27-4AF2-AC3D-13CE93331AE2","render_index":14002,"responsive_layout":{"enable":false,"horizontal_pos_layout":0,"size_layout":0,"target_follow":"","vertical_pos_layout":0},"reverse":false,"source_timerange":null,"speed":1.0,"target_timerange":{"duration":157033333,"start":0},"template_id":"","template_scene":"default","track_attribute":0,"track_render_index":103,"uniform_scale":{"on":true,"value":1.0},"visible":true,"volume":1.0}],"type":"text"},{"attribute":0,"flag":0,"id":"95774DFA-B987-4B68-ADB8-B63897F3BFA5","is_default_name":true,"name":"","segments":[{"cartoon":false,"clip":{"alpha":1.0,"flip":{"horizontal":false,"vertical":false},"rotation":0.0,"scale":{"x":0.7448914312423176,"y":0.7448914312423176},"transform":{"x":-0.3435022496978718,"y":-0.654627636206393}},"common_keyframes":[],"enable_adjust":false,"enable_color_curves":true,"enable_color_match_adjust":false,"enable_color_wheels":true,"enable_lut":false,"enable_smart_color_adjust":false,"extra_material_refs":["C1B7CF17-8D64-4126-9E04-F98BAFD0FF90"],"group_id":"","hdr_settings":null,"id":"37B6031F-D0D4-4058-809C-4C8C6C0E65F2","intensifies_audio":false,"is_placeholder":false,"is_tone_modify":false,"keyframe_refs":[],"last_nonzero_volume":1.0,"material_id":"BA286455-FFAB-473C-AA9E-FBA46961C575","render_index":14001,"responsive_layout":{"enable":false,"horizontal_pos_layout":0,"size_layout":0,"target_follow":"","vertical_pos_layout":0},"reverse":false,"source_timerange":null,"speed":1.0,"target_timerange":{"duration":157033333,"start":0},"template_id":"","template_scene":"default","track_attribute":0,"track_render_index":102,"uniform_scale":{"on":true,"value":1.0},"visible":true,"volume":1.0}],"type":"text"}],"update_time":0,"version":360000},"formula_id":"","id":"D6A9AC94-D86C-4197-AF5D-4903E8E1A74A_material","name":"","precompile_combination":false,"type":"composition"}],"effects":[],"flowers":[],"green_screens":[],"handwrites":[],"hsl":[],"images":[],"log_color_wheels":[],"loudnesses":[{"enable":false,"file_id":"","id":"019017F5-89F1-4598-BE34-983A736D2888","loudness_param":null,"target_loudness":0.0,"time_range":null},{"enable":false,"file_id":"","id":"4FECBAA3-ACDE-4996-AE8D-771BBB91E4E9","loudness_param":null,"target_loudness":0.0,"time_range":null},{"enable":false,"file_id":"","id":"3209DC2C-C303-4C28-823F-A267CDAFC931","loudness_param":null,"target_loudness":0.0,"time_range":null},{"enable":false,"file_id":"","id":"C20F20AF-ACD2-441D-82D0-73F0109CCEFC","loudness_param":null,"target_loudness":0.0,"time_range":null},{"enable":false,"file_id":"","id":"DB9F1417-5DB4-4992-9810-F248A42837BC","loudness_param":null,"target_loudness":0.0,"time_range":null},{"enable":false,"file_id":"","id":"7CFFFD89-A4C2-4C82-BA18-8E8B5B6F5128","loudness_param":null,"target_loudness":0.0,"time_range":null}],"manual_deformations":[],"masks":[],"material_animations":[{"animations":[],"id":"0A69D7D6-F53A-4DCD-B3DA-4F050A5E3560","type":"sticker_animation"},{"animations":[],"id":"0CABD900-90DC-4658-8357-482AA7B10801","type":"sticker_animation"},{"animations":[],"id":"82E1246F-10E3-4D46-9B24-1D51743EC1E1","type":"sticker_animation"},{"animations":[],"id":"4D46A3F6-AA00-45B9-B539-AAC9E97EB58E","type":"sticker_animation"},{"animations":[],"id":"A4BFC3AF-5BE9-4125-B94D-B3EFD70359FC","type":"sticker_animation"},{"animations":[],"id":"F0D7A904-06D5-4041-8F47-22D797B1F921","type":"sticker_animation"},{"animations":[],"id":"746D1AA2-A43A-4067-88BC-592F2D619A53","type":"sticker_animation"},{"animations":[],"id":"BAEC5E28-600C-4D46-A0C5-DB0D7CABD94D","type":"sticker_animation"},{"animations":[],"id":"A2513234-825B-452C-8DD0-6E347FD2BB87","type":"sticker_animation"},{"animations":[],"id":"AFB68B4F-554E-492A-9830-0D6ADC061BDD","type":"sticker_animation"},{"animations":[],"id":"D9394FE1-B629-4B9A-9EB5-6F976EE3DA86","type":"sticker_animation"},{"animations":[],"id":"EDEB6B6E-EC39-4652-9676-9878060EF7A1","type":"sticker_animation"},{"animations":[],"id":"46D92698-5A9A-4027-B926-D287A13C51A3","type":"sticker_animation"},{"animations":[],"id":"1E4D7783-02F9-47C7-AB87-96042D794362","type":"sticker_animation"},{"animations":[],"id":"3AEA34E9-301E-4E07-B3D2-CD1679EB0E35","type":"sticker_animation"},{"animations":[],"id":"9E5E2EC7-173C-4780-A1C7-1CDAB87C9FBF","type":"sticker_animation"},{"animations":[],"id":"0233B45A-40AC-4D8F-8108-3D1B98250BE1","type":"sticker_animation"},{"animations":[],"id":"8FE3A9EB-1768-4D79-96CA-19976FB5DB04","type":"sticker_animation"},{"animations":[],"id":"076D742C-52FC-4475-B794-2797F231063D","type":"sticker_animation"},{"animations":[],"id":"2A70B25B-9EF7-48E4-A970-B0C7F9367BDE","type":"sticker_animation"},{"animations":[],"id":"50C09C37-D127-491C-8067-D96480C85BC3","type":"sticker_animation"},{"animations":[],"id":"8FFBB787-C3F2-46DE-9EEE-A57731B3AE7F","type":"sticker_animation"},{"animations":[],"id":"0EA19287-8BEE-44EA-8D38-BBE66756B56A","type":"sticker_animation"},{"animations":[],"id":"1584D361-DB52-46B2-99EF-FB692D0556DE","type":"sticker_animation"},{"animations":[],"id":"377EFCF4-AF38-4EA0-BA76-F0AF6D4A7294","type":"sticker_animation"},{"animations":[],"id":"A1005E91-8422-41AD-9C13-D00ABF94CC27","type":"sticker_animation"},{"animations":[],"id":"73D4361F-ACDA-49B5-8FD5-CC7713B45904","type":"sticker_animation"},{"animations":[],"id":"B69EAECE-D936-4E73-8103-B485CD9FAF03","type":"sticker_animation"},{"animations":[],"id":"9CCFBF93-A572-43E0-AB52-B0F3D0AEB68B","type":"sticker_animation"},{"animations":[],"id":"46E7C25A-C2CB-4F00-B6F7-E974C94F0E49","type":"sticker_animation"},{"animations":[],"id":"34F14A7D-F88D-4A07-9F51-FF3742082AB4","type":"sticker_animation"},{"animations":[],"id":"501F7ECD-4FFC-403B-A4FC-4425E267CB45","type":"sticker_animation"},{"animations":[],"id":"691FB35A-BA7C-4071-A201-D41BDEF85C6B","type":"sticker_animation"},{"animations":[],"id":"F8635CD0-9742-404F-9F08-C2043D67064A","type":"sticker_animation"},{"animations":[],"id":"AA2217BE-4243-4C9F-9555-35DD2138CD3E","type":"sticker_animation"},{"animations":[],"id":"C9852FF9-7F58-4E2A-8046-57DC55FCBDC0","type":"sticker_animation"},{"animations":[],"id":"0E9CB5BB-65CC-4C0F-B07D-65A70E455B71","type":"sticker_animation"}],"material_colors":[],"placeholders":[],"plugin_effects":[],"primary_color_wheels":[],"realtime_denoises":[{"denoise_mode":1.0,"denoise_rate":0.85,"id":"B06B2092-7B33-49EB-B8E8-E30B96FE8494","is_denoise":false,"path":"/Applications/CapCut.app/Contents/MacOS/../Resources/audiosami/unet_denoise_44k_music_model_v1.0.model","sami_name":"denoise_v2","sami_type":2,"sami_version":"1.0","type":"realtime_denoise"},{"denoise_mode":1.0,"denoise_rate":0.85,"id":"73060A37-23D4-4B9B-B0ED-32CED7848586","is_denoise":false,"path":"/Applications/CapCut.app/Contents/MacOS/../Resources/audiosami/unet_denoise_44k_music_model_v1.0.model","sami_name":"denoise_v2","sami_type":2,"sami_version":"1.0","type":"realtime_denoise"},{"denoise_mode":1.0,"denoise_rate":0.85,"id":"924B6142-3AE4-4212-AFE1-D6988360638E","is_denoise":false,"path":"/Applications/CapCut.app/Contents/MacOS/../Resources/audiosami/unet_denoise_44k_music_model_v1.0.model","sami_name":"denoise_v2","sami_type":2,"sami_version":"1.0","type":"realtime_denoise"},{"denoise_mode":1.0,"denoise_rate":1.0,"id":"A932EC7D-7133-4C05-83DF-181F1D11C1C5","is_denoise":false,"path":"/Applications/CapCut.app/Contents/MacOS/../Resources/audiosami/unet_denoise_44k_music_model_v1.0.model","sami_name":"denoise_v2","sami_type":0,"sami_version":"1.0","type":"realtime_denoise"},{"denoise_mode":1.0,"denoise_rate":1.0,"id":"E7DA1D3D-F795-4F70-AE1E-90A8A40597EC","is_denoise":false,"path":"/Applications/CapCut.app/Contents/MacOS/../Resources/audiosami/unet_denoise_44k_music_model_v1.0.model","sami_name":"denoise_v2","sami_type":0,"sami_version":"1.0","type":"realtime_denoise"},{"denoise_mode":1.0,"denoise_rate":1.0,"id":"16018714-C41B-4429-9C7D-8EC2355309AD","is_denoise":false,"path":"/Applications/CapCut.app/Contents/MacOS/../Resources/audiosami/unet_denoise_44k_music_model_v1.0.model","sami_name":"denoise_v2","sami_type":0,"sami_version":"1.0","type":"realtime_denoise"},{"denoise_mode":1.0,"denoise_rate":1.0,"id":"9425FA34-265F-4849-9DC7-4A085921E40D","is_denoise":false,"path":"/Applications/CapCut.app/Contents/MacOS/../Resources/audiosami/unet_denoise_44k_music_model_v1.0.model","sami_name":"denoise_v2","sami_type":0,"sami_version":"1.0","type":"realtime_denoise"}],"shapes":[],"smart_crops":[],"smart_relights":[],"sound_channel_mappings":[{"audio_channel_mapping":0,"id":"7C083D77-CCB7-463D-86D5-B4E9395517F9","is_config_open":false,"type":"none"},{"audio_channel_mapping":0,"id":"8094A449-6D91-492E-9D8F-6EF38B1B30DD","is_config_open":false,"type":"none"},{"audio_channel_mapping":0,"id":"DA7E6FB3-150C-451A-A488-FA5CC69D0088","is_config_open":false,"type":"none"},{"audio_channel_mapping":0,"id":"2A0A13F8-6F4D-4D35-AEE3-478C6246C1D2","is_config_open":false,"type":"none"},{"audio_channel_mapping":0,"id":"6845FC3D-C37F-4BF4-B9EC-08940CCB9119","is_config_open":false,"type":"none"},{"audio_channel_mapping":0,"id":"C145EC2C-FF20-45D3-AC69-2E764B909F9B","is_config_open":false,"type":"none"},{"audio_channel_mapping":0,"id":"A7620BC4-A295-443F-8762-8D09368B9595","is_config_open":false,"type":"none"},{"audio_channel_mapping":0,"id":"AB3E6026-10D6-49D8-91B0-4AF7EAF84E2D","is_config_open":false,"type":"none"},{"audio_channel_mapping":0,"id":"F985FCFF-2366-4B3F-839C-D60B6AA444C6","is_config_open":false,"type":"none"},{"audio_channel_mapping":0,"id":"47203EEE-A787-4FF5-8FA2-A324ACEDDDC3","is_config_open":false,"type":"none"},{"audio_channel_mapping":0,"id":"408D304B-B301-49CD-BDE2-AB50F957C34F","is_config_open":false,"type":"none"},{"audio_channel_mapping":0,"id":"12980A20-1485-4059-B3A4-BB47EE441E6F","is_config_open":false,"type":"none"},{"audio_channel_mapping":0,"id":"FC85EC39-0E51-4368-91E1-7E892A172813","is_config_open":false,"type":"none"},{"audio_channel_mapping":0,"id":"BF189B3D-3252-402B-B744-EF5CB00190FF","is_config_open":false,"type":"none"},{"audio_channel_mapping":0,"id":"69B1C57F-EA4D-4DF3-B2A1-78C564A49438","is_config_open":false,"type":"none"},{"audio_channel_mapping":0,"id":"60358B13-D361-4FD7-8A17-1D20A1ADF730","is_config_open":false,"type":"none"},{"audio_channel_mapping":0,"id":"1852E61F-56ED-4211-9ACE-A2EB604421BB","is_config_open":false,"type":"none"},{"audio_channel_mapping":0,"id":"0CD7C175-93CB-4C8F-927D-DB1FCBD637E3","is_config_open":false,"type":"none"},{"audio_channel_mapping":0,"id":"517EFB2A-0C70-49EC-AAE1-C1A57661BAB4","is_config_open":false,"type":"none"},{"audio_channel_mapping":0,"id":"03214317-DB9D-42B3-91ED-A0B13C522828","is_config_open":false,"type":"none"},{"audio_channel_mapping":0,"id":"FE15BEA3-5535-4DD3-ADEE-831CCF8B3D84","is_config_open":false,"type":"none"},{"audio_channel_mapping":0,"id":"F622F70F-41B1-4744-B488-C6964881D7CA","is_config_open":false,"type":"none"},{"audio_channel_mapping":0,"id":"06E64225-3BB2-4DA5-AE27-69BD63219339","is_config_open":false,"type":"none"},{"audio_channel_mapping":0,"id":"D0C5CDEC-8187-46D2-89FD-E0D057274EBD","is_config_open":false,"type":"none"},{"audio_channel_mapping":0,"id":"FAC49708-1895-47E3-B492-A4A3C9D8393E","is_config_open":false,"type":"none"},{"audio_channel_mapping":0,"id":"4A81A352-BC43-4C39-8F2A-6C479F1C9811","is_config_open":false,"type":"none"},{"audio_channel_mapping":0,"id":"239ED4BA-B3E1-4402-98E4-4206544C0516","is_config_open":false,"type":"none"},{"audio_channel_mapping":0,"id":"9B1B9C71-F83E-4442-9B6A-CC6320307B19","is_config_open":false,"type":"none"},{"audio_channel_mapping":0,"id":"BCECAC75-D53F-496E-A769-A17E91991B5A","is_config_open":false,"type":"none"},{"audio_channel_mapping":0,"id":"57F746CA-8CEF-4D4E-B751-6E8FA254DE76","is_config_open":false,"type":"none"},{"audio_channel_mapping":0,"id":"8C823F3B-CCA1-4B08-89B1-752977935A33","is_config_open":false,"type":"none"},{"audio_channel_mapping":0,"id":"626855F4-79CF-476D-8D61-091BEB64DA18","is_config_open":false,"type":"none"},{"audio_channel_mapping":0,"id":"5B3CE806-72DC-457E-AEE2-822246E6F8FB","is_config_open":false,"type":"none"},{"audio_channel_mapping":0,"id":"FABE80BA-3512-4960-B53B-AE9E82426398","is_config_open":false,"type":"none"},{"audio_channel_mapping":0,"id":"76AF7945-9456-4006-AC38-76E7C7E52BAC","is_config_open":false,"type":"none"},{"audio_channel_mapping":0,"id":"9FF670BB-1D9A-46A5-A852-1BC78DF590E6","is_config_open":false,"type":"none"},{"audio_channel_mapping":0,"id":"3F9247F3-1693-4AE3-A425-9E4C81A9B711","is_config_open":false,"type":"none"},{"audio_channel_mapping":0,"id":"B5FCB1E1-DBA0-4AD8-A2BD-7769223C5096","is_config_open":false,"type":"none"},{"audio_channel_mapping":0,"id":"FF42A9AC-2650-43B5-AF48-CFADE97FDCDE","is_config_open":false,"type":"none"},{"audio_channel_mapping":0,"id":"5DAAB363-C0CB-465C-B175-67A4EE3F4A2C","is_config_open":false,"type":"none"},{"audio_channel_mapping":0,"id":"1FF1B6AB-BB9E-4375-8FB5-85A730AEC7A0","is_config_open":false,"type":"none"},{"audio_channel_mapping":0,"id":"1235836B-9167-4FFA-B810-B3B146135E19","is_config_open":false,"type":"none"},{"audio_channel_mapping":0,"id":"33569049-1934-471D-B250-B8B12B897EA3","is_config_open":false,"type":"none"},{"audio_channel_mapping":0,"id":"130D44D0-63E9-412F-A5E7-AF33E9A711B6","is_config_open":false,"type":"none"},{"audio_channel_mapping":0,"id":"08B6774B-4EFE-40E1-895F-225BA7361E74","is_config_open":false,"type":"none"},{"audio_channel_mapping":0,"id":"DE922033-AAF1-40A5-86C0-51D513F541DA","is_config_open":false,"type":"none"},{"audio_channel_mapping":0,"id":"BFE82579-BD9C-4527-962B-CB1182D04ED5","is_config_open":false,"type":"none"},{"audio_channel_mapping":0,"id":"94111F1E-CC88-46A8-82B3-51211FA51951","is_config_open":false,"type":"none"},{"audio_channel_mapping":0,"id":"DB68DBFE-4014-4753-B2A0-E30C7F3C6D79","is_config_open":false,"type":"none"},{"audio_channel_mapping":0,"id":"16A561B1-AAAF-4ED0-9B74-6A76AEF6170A","is_config_open":false,"type":"none"},{"audio_channel_mapping":0,"id":"67F9DA75-53ED-4D9D-8C9B-BD9531A04CDF","is_config_open":false,"type":"none"}],"speeds":[{"curve_speed":null,"id":"A898CCC8-3B09-40F9-B1A3-1934B1295491","mode":0,"speed":1.0,"type":"speed"},{"curve_speed":null,"id":"A402C6D3-8676-4A20-9BE1-B8226A057754","mode":0,"speed":1.0,"type":"speed"},{"curve_speed":null,"id":"32719438-EF51-40F7-9FD6-D22A5AA09A05","mode":0,"speed":1.0,"type":"speed"},{"curve_speed":null,"id":"BA1D2030-1B3F-44F2-BCF8-5E56E4D478D7","mode":0,"speed":1.0,"type":"speed"},{"curve_speed":null,"id":"9E33E160-38DD-44D7-8C5D-6B59E9427DFE","mode":0,"speed":1.0,"type":"speed"},{"curve_speed":null,"id":"45C2CA5A-C7FD-4E9E-9B69-213BE8ADA9C6","mode":0,"speed":1.0,"type":"speed"},{"curve_speed":null,"id":"61BBF79F-E9A6-4DAB-A931-023F3A1C965B","mode":0,"speed":1.0,"type":"speed"},{"curve_speed":null,"id":"31664384-A2A0-4085-A308-44E251C198D0","mode":0,"speed":1.0,"type":"speed"},{"curve_speed":null,"id":"C5A8835B-3C3A-4443-AB75-D00F38848386","mode":0,"speed":1.0,"type":"speed"},{"curve_speed":null,"id":"ADB3FA96-6186-409D-8A6C-6F04DC18F719","mode":0,"speed":1.1,"type":"speed"},{"curve_speed":null,"id":"C01E1430-5F6D-4089-AA66-45DE58C7C181","mode":0,"speed":1.0,"type":"speed"},{"curve_speed":null,"id":"25EB9ADA-8198-4980-B725-8B189EDD440C","mode":0,"speed":1.0,"type":"speed"},{"curve_speed":null,"id":"2E597A85-E9B2-4C93-9FDC-22165E0C46C2","mode":0,"speed":1.0,"type":"speed"},{"curve_speed":null,"id":"1F6C3514-58D8-4E4B-8D88-31D49DF3D67B","mode":0,"speed":1.0,"type":"speed"},{"curve_speed":null,"id":"432A9F07-EB1F-428D-9C7F-041135730E40","mode":0,"speed":1.0,"type":"speed"},{"curve_speed":null,"id":"861DB843-F28F-4B6C-AAE0-AC1CB8B938F5","mode":0,"speed":1.0,"type":"speed"},{"curve_speed":null,"id":"0EC9DC53-C8B6-446E-B17F-EDD5293162B1","mode":0,"speed":1.0,"type":"speed"},{"curve_speed":null,"id":"1BB77299-62C6-4A4D-A72D-D4B271F2FE29","mode":0,"speed":1.0,"type":"speed"},{"curve_speed":null,"id":"3AA3C72E-DD28-4F86-B167-B35D68577B31","mode":0,"speed":1.0,"type":"speed"},{"curve_speed":null,"id":"84426475-6270-4B62-ADBB-D5F50506224A","mode":0,"speed":1.0,"type":"speed"},{"curve_speed":null,"id":"3F7918C2-80F5-4613-ACF1-6A33FF59562B","mode":0,"speed":1.0,"type":"speed"},{"curve_speed":null,"id":"7D1E0BE3-8DA6-4CEA-9504-2E822084F38B","mode":0,"speed":1.0,"type":"speed"},{"curve_speed":null,"id":"155B3CD0-388C-475A-9076-0EDD3604108A","mode":0,"speed":1.0,"type":"speed"},{"curve_speed":null,"id":"208BE34C-2DCA-4A6E-B866-FAB143F21169","mode":0,"speed":1.0,"type":"speed"},{"curve_speed":null,"id":"F746C2C9-4D33-4FA0-9A32-A19376556C8F","mode":0,"speed":1.2000000000000002,"type":"speed"},{"curve_speed":null,"id":"087C00F5-F9BF-4257-9FEE-65D319EE7999","mode":0,"speed":1.0,"type":"speed"},{"curve_speed":{"id":"6768730851543880206","name":"自定义","speed_points":[{"x":0.0,"y":1.0},{"x":0.25,"y":1.0},{"x":0.5,"y":1.0},{"x":0.75,"y":1.0},{"x":0.750001,"y":0.80223297602117},{"x":1.0,"y":0.80223297602117}]},"id":"E137B2D7-526E-4239-B6F9-E987162FF493","mode":1,"speed":0.9419477401020373,"type":"speed"},{"curve_speed":null,"id":"6E723857-03DB-46A2-94D8-925BB17AB3FE","mode":0,"speed":1.0,"type":"speed"},{"curve_speed":null,"id":"D1CE839E-05BF-4277-93EE-7DD3D428CC85","mode":0,"speed":1.0,"type":"speed"},{"curve_speed":null,"id":"51882E54-F9C8-4639-970E-E55DD696952D","mode":0,"speed":0.40000000000000013,"type":"speed"},{"curve_speed":{"id":"6768730851543880206","name":"自定义","speed_points":[{"x":0.0,"y":1.0},{"x":0.25,"y":1.0},{"x":0.5,"y":1.0},{"x":0.500001,"y":1.108694818372494},{"x":0.75,"y":1.108694818372494},{"x":0.750001,"y":0.8754140611656918},{"x":1.0,"y":0.3677263855934143}]},"id":"8C0A9BF2-4449-425D-9F36-6D43220DD3E1","mode":1,"speed":0.8867630362836962,"type":"speed"},{"curve_speed":{"id":"6768730851543880206","name":"自定义","speed_points":[{"x":0.0,"y":0.6471731759942304},{"x":0.25,"y":0.6765467209894297},{"x":0.250001,"y":0.7142221874878183},{"x":0.5,"y":0.9584405494259705},{"x":0.500001,"y":0.8790326457665484},{"x":0.75,"y":0.8790326457665484},{"x":0.750001,"y":0.7820296806779158},{"x":1.0,"y":0.9983152747154236}]},"id":"3D599317-1E23-4DE8-90B8-5917A199609C","mode":1,"speed":0.8052202343748966,"type":"speed"},{"curve_speed":null,"id":"09FA99DA-33AB-45F7-9C5E-AA195CA28698","mode":0,"speed":1.100418543968079,"type":"speed"},{"curve_speed":null,"id":"2222808E-9983-48A5-914C-FDF034F48696","mode":0,"speed":0.5,"type":"speed"},{"curve_speed":null,"id":"720C4FFB-6F0E-458B-AE7C-DE0907F67917","mode":0,"speed":0.5,"type":"speed"},{"curve_speed":null,"id":"DED4C222-C769-4910-B445-44C8C19044D8","mode":0,"speed":1.0,"type":"speed"},{"curve_speed":null,"id":"EE7154C6-657A-404F-8D0E-B43D074CCBC6","mode":0,"speed":1.0,"type":"speed"},{"curve_speed":null,"id":"6A4DCA4B-6BDD-4AB9-9719-525DF2EC89EA","mode":0,"speed":1.0,"type":"speed"},{"curve_speed":null,"id":"77B8277C-DD53-4870-9594-D35BEA60D23F","mode":0,"speed":1.0,"type":"speed"},{"curve_speed":null,"id":"C437588B-1AFB-425C-A994-5C1B55AB67EE","mode":0,"speed":1.0,"type":"speed"},{"curve_speed":null,"id":"8C1A2E3F-DC99-4FFF-A570-BF43F296A437","mode":0,"speed":1.0,"type":"speed"},{"curve_speed":null,"id":"BC8FE6E1-0E63-4050-9DBD-6A02B9111801","mode":0,"speed":0.20000000000000015,"type":"speed"},{"curve_speed":null,"id":"611B7A43-D9CF-4E7E-AA45-9DCFE81163A4","mode":0,"speed":1.0,"type":"speed"},{"curve_speed":null,"id":"CE7F66A2-0DAE-4806-B599-51C41B591102","mode":0,"speed":1.0,"type":"speed"},{"curve_speed":null,"id":"DAC50FED-36EE-472B-BEAA-68EC8F2E9C92","mode":0,"speed":1.0,"type":"speed"},{"curve_speed":null,"id":"36CCA2A3-521B-4C54-B6EC-71D8649051CD","mode":0,"speed":1.0,"type":"speed"},{"curve_speed":null,"id":"A20C44C0-3A75-4F9C-A0AF-0CFB39875426","mode":0,"speed":1.0,"type":"speed"},{"curve_speed":null,"id":"6190CD93-F0FF-4F1F-AF5D-26B35824127D","mode":0,"speed":1.0,"type":"speed"},{"curve_speed":null,"id":"8B2A779C-8DBA-45F2-9FAB-B87547751F42","mode":0,"speed":1.0,"type":"speed"},{"curve_speed":null,"id":"79B084C5-902E-4261-9EB3-F56C17E9103D","mode":0,"speed":1.0,"type":"speed"},{"curve_speed":null,"id":"3A66EBB1-43F4-4B0F-AE4B-B455BB4A4FEE","mode":0,"speed":1.0,"type":"speed"}],"stickers":[],"tail_leaders":[],"text_templates":[],"texts":[],"transitions":[{"category_id":"27188","category_name":"叠化转场","duration":366666,"effect_id":"9290995","id":"B0C8BFF6-6F91-4DAC-925A-BDBC61FB38C3","is_overlap":false,"name":"闪黑","path":"/Users/iluminar/Library/Containers/com.lemon.lvoverseas/Data/Movies/CapCut/User Data/Cache/effect/9290995/3bca53e9f3dfa2c184fbee96438ea097","platform":"all","request_id":"20231119010233F862DF798422778617BF","resource_id":"6724239388189921806","type":"transition"},{"category_id":"27188","category_name":"叠化转场","duration":1000000,"effect_id":"9290995","id":"D49A0418-8A21-4611-A7E9-29AC1D7198E4","is_overlap":false,"name":"闪黑","path":"/Users/iluminar/Library/Containers/com.lemon.lvoverseas/Data/Movies/CapCut/User Data/Cache/effect/9290995/3bca53e9f3dfa2c184fbee96438ea097","platform":"all","request_id":"20231119010233F862DF798422778617BF","resource_id":"6724239388189921806","type":"transition"},{"category_id":"27188","category_name":"叠化转场","duration":500000,"effect_id":"9290995","id":"A38682EE-47E2-4176-A11B-122539143297","is_overlap":false,"name":"闪黑","path":"/Users/iluminar/Library/Containers/com.lemon.lvoverseas/Data/Movies/CapCut/User Data/Cache/effect/9290995/3bca53e9f3dfa2c184fbee96438ea097","platform":"all","request_id":"202311190527428EAFC1BA0FB5A5D191BE","resource_id":"6724239388189921806","type":"transition"},{"category_id":"27188","category_name":"叠化转场","duration":633333,"effect_id":"9290995","id":"1BE425B6-FC25-4E4A-9C17-F2A1AE252DFF","is_overlap":false,"name":"闪黑","path":"/Users/iluminar/Library/Containers/com.lemon.lvoverseas/Data/Movies/CapCut/User Data/Cache/effect/9290995/3bca53e9f3dfa2c184fbee96438ea097","platform":"all","request_id":"202311190543403F46CFA6B938F4AFB32B","resource_id":"6724239388189921806","type":"transition"},{"category_id":"27188","category_name":"叠化转场","duration":500000,"effect_id":"9290995","id":"F9955DBF-5BD0-4599-A00B-11C63C9E66F8","is_overlap":false,"name":"闪黑","path":"/Users/iluminar/Library/Containers/com.lemon.lvoverseas/Data/Movies/CapCut/User Data/Cache/effect/9290995/3bca53e9f3dfa2c184fbee96438ea097","platform":"all","request_id":"202311190543403F46CFA6B938F4AFB32B","resource_id":"6724239388189921806","type":"transition"},{"category_id":"27188","category_name":"叠化转场","duration":1133333,"effect_id":"9290995","id":"96CC84AC-6729-4E64-820F-D5705ACFBBF6","is_overlap":false,"name":"闪黑","path":"/Users/iluminar/Library/Containers/com.lemon.lvoverseas/Data/Movies/CapCut/User Data/Cache/effect/9290995/3bca53e9f3dfa2c184fbee96438ea097","platform":"all","request_id":"202311191821018002520689F638B36BF4","resource_id":"6724239388189921806","type":"transition"},{"category_id":"27188","category_name":"叠化转场","duration":500000,"effect_id":"9290995","id":"92B57279-93AA-4982-A00B-C2002A555254","is_overlap":false,"name":"闪黑","path":"/Users/iluminar/Library/Containers/com.lemon.lvoverseas/Data/Movies/CapCut/User Data/Cache/effect/9290995/3bca53e9f3dfa2c184fbee96438ea097","platform":"all","request_id":"20231119092117E955C21F12A889E6F5E7","resource_id":"6724239388189921806","type":"transition"},{"category_id":"27188","category_name":"叠化转场","duration":300000,"effect_id":"9290995","id":"0AF26F8A-FF85-45AC-B1C2-F0077EEACD22","is_overlap":false,"name":"闪黑","path":"/Users/iluminar/Library/Containers/com.lemon.lvoverseas/Data/Movies/CapCut/User Data/Cache/effect/9290995/3bca53e9f3dfa2c184fbee96438ea097","platform":"all","request_id":"20231119092117E955C21F12A889E6F5E7","resource_id":"6724239388189921806","type":"transition"},{"category_id":"27188","category_name":"叠化转场","duration":300000,"effect_id":"9290991","id":"8BD399A2-B721-48C9-BE03-FF8754A48E80","is_overlap":false,"name":"闪白","path":"/Users/iluminar/Library/Containers/com.lemon.lvoverseas/Data/Movies/CapCut/User Data/Cache/effect/9290991/b033ea56618d5b0f098071fb326bb02a","platform":"all","request_id":"20231119085415C95CE9AD9A09B1DDB835","resource_id":"6724845376098013708","type":"transition"},{"category_id":"27188","category_name":"叠化转场","duration":700000,"effect_id":"9290991","id":"EFE8D8DF-31A4-45B2-AAB9-CCC93DE2E14B","is_overlap":false,"name":"闪白","path":"/Users/iluminar/Library/Containers/com.lemon.lvoverseas/Data/Movies/CapCut/User Data/Cache/effect/9290991/b033ea56618d5b0f098071fb326bb02a","platform":"all","request_id":"20231119085415C95CE9AD9A09B1DDB835","resource_id":"6724845376098013708","type":"transition"},{"category_id":"27188","category_name":"叠化转场","duration":1966666,"effect_id":"9290991","id":"5C707CCB-A9FA-4B26-9EBC-2EA94D5228AD","is_overlap":false,"name":"闪白","path":"/Users/iluminar/Library/Containers/com.lemon.lvoverseas/Data/Movies/CapCut/User Data/Cache/effect/9290991/b033ea56618d5b0f098071fb326bb02a","platform":"all","request_id":"20231119092117E955C21F12A889E6F5E7","resource_id":"6724845376098013708","type":"transition"},{"category_id":"27188","category_name":"叠化转场","duration":1900000,"effect_id":"9290995","id":"0C6910EB-4621-43BA-8D20-11294C3C512C","is_overlap":false,"name":"闪黑","path":"/Users/iluminar/Library/Containers/com.lemon.lvoverseas/Data/Movies/CapCut/User Data/Cache/effect/9290995/3bca53e9f3dfa2c184fbee96438ea097","platform":"all","request_id":"20231119092117E955C21F12A889E6F5E7","resource_id":"6724239388189921806","type":"transition"}],"video_effects":[],"video_trackings":[],"videos":[{"aigc_type":"none","audio_fade":null,"cartoon_path":"","category_id":"","category_name":"","check_flag":65535,"crop":{"lower_left_x":0.0,"lower_left_y":1.0,"lower_right_x":1.0,"lower_right_y":1.0,"upper_left_x":0.0,"upper_left_y":0.0,"upper_right_x":1.0,"upper_right_y":0.0},"crop_ratio":"free","crop_scale":1.0,"duration":22050000,"extra_type_option":2,"formula_id":"","freeze":null,"gameplay":null,"has_audio":true,"height":1080,"id":"C9B0624C-34B6-42E5-92F1-7FCE1AAD1379","intensifies_audio_path":"","intensifies_path":"","is_ai_generate_content":false,"is_unified_beauty_mode":false,"local_id":"","local_material_id":"","material_id":"","material_name":"复合片段24","material_url":"","matting":{"flag":0,"has_use_quick_brush":false,"has_use_quick_eraser":false,"interactiveTime":[],"path":"","strokes":[]},"media_path":"","object_locked":null,"origin_material_id":"","path":"","picture_from":"none","picture_set_category_id":"","picture_set_category_name":"","request_id":"","reverse_intensifies_path":"","reverse_path":"","smart_motion":null,"source":0,"source_platform":0,"stable":{"matrix_path":"","stable_level":0,"time_range":{"duration":0,"start":0}},"team_id":"","type":"video","video_algorithm":{"algorithms":[],"deflicker":null,"motion_blur_config":null,"noise_reduction":null,"path":"","quality_enhance":null,"time_range":null},"width":1920},{"aigc_type":"none","audio_fade":null,"cartoon_path":"","category_id":"","category_name":"local","check_flag":63487,"crop":{"lower_left_x":0.0,"lower_left_y":1.0,"lower_right_x":1.0,"lower_right_y":1.0,"upper_left_x":0.0,"upper_left_y":0.0,"upper_right_x":1.0,"upper_right_y":0.0},"crop_ratio":"free","crop_scale":1.0,"duration":64116666,"extra_type_option":0,"formula_id":"","freeze":null,"gameplay":null,"has_audio":true,"height":1080,"id":"CAB7DB53-0C88-437C-B44B-622DBA58F9A0","intensifies_audio_path":"","intensifies_path":"","is_ai_generate_content":false,"is_unified_beauty_mode":false,"local_id":"","local_material_id":"58ab49f0-752b-4d11-b344-e07e21ad69c5","material_id":"","material_name":"The Last Chance 01.mp4","material_url":"","matting":{"flag":0,"has_use_quick_brush":false,"has_use_quick_eraser":false,"interactiveTime":[],"path":"","strokes":[]},"media_path":"","object_locked":null,"origin_material_id":"","path":"/Volumes/Work/dev/la-vaguelette-chiyu-cover/external/The Last Chance 01.mp4","picture_from":"none","picture_set_category_id":"","picture_set_category_name":"","request_id":"","reverse_intensifies_path":"","reverse_path":"","smart_motion":null,"source":0,"source_platform":0,"stable":{"matrix_path":"","stable_level":0,"time_range":{"duration":0,"start":0}},"team_id":"","type":"video","video_algorithm":{"algorithms":[],"deflicker":null,"motion_blur_config":null,"noise_reduction":null,"path":"","quality_enhance":null,"time_range":null},"width":1920},{"aigc_type":"none","audio_fade":null,"cartoon_path":"","category_id":"","category_name":"","check_flag":65535,"crop":{"lower_left_x":0.0,"lower_left_y":1.0,"lower_right_x":1.0,"lower_right_y":1.0,"upper_left_x":0.0,"upper_left_y":0.0,"upper_right_x":1.0,"upper_right_y":0.0},"crop_ratio":"free","crop_scale":1.0,"duration":22400000,"extra_type_option":2,"formula_id":"","freeze":null,"gameplay":null,"has_audio":true,"height":1080,"id":"DDBFEE57-087A-435F-8A91-962C314A0DF3","intensifies_audio_path":"","intensifies_path":"","is_ai_generate_content":false,"is_unified_beauty_mode":false,"local_id":"","local_material_id":"","material_id":"","material_name":"复合片段25","material_url":"","matting":{"flag":0,"has_use_quick_brush":false,"has_use_quick_eraser":false,"interactiveTime":[],"path":"","strokes":[]},"media_path":"","object_locked":null,"origin_material_id":"","path":"","picture_from":"none","picture_set_category_id":"","picture_set_category_name":"","request_id":"","reverse_intensifies_path":"","reverse_path":"","smart_motion":null,"source":0,"source_platform":0,"stable":{"matrix_path":"","stable_level":0,"time_range":{"duration":0,"start":0}},"team_id":"","type":"video","video_algorithm":{"algorithms":[],"deflicker":null,"motion_blur_config":null,"noise_reduction":null,"path":"","quality_enhance":null,"time_range":null},"width":1920},{"aigc_type":"none","audio_fade":null,"cartoon_path":"","category_id":"","category_name":"local","check_flag":63487,"crop":{"lower_left_x":0.0,"lower_left_y":1.0,"lower_right_x":1.0,"lower_right_y":1.0,"upper_left_x":0.0,"upper_left_y":0.0,"upper_right_x":1.0,"upper_right_y":0.0},"crop_ratio":"free","crop_scale":1.0,"duration":10800000000,"extra_type_option":0,"formula_id":"","freeze":null,"gameplay":null,"has_audio":false,"height":2160,"id":"B7BB1C25-09AE-4F2A-A476-BF663BB2C4A4","intensifies_audio_path":"","intensifies_path":"","is_ai_generate_content":false,"is_unified_beauty_mode":false,"local_id":"","local_material_id":"","material_id":"","material_name":"White Screen.png","material_url":"","matting":{"flag":0,"has_use_quick_brush":false,"has_use_quick_eraser":false,"interactiveTime":[],"path":"","strokes":[]},"media_path":"","object_locked":null,"origin_material_id":"","path":"/Volumes/Work/dev/la-vaguelette-chiyu-cover/external/White Screen.png","picture_from":"none","picture_set_category_id":"","picture_set_category_name":"","request_id":"","reverse_intensifies_path":"","reverse_path":"","smart_motion":null,"source":0,"source_platform":0,"stable":{"matrix_path":"","stable_level":0,"time_range":{"duration":0,"start":0}},"team_id":"","type":"photo","video_algorithm":{"algorithms":[],"deflicker":null,"motion_blur_config":null,"noise_reduction":null,"path":"","quality_enhance":null,"time_range":null},"width":3840},{"aigc_type":"none","audio_fade":null,"cartoon_path":"","category_id":"","category_name":"local","check_flag":63487,"crop":{"lower_left_x":0.0,"lower_left_y":1.0,"lower_right_x":1.0,"lower_right_y":1.0,"upper_left_x":0.0,"upper_left_y":0.0,"upper_right_x":1.0,"upper_right_y":0.0},"crop_ratio":"free","crop_scale":1.0,"duration":10800000000,"extra_type_option":0,"formula_id":"","freeze":null,"gameplay":null,"has_audio":false,"height":1080,"id":"046D002C-A6B9-464F-93B0-E98BBEA28EA3","intensifies_audio_path":"","intensifies_path":"","is_ai_generate_content":false,"is_unified_beauty_mode":false,"local_id":"","local_material_id":"","material_id":"","material_name":"Black Screen.png","material_url":"","matting":{"flag":0,"has_use_quick_brush":false,"has_use_quick_eraser":false,"interactiveTime":[],"path":"","strokes":[]},"media_path":"","object_locked":null,"origin_material_id":"","path":"/Volumes/Work/dev/la-vaguelette-chiyu-cover/external/Black Screen.png","picture_from":"none","picture_set_category_id":"","picture_set_category_name":"","request_id":"","reverse_intensifies_path":"","reverse_path":"","smart_motion":null,"source":0,"source_platform":0,"stable":{"matrix_path":"","stable_level":0,"time_range":{"duration":0,"start":0}},"team_id":"","type":"photo","video_algorithm":{"algorithms":[],"deflicker":null,"motion_blur_config":null,"noise_reduction":null,"path":"","quality_enhance":null,"time_range":null},"width":1920},{"aigc_type":"none","audio_fade":null,"cartoon_path":"","category_id":"","category_name":"","check_flag":63487,"crop":{"lower_left_x":0.12087826936141303,"lower_left_y":1.0,"lower_right_x":0.8512833305027174,"lower_right_y":1.0,"upper_left_x":0.12087826936141303,"upper_left_y":0.0,"upper_right_x":0.8512833305027174,"upper_right_y":0.0},"crop_ratio":"free","crop_scale":1.0,"duration":10800000000,"extra_type_option":0,"formula_id":"","freeze":{"reverse_material_path":"","source_material_id":"B38C8709-E375-4C39-8A32-759B8BA08D5F","source_material_path":"","timestamp":1466666},"gameplay":null,"has_audio":false,"height":1080,"id":"91ECCFD9-1258-46B0-B545-8E744CD078BE","intensifies_audio_path":"","intensifies_path":"","is_ai_generate_content":false,"is_unified_beauty_mode":false,"local_id":"","local_material_id":"","material_id":"","material_name":"定格","material_url":"","matting":{"flag":0,"has_use_quick_brush":false,"has_use_quick_eraser":false,"interactiveTime":[],"path":"##_draftpath_placeholder_0E685133-18CE-45ED-8CB8-2904A212EC80_##/matting/1f333f5eb40fd675b41c360c7f07303d","strokes":[]},"media_path":"","object_locked":null,"origin_material_id":"","path":"##_draftpath_placeholder_0E685133-18CE-45ED-8CB8-2904A212EC80_##/851527b26ff64501d9fb44a81cbde1de_1466667.png","picture_from":"none","picture_set_category_id":"","picture_set_category_name":"","request_id":"","reverse_intensifies_path":"","reverse_path":"","smart_motion":null,"source":0,"source_platform":0,"stable":{"matrix_path":"","stable_level":0,"time_range":{"duration":0,"start":0}},"team_id":"","type":"photo","video_algorithm":{"algorithms":[],"deflicker":null,"motion_blur_config":null,"noise_reduction":null,"path":"","quality_enhance":null,"time_range":null},"width":1920},{"aigc_type":"none","audio_fade":null,"cartoon_path":"","category_id":"","category_name":"local","check_flag":63487,"crop":{"lower_left_x":0.0,"lower_left_y":1.0,"lower_right_x":1.0,"lower_right_y":1.0,"upper_left_x":0.0,"upper_left_y":0.0,"upper_right_x":1.0,"upper_right_y":0.0},"crop_ratio":"free","crop_scale":1.0,"duration":16877516666,"extra_type_option":1,"formula_id":"","freeze":null,"gameplay":null,"has_audio":true,"height":1080,"id":"291DFFE4-3021-411D-8D28-4682207A1172","intensifies_audio_path":"","intensifies_path":"","is_ai_generate_content":false,"is_unified_beauty_mode":false,"local_id":"","local_material_id":"da0938fd-aad3-472e-bbe7-169e4405df41","material_id":"","material_name":"GENSHIN IMPACT 4.2 - ARCHON QUEST ｜ Full Game Walkthrough ｜ No Commentary [0nIbouB_Qv8].webm","material_url":"","matting":{"flag":0,"has_use_quick_brush":false,"has_use_quick_eraser":false,"interactiveTime":[],"path":"","strokes":[]},"media_path":"","object_locked":null,"origin_material_id":"","path":"/Volumes/Work/dev/la-vaguelette-chiyu-cover/external/GENSHIN IMPACT 4.2 - ARCHON QUEST ｜ Full Game Walkthrough ｜ No Commentary [0nIbouB_Qv8].webm","picture_from":"none","picture_set_category_id":"","picture_set_category_name":"","request_id":"","reverse_intensifies_path":"","reverse_path":"","smart_motion":null,"source":0,"source_platform":0,"stable":{"matrix_path":"","stable_level":0,"time_range":{"duration":0,"start":0}},"team_id":"","type":"video","video_algorithm":{"algorithms":[],"deflicker":null,"motion_blur_config":null,"noise_reduction":null,"path":"","quality_enhance":null,"time_range":null},"width":1920},{"aigc_type":"none","audio_fade":null,"cartoon_path":"","category_id":"","category_name":"local","check_flag":63487,"crop":{"lower_left_x":0.0,"lower_left_y":1.0,"lower_right_x":1.0,"lower_right_y":1.0,"upper_left_x":0.0,"upper_left_y":0.0,"upper_right_x":1.0,"upper_right_y":0.0},"crop_ratio":"free","crop_scale":1.0,"duration":16877516666,"extra_type_option":1,"formula_id":"","freeze":null,"gameplay":null,"has_audio":true,"height":1080,"id":"B21546DE-CC87-4D17-8F8F-1FD24E40D962","intensifies_audio_path":"","intensifies_path":"","is_ai_generate_content":false,"is_unified_beauty_mode":false,"local_id":"","local_material_id":"da0938fd-aad3-472e-bbe7-169e4405df41","material_id":"","material_name":"GENSHIN IMPACT 4.2 - ARCHON QUEST ｜ Full Game Walkthrough ｜ No Commentary [0nIbouB_Qv8].webm","material_url":"","matting":{"flag":0,"has_use_quick_brush":false,"has_use_quick_eraser":false,"interactiveTime":[],"path":"","strokes":[]},"media_path":"","object_locked":null,"origin_material_id":"","path":"/Volumes/Work/dev/la-vaguelette-chiyu-cover/external/GENSHIN IMPACT 4.2 - ARCHON QUEST ｜ Full Game Walkthrough ｜ No Commentary [0nIbouB_Qv8].webm","picture_from":"none","picture_set_category_id":"","picture_set_category_name":"","request_id":"","reverse_intensifies_path":"","reverse_path":"","smart_motion":null,"source":0,"source_platform":0,"stable":{"matrix_path":"","stable_level":0,"time_range":{"duration":0,"start":0}},"team_id":"","type":"video","video_algorithm":{"algorithms":[],"deflicker":null,"motion_blur_config":null,"noise_reduction":null,"path":"","quality_enhance":null,"time_range":null},"width":1920},{"aigc_type":"none","audio_fade":null,"cartoon_path":"","category_id":"","category_name":"local","check_flag":63487,"crop":{"lower_left_x":0.0,"lower_left_y":1.0,"lower_right_x":1.0,"lower_right_y":1.0,"upper_left_x":0.0,"upper_left_y":0.0,"upper_right_x":1.0,"upper_right_y":0.0},"crop_ratio":"free","crop_scale":1.0,"duration":16877516666,"extra_type_option":1,"formula_id":"","freeze":null,"gameplay":null,"has_audio":true,"height":1080,"id":"EFA6E058-4050-4E69-B1F8-CB997F2A24E4","intensifies_audio_path":"","intensifies_path":"","is_ai_generate_content":false,"is_unified_beauty_mode":false,"local_id":"","local_material_id":"da0938fd-aad3-472e-bbe7-169e4405df41","material_id":"","material_name":"GENSHIN IMPACT 4.2 - ARCHON QUEST ｜ Full Game Walkthrough ｜ No Commentary [0nIbouB_Qv8].webm","material_url":"","matting":{"flag":0,"has_use_quick_brush":false,"has_use_quick_eraser":false,"interactiveTime":[],"path":"","strokes":[]},"media_path":"","object_locked":null,"origin_material_id":"","path":"/Volumes/Work/dev/la-vaguelette-chiyu-cover/external/GENSHIN IMPACT 4.2 - ARCHON QUEST ｜ Full Game Walkthrough ｜ No Commentary [0nIbouB_Qv8].webm","picture_from":"none","picture_set_category_id":"","picture_set_category_name":"","request_id":"","reverse_intensifies_path":"","reverse_path":"","smart_motion":null,"source":0,"source_platform":0,"stable":{"matrix_path":"","stable_level":0,"time_range":{"duration":0,"start":0}},"team_id":"","type":"video","video_algorithm":{"algorithms":[],"deflicker":null,"motion_blur_config":null,"noise_reduction":null,"path":"","quality_enhance":null,"time_range":null},"width":1920},{"aigc_type":"none","audio_fade":{"fade_in_duration":0,"fade_out_duration":0,"fade_type":0,"id":"754DE386-7B5F-45E6-8905-FE1F72A6D789","type":"audio_fade"},"cartoon_path":"","category_id":"","category_name":"local","check_flag":65535,"crop":{"lower_left_x":0.0,"lower_left_y":1.0,"lower_right_x":1.0,"lower_right_y":1.0,"upper_left_x":0.0,"upper_left_y":0.0,"upper_right_x":1.0,"upper_right_y":0.0},"crop_ratio":"free","crop_scale":1.0,"duration":36000000,"extra_type_option":0,"formula_id":"","freeze":null,"gameplay":null,"has_audio":true,"height":1080,"id":"1CAE1BCA-73E4-4505-8A7A-297FF9860911","intensifies_audio_path":"","intensifies_path":"","is_ai_generate_content":false,"is_unified_beauty_mode":false,"local_id":"","local_material_id":"ebcbc602-a39a-4bb6-af90-e8805c411b67","material_id":"","material_name":"Furina Mission 01.mp4","material_url":"","matting":{"flag":0,"has_use_quick_brush":false,"has_use_quick_eraser":false,"interactiveTime":[],"path":"","strokes":[]},"media_path":"","object_locked":null,"origin_material_id":"","path":"/Volumes/Work/dev/la-vaguelette-chiyu-cover/external/Furina Mission 01.mp4","picture_from":"none","picture_set_category_id":"","picture_set_category_name":"","request_id":"","reverse_intensifies_path":"","reverse_path":"","smart_motion":null,"source":0,"source_platform":0,"stable":{"matrix_path":"","stable_level":0,"time_range":{"duration":0,"start":0}},"team_id":"","type":"video","video_algorithm":{"algorithms":[],"deflicker":null,"motion_blur_config":null,"noise_reduction":null,"path":"","quality_enhance":null,"time_range":null},"width":1920},{"aigc_type":"none","audio_fade":null,"cartoon_path":"","category_id":"","category_name":"","check_flag":65535,"crop":{"lower_left_x":0.0,"lower_left_y":1.0,"lower_right_x":1.0,"lower_right_y":1.0,"upper_left_x":0.0,"upper_left_y":0.0,"upper_right_x":1.0,"upper_right_y":0.0},"crop_ratio":"free","crop_scale":1.0,"duration":10533333,"extra_type_option":2,"formula_id":"","freeze":null,"gameplay":null,"has_audio":true,"height":1080,"id":"54432DC6-D527-4C28-A724-291101712C72","intensifies_audio_path":"","intensifies_path":"","is_ai_generate_content":false,"is_unified_beauty_mode":false,"local_id":"","local_material_id":"","material_id":"","material_name":"复合片段30","material_url":"","matting":{"flag":0,"has_use_quick_brush":false,"has_use_quick_eraser":false,"interactiveTime":[],"path":"","strokes":[]},"media_path":"","object_locked":null,"origin_material_id":"","path":"","picture_from":"none","picture_set_category_id":"","picture_set_category_name":"","request_id":"","reverse_intensifies_path":"","reverse_path":"","smart_motion":null,"source":0,"source_platform":0,"stable":{"matrix_path":"","stable_level":0,"time_range":{"duration":0,"start":0}},"team_id":"","type":"video","video_algorithm":{"algorithms":[],"deflicker":null,"motion_blur_config":null,"noise_reduction":null,"path":"","quality_enhance":null,"time_range":null},"width":1920},{"aigc_type":"none","audio_fade":null,"cartoon_path":"","category_id":"","category_name":"local","check_flag":65535,"crop":{"lower_left_x":0.0,"lower_left_y":1.0,"lower_right_x":1.0,"lower_right_y":1.0,"upper_left_x":0.0,"upper_left_y":0.0,"upper_right_x":1.0,"upper_right_y":0.0},"crop_ratio":"free","crop_scale":1.0,"duration":36000000,"extra_type_option":0,"formula_id":"","freeze":null,"gameplay":null,"has_audio":true,"height":1080,"id":"B9E203F2-31EE-4787-A73A-B891E6FC9B77","intensifies_audio_path":"","intensifies_path":"","is_ai_generate_content":false,"is_unified_beauty_mode":false,"local_id":"","local_material_id":"ebcbc602-a39a-4bb6-af90-e8805c411b67","material_id":"","material_name":"Furina Mission 01.mp4","material_url":"","matting":{"flag":0,"has_use_quick_brush":false,"has_use_quick_eraser":false,"interactiveTime":[],"path":"","strokes":[]},"media_path":"","object_locked":null,"origin_material_id":"","path":"/Volumes/Work/dev/la-vaguelette-chiyu-cover/external/Furina Mission 01.mp4","picture_from":"none","picture_set_category_id":"","picture_set_category_name":"","request_id":"","reverse_intensifies_path":"","reverse_path":"","smart_motion":null,"source":0,"source_platform":0,"stable":{"matrix_path":"","stable_level":0,"time_range":{"duration":0,"start":0}},"team_id":"","type":"video","video_algorithm":{"algorithms":[],"deflicker":null,"motion_blur_config":null,"noise_reduction":null,"path":"","quality_enhance":null,"time_range":null},"width":1920},{"aigc_type":"none","audio_fade":null,"cartoon_path":"","category_id":"","category_name":"local","check_flag":63487,"crop":{"lower_left_x":0.0,"lower_left_y":1.0,"lower_right_x":1.0,"lower_right_y":1.0,"upper_left_x":0.0,"upper_left_y":0.0,"upper_right_x":1.0,"upper_right_y":0.0},"crop_ratio":"free","crop_scale":1.0,"duration":16877516666,"extra_type_option":1,"formula_id":"","freeze":null,"gameplay":null,"has_audio":true,"height":1080,"id":"4A698A04-2B8E-49B9-AC58-1CE68CEF4522","intensifies_audio_path":"","intensifies_path":"","is_ai_generate_content":false,"is_unified_beauty_mode":false,"local_id":"","local_material_id":"da0938fd-aad3-472e-bbe7-169e4405df41","material_id":"","material_name":"GENSHIN IMPACT 4.2 - ARCHON QUEST ｜ Full Game Walkthrough ｜ No Commentary [0nIbouB_Qv8].webm","material_url":"","matting":{"flag":0,"has_use_quick_brush":false,"has_use_quick_eraser":false,"interactiveTime":[],"path":"","strokes":[]},"media_path":"","object_locked":null,"origin_material_id":"","path":"/Volumes/Work/dev/la-vaguelette-chiyu-cover/external/GENSHIN IMPACT 4.2 - ARCHON QUEST ｜ Full Game Walkthrough ｜ No Commentary [0nIbouB_Qv8].webm","picture_from":"none","picture_set_category_id":"","picture_set_category_name":"","request_id":"","reverse_intensifies_path":"","reverse_path":"","smart_motion":null,"source":0,"source_platform":0,"stable":{"matrix_path":"","stable_level":0,"time_range":{"duration":0,"start":0}},"team_id":"","type":"video","video_algorithm":{"algorithms":[],"deflicker":null,"motion_blur_config":null,"noise_reduction":null,"path":"","quality_enhance":null,"time_range":null},"width":1920},{"aigc_type":"none","audio_fade":null,"cartoon_path":"","category_id":"","category_name":"local","check_flag":63487,"crop":{"lower_left_x":0.0,"lower_left_y":1.0,"lower_right_x":1.0,"lower_right_y":1.0,"upper_left_x":0.0,"upper_left_y":0.0,"upper_right_x":1.0,"upper_right_y":0.0},"crop_ratio":"free","crop_scale":1.0,"duration":16877516666,"extra_type_option":1,"formula_id":"","freeze":null,"gameplay":null,"has_audio":true,"height":1080,"id":"4400D6C7-6714-47F9-8B07-4CB6A32A45BD","intensifies_audio_path":"","intensifies_path":"","is_ai_generate_content":false,"is_unified_beauty_mode":false,"local_id":"","local_material_id":"da0938fd-aad3-472e-bbe7-169e4405df41","material_id":"","material_name":"GENSHIN IMPACT 4.2 - ARCHON QUEST ｜ Full Game Walkthrough ｜ No Commentary [0nIbouB_Qv8].webm","material_url":"","matting":{"flag":0,"has_use_quick_brush":false,"has_use_quick_eraser":false,"interactiveTime":[],"path":"","strokes":[]},"media_path":"","object_locked":null,"origin_material_id":"","path":"/Volumes/Work/dev/la-vaguelette-chiyu-cover/external/GENSHIN IMPACT 4.2 - ARCHON QUEST ｜ Full Game Walkthrough ｜ No Commentary [0nIbouB_Qv8].webm","picture_from":"none","picture_set_category_id":"","picture_set_category_name":"","request_id":"","reverse_intensifies_path":"","reverse_path":"","smart_motion":null,"source":0,"source_platform":0,"stable":{"matrix_path":"","stable_level":0,"time_range":{"duration":0,"start":0}},"team_id":"","type":"video","video_algorithm":{"algorithms":[],"deflicker":null,"motion_blur_config":null,"noise_reduction":null,"path":"","quality_enhance":null,"time_range":null},"width":1920},{"aigc_type":"none","audio_fade":{"fade_in_duration":0,"fade_out_duration":2666666,"fade_type":0,"id":"E5D1D66B-C22B-4492-B58C-EEB27ED5F57C","type":"audio_fade"},"cartoon_path":"","category_id":"","category_name":"local","check_flag":65535,"crop":{"lower_left_x":0.0,"lower_left_y":1.0,"lower_right_x":1.0,"lower_right_y":1.0,"upper_left_x":0.0,"upper_left_y":0.0,"upper_right_x":1.0,"upper_right_y":0.0},"crop_ratio":"free","crop_scale":1.0,"duration":21100000,"extra_type_option":1,"formula_id":"","freeze":null,"gameplay":null,"has_audio":true,"height":1080,"id":"1B108105-9473-4297-97DC-86B68BC1E86D","intensifies_audio_path":"","intensifies_path":"","is_ai_generate_content":false,"is_unified_beauty_mode":false,"local_id":"","local_material_id":"20ff5c42-a2c5-4950-8451-05b6a4360343","material_id":"","material_name":"Furina Accession Speech 01.mp4","material_url":"","matting":{"flag":0,"has_use_quick_brush":false,"has_use_quick_eraser":false,"interactiveTime":[],"path":"","strokes":[]},"media_path":"","object_locked":null,"origin_material_id":"","path":"/Volumes/Work/dev/la-vaguelette-chiyu-cover/external/Furina Accession Speech 01.mp4","picture_from":"none","picture_set_category_id":"","picture_set_category_name":"","request_id":"","reverse_intensifies_path":"","reverse_path":"","smart_motion":null,"source":0,"source_platform":0,"stable":{"matrix_path":"","stable_level":0,"time_range":{"duration":0,"start":0}},"team_id":"","type":"video","video_algorithm":{"algorithms":[],"deflicker":null,"motion_blur_config":null,"noise_reduction":null,"path":"","quality_enhance":null,"time_range":null},"width":1920},{"aigc_type":"none","audio_fade":null,"cartoon_path":"","category_id":"","category_name":"local","check_flag":63487,"crop":{"lower_left_x":0.0,"lower_left_y":1.0,"lower_right_x":1.0,"lower_right_y":1.0,"upper_left_x":0.0,"upper_left_y":0.0,"upper_right_x":1.0,"upper_right_y":0.0},"crop_ratio":"free","crop_scale":1.0,"duration":10800000000,"extra_type_option":0,"formula_id":"","freeze":null,"gameplay":null,"has_audio":false,"height":1080,"id":"99EE212B-03A6-4E8F-8A06-62DE04E9C98B","intensifies_audio_path":"","intensifies_path":"","is_ai_generate_content":false,"is_unified_beauty_mode":false,"local_id":"","local_material_id":"","material_id":"","material_name":"Black Screen.png","material_url":"","matting":{"flag":0,"has_use_quick_brush":false,"has_use_quick_eraser":false,"interactiveTime":[],"path":"","strokes":[]},"media_path":"","object_locked":null,"origin_material_id":"","path":"/Volumes/Work/dev/la-vaguelette-chiyu-cover/external/Black Screen.png","picture_from":"none","picture_set_category_id":"","picture_set_category_name":"","request_id":"","reverse_intensifies_path":"","reverse_path":"","smart_motion":null,"source":0,"source_platform":0,"stable":{"matrix_path":"","stable_level":0,"time_range":{"duration":0,"start":0}},"team_id":"","type":"photo","video_algorithm":{"algorithms":[],"deflicker":null,"motion_blur_config":null,"noise_reduction":null,"path":"","quality_enhance":null,"time_range":null},"width":1920},{"aigc_type":"none","audio_fade":{"fade_in_duration":0,"fade_out_duration":0,"fade_type":0,"id":"CB848796-1CC0-4B44-968C-04C3466D86A8","type":"audio_fade"},"cartoon_path":"","category_id":"","category_name":"local","check_flag":65535,"crop":{"lower_left_x":0.0,"lower_left_y":1.0,"lower_right_x":1.0,"lower_right_y":1.0,"upper_left_x":0.0,"upper_left_y":0.0,"upper_right_x":1.0,"upper_right_y":0.0},"crop_ratio":"free","crop_scale":1.0,"duration":7150000,"extra_type_option":0,"formula_id":"","freeze":null,"gameplay":null,"has_audio":true,"height":1080,"id":"E94D5759-83E8-46E1-9148-A0E524F5B6D0","intensifies_audio_path":"","intensifies_path":"","is_ai_generate_content":false,"is_unified_beauty_mode":false,"local_id":"","local_material_id":"770fccda-8b62-4e39-8cec-2b6ff1b08887","material_id":"","material_name":"But Your Wish 01.mp4","material_url":"","matting":{"flag":0,"has_use_quick_brush":false,"has_use_quick_eraser":false,"interactiveTime":[],"path":"","strokes":[]},"media_path":"","object_locked":null,"origin_material_id":"","path":"/Volumes/Work/dev/la-vaguelette-chiyu-cover/external/But Your Wish 01.mp4","picture_from":"none","picture_set_category_id":"","picture_set_category_name":"","request_id":"","reverse_intensifies_path":"","reverse_path":"","smart_motion":null,"source":0,"source_platform":0,"stable":{"matrix_path":"","stable_level":0,"time_range":{"duration":0,"start":0}},"team_id":"","type":"video","video_algorithm":{"algorithms":[],"deflicker":null,"motion_blur_config":null,"noise_reduction":null,"path":"","quality_enhance":null,"time_range":null},"width":1920},{"aigc_type":"none","audio_fade":{"fade_in_duration":0,"fade_out_duration":0,"fade_type":0,"id":"0509088E-769F-4349-BCC1-F05933E4DF78","type":"audio_fade"},"cartoon_path":"","category_id":"","category_name":"local","check_flag":65535,"crop":{"lower_left_x":0.0,"lower_left_y":1.0,"lower_right_x":1.0,"lower_right_y":1.0,"upper_left_x":0.0,"upper_left_y":0.0,"upper_right_x":1.0,"upper_right_y":0.0},"crop_ratio":"free","crop_scale":1.0,"duration":7150000,"extra_type_option":0,"formula_id":"","freeze":null,"gameplay":null,"has_audio":true,"height":1080,"id":"983E8CD6-D4EA-472D-86A2-1EB6675C3EDD","intensifies_audio_path":"","intensifies_path":"","is_ai_generate_content":false,"is_unified_beauty_mode":false,"local_id":"","local_material_id":"770fccda-8b62-4e39-8cec-2b6ff1b08887","material_id":"","material_name":"But Your Wish 01.mp4","material_url":"","matting":{"flag":0,"has_use_quick_brush":false,"has_use_quick_eraser":false,"interactiveTime":[],"path":"","strokes":[]},"media_path":"","object_locked":null,"origin_material_id":"","path":"/Volumes/Work/dev/la-vaguelette-chiyu-cover/external/But Your Wish 01.mp4","picture_from":"none","picture_set_category_id":"","picture_set_category_name":"","request_id":"","reverse_intensifies_path":"","reverse_path":"","smart_motion":null,"source":0,"source_platform":0,"stable":{"matrix_path":"","stable_level":0,"time_range":{"duration":0,"start":0}},"team_id":"","type":"video","video_algorithm":{"algorithms":[],"deflicker":null,"motion_blur_config":null,"noise_reduction":null,"path":"","quality_enhance":null,"time_range":null},"width":1920},{"aigc_type":"none","audio_fade":null,"cartoon_path":"","category_id":"","category_name":"local","check_flag":65535,"crop":{"lower_left_x":0.0,"lower_left_y":1.0,"lower_right_x":1.0,"lower_right_y":1.0,"upper_left_x":0.0,"upper_left_y":0.0,"upper_right_x":1.0,"upper_right_y":0.0},"crop_ratio":"free","crop_scale":1.0,"duration":22600000,"extra_type_option":0,"formula_id":"","freeze":null,"gameplay":null,"has_audio":true,"height":1080,"id":"D9A89095-2E30-4465-81F2-DA06FC942C97","intensifies_audio_path":"","intensifies_path":"","is_ai_generate_content":false,"is_unified_beauty_mode":false,"local_id":"","local_material_id":"9d6d1e0d-d1e4-42d4-95bd-79a0ffde7995","material_id":"","material_name":"Forcalors Apology 01.mp4","material_url":"","matting":{"flag":0,"has_use_quick_brush":false,"has_use_quick_eraser":false,"interactiveTime":[],"path":"","strokes":[]},"media_path":"","object_locked":null,"origin_material_id":"","path":"/Volumes/Work/dev/la-vaguelette-chiyu-cover/external/Forcalors Apology 01.mp4","picture_from":"none","picture_set_category_id":"","picture_set_category_name":"","request_id":"","reverse_intensifies_path":"","reverse_path":"","smart_motion":null,"source":0,"source_platform":0,"stable":{"matrix_path":"","stable_level":0,"time_range":{"duration":0,"start":0}},"team_id":"","type":"video","video_algorithm":{"algorithms":[],"deflicker":null,"motion_blur_config":null,"noise_reduction":null,"path":"","quality_enhance":null,"time_range":null},"width":1920},{"aigc_type":"none","audio_fade":null,"cartoon_path":"","category_id":"","category_name":"local","check_flag":65535,"crop":{"lower_left_x":0.0,"lower_left_y":1.0,"lower_right_x":1.0,"lower_right_y":1.0,"upper_left_x":0.0,"upper_left_y":0.0,"upper_right_x":1.0,"upper_right_y":0.0},"crop_ratio":"free","crop_scale":1.0,"duration":22600000,"extra_type_option":0,"formula_id":"","freeze":null,"gameplay":null,"has_audio":true,"height":1080,"id":"D9C30D22-D40F-4E26-A4D6-1AA0551C4470","intensifies_audio_path":"","intensifies_path":"","is_ai_generate_content":false,"is_unified_beauty_mode":false,"local_id":"","local_material_id":"9d6d1e0d-d1e4-42d4-95bd-79a0ffde7995","material_id":"","material_name":"Forcalors Apology 01.mp4","material_url":"","matting":{"flag":0,"has_use_quick_brush":false,"has_use_quick_eraser":false,"interactiveTime":[],"path":"","strokes":[]},"media_path":"","object_locked":null,"origin_material_id":"","path":"/Volumes/Work/dev/la-vaguelette-chiyu-cover/external/Forcalors Apology 01.mp4","picture_from":"none","picture_set_category_id":"","picture_set_category_name":"","request_id":"","reverse_intensifies_path":"","reverse_path":"","smart_motion":null,"source":0,"source_platform":0,"stable":{"matrix_path":"","stable_level":0,"time_range":{"duration":0,"start":0}},"team_id":"","type":"video","video_algorithm":{"algorithms":[],"deflicker":null,"motion_blur_config":null,"noise_reduction":null,"path":"","quality_enhance":null,"time_range":null},"width":1920},{"aigc_type":"none","audio_fade":null,"cartoon_path":"","category_id":"","category_name":"local","check_flag":65535,"crop":{"lower_left_x":0.0,"lower_left_y":1.0,"lower_right_x":1.0,"lower_right_y":1.0,"upper_left_x":0.0,"upper_left_y":0.0,"upper_right_x":1.0,"upper_right_y":0.0},"crop_ratio":"free","crop_scale":1.0,"duration":22600000,"extra_type_option":0,"formula_id":"","freeze":null,"gameplay":null,"has_audio":true,"height":1080,"id":"160DCAEE-34BD-4AC6-B822-9299E03628CD","intensifies_audio_path":"","intensifies_path":"","is_ai_generate_content":false,"is_unified_beauty_mode":false,"local_id":"","local_material_id":"9d6d1e0d-d1e4-42d4-95bd-79a0ffde7995","material_id":"","material_name":"Forcalors Apology 01.mp4","material_url":"","matting":{"flag":0,"has_use_quick_brush":false,"has_use_quick_eraser":false,"interactiveTime":[],"path":"","strokes":[]},"media_path":"","object_locked":null,"origin_material_id":"","path":"/Volumes/Work/dev/la-vaguelette-chiyu-cover/external/Forcalors Apology 01.mp4","picture_from":"none","picture_set_category_id":"","picture_set_category_name":"","request_id":"","reverse_intensifies_path":"","reverse_path":"","smart_motion":null,"source":0,"source_platform":0,"stable":{"matrix_path":"","stable_level":0,"time_range":{"duration":0,"start":0}},"team_id":"","type":"video","video_algorithm":{"algorithms":[],"deflicker":null,"motion_blur_config":null,"noise_reduction":null,"path":"","quality_enhance":null,"time_range":null},"width":1920},{"aigc_type":"none","audio_fade":null,"cartoon_path":"","category_id":"","category_name":"local","check_flag":63487,"crop":{"lower_left_x":0.0,"lower_left_y":1.0,"lower_right_x":1.0,"lower_right_y":1.0,"upper_left_x":0.0,"upper_left_y":0.0,"upper_right_x":1.0,"upper_right_y":0.0},"crop_ratio":"free","crop_scale":1.0,"duration":16877516666,"extra_type_option":1,"formula_id":"","freeze":null,"gameplay":null,"has_audio":true,"height":1080,"id":"2A5BB24F-9255-4F2E-BE4C-EE82B537F283","intensifies_audio_path":"","intensifies_path":"","is_ai_generate_content":false,"is_unified_beauty_mode":false,"local_id":"","local_material_id":"da0938fd-aad3-472e-bbe7-169e4405df41","material_id":"","material_name":"GENSHIN IMPACT 4.2 - ARCHON QUEST ｜ Full Game Walkthrough ｜ No Commentary [0nIbouB_Qv8].webm","material_url":"","matting":{"flag":0,"has_use_quick_brush":false,"has_use_quick_eraser":false,"interactiveTime":[],"path":"","strokes":[]},"media_path":"","object_locked":null,"origin_material_id":"","path":"/Volumes/Work/dev/la-vaguelette-chiyu-cover/external/GENSHIN IMPACT 4.2 - ARCHON QUEST ｜ Full Game Walkthrough ｜ No Commentary [0nIbouB_Qv8].webm","picture_from":"none","picture_set_category_id":"","picture_set_category_name":"","request_id":"","reverse_intensifies_path":"","reverse_path":"","smart_motion":null,"source":0,"source_platform":0,"stable":{"matrix_path":"","stable_level":0,"time_range":{"duration":0,"start":0}},"team_id":"","type":"video","video_algorithm":{"algorithms":[],"deflicker":null,"motion_blur_config":null,"noise_reduction":null,"path":"","quality_enhance":null,"time_range":null},"width":1920},{"aigc_type":"none","audio_fade":null,"cartoon_path":"","category_id":"","category_name":"local","check_flag":63487,"crop":{"lower_left_x":0.0,"lower_left_y":1.0,"lower_right_x":1.0,"lower_right_y":1.0,"upper_left_x":0.0,"upper_left_y":0.0,"upper_right_x":1.0,"upper_right_y":0.0},"crop_ratio":"free","crop_scale":1.0,"duration":4250000,"extra_type_option":1,"formula_id":"","freeze":null,"gameplay":null,"has_audio":true,"height":1080,"id":"8CFA0DAB-9B04-441C-B83A-0ECE933BE7EA","intensifies_audio_path":"","intensifies_path":"","is_ai_generate_content":false,"is_unified_beauty_mode":false,"local_id":"","local_material_id":"de68f407-328c-4ae2-b49d-6b8c83683c30","material_id":"","material_name":"Furina Dance 01.mp4","material_url":"","matting":{"flag":0,"has_use_quick_brush":false,"has_use_quick_eraser":false,"interactiveTime":[],"path":"","strokes":[]},"media_path":"","object_locked":null,"origin_material_id":"","path":"/Volumes/Work/dev/la-vaguelette-chiyu-cover/external/Furina Dance 01.mp4","picture_from":"none","picture_set_category_id":"","picture_set_category_name":"","request_id":"","reverse_intensifies_path":"","reverse_path":"","smart_motion":null,"source":0,"source_platform":0,"stable":{"matrix_path":"","stable_level":0,"time_range":{"duration":0,"start":0}},"team_id":"","type":"video","video_algorithm":{"algorithms":[],"deflicker":null,"motion_blur_config":null,"noise_reduction":null,"path":"","quality_enhance":null,"time_range":null},"width":1920},{"aigc_type":"none","audio_fade":null,"cartoon_path":"","category_id":"","category_name":"local","check_flag":63487,"crop":{"lower_left_x":0.0,"lower_left_y":1.0,"lower_right_x":1.0,"lower_right_y":1.0,"upper_left_x":0.0,"upper_left_y":0.0,"upper_right_x":1.0,"upper_right_y":0.0},"crop_ratio":"free","crop_scale":1.0,"duration":16877516666,"extra_type_option":0,"formula_id":"","freeze":null,"gameplay":null,"has_audio":true,"height":1080,"id":"974DFAE2-A9C9-4254-9CB9-2049830F3F3E","intensifies_audio_path":"","intensifies_path":"","is_ai_generate_content":false,"is_unified_beauty_mode":false,"local_id":"","local_material_id":"da0938fd-aad3-472e-bbe7-169e4405df41","material_id":"","material_name":"GENSHIN IMPACT 4.2 - ARCHON QUEST ｜ Full Game Walkthrough ｜ No Commentary [0nIbouB_Qv8].webm","material_url":"","matting":{"flag":0,"has_use_quick_brush":false,"has_use_quick_eraser":false,"interactiveTime":[],"path":"","strokes":[]},"media_path":"","object_locked":null,"origin_material_id":"","path":"/Volumes/Work/dev/la-vaguelette-chiyu-cover/external/GENSHIN IMPACT 4.2 - ARCHON QUEST ｜ Full Game Walkthrough ｜ No Commentary [0nIbouB_Qv8].webm","picture_from":"none","picture_set_category_id":"","picture_set_category_name":"","request_id":"","reverse_intensifies_path":"","reverse_path":"","smart_motion":null,"source":0,"source_platform":0,"stable":{"matrix_path":"","stable_level":0,"time_range":{"duration":0,"start":0}},"team_id":"","type":"video","video_algorithm":{"algorithms":[],"deflicker":null,"motion_blur_config":null,"noise_reduction":null,"path":"","quality_enhance":null,"time_range":null},"width":1920},{"aigc_type":"none","audio_fade":null,"cartoon_path":"","category_id":"","category_name":"","check_flag":63487,"crop":{"lower_left_x":0.0,"lower_left_y":1.0,"lower_right_x":1.0,"lower_right_y":1.0,"upper_left_x":0.0,"upper_left_y":0.0,"upper_right_x":1.0,"upper_right_y":0.0},"crop_ratio":"free","crop_scale":1.0,"duration":6133333,"extra_type_option":2,"formula_id":"","freeze":null,"gameplay":null,"has_audio":true,"height":1080,"id":"B9533789-44E3-4F0D-8463-EDD595116C46","intensifies_audio_path":"","intensifies_path":"","is_ai_generate_content":false,"is_unified_beauty_mode":false,"local_id":"","local_material_id":"","material_id":"","material_name":"复合片段11","material_url":"","matting":{"flag":0,"has_use_quick_brush":false,"has_use_quick_eraser":false,"interactiveTime":[],"path":"","strokes":[]},"media_path":"","object_locked":null,"origin_material_id":"","path":"","picture_from":"none","picture_set_category_id":"","picture_set_category_name":"","request_id":"","reverse_intensifies_path":"","reverse_path":"","smart_motion":null,"source":0,"source_platform":0,"stable":{"matrix_path":"","stable_level":0,"time_range":{"duration":0,"start":0}},"team_id":"","type":"video","video_algorithm":{"algorithms":[],"deflicker":null,"motion_blur_config":null,"noise_reduction":null,"path":"","quality_enhance":null,"time_range":null},"width":1920},{"aigc_type":"none","audio_fade":null,"cartoon_path":"","category_id":"","category_name":"local","check_flag":63487,"crop":{"lower_left_x":0.0,"lower_left_y":1.0,"lower_right_x":1.0,"lower_right_y":1.0,"upper_left_x":0.0,"upper_left_y":0.0,"upper_right_x":1.0,"upper_right_y":0.0},"crop_ratio":"free","crop_scale":1.0,"duration":191916666,"extra_type_option":1,"formula_id":"","freeze":null,"gameplay":null,"has_audio":true,"height":2160,"id":"5A58546F-7383-4383-BFF7-A4B9F0AE6ABA","intensifies_audio_path":"","intensifies_path":"","is_ai_generate_content":false,"is_unified_beauty_mode":false,"local_id":"","local_material_id":"48a1518a-516f-49fa-968b-9d921d22be1c","material_id":"","material_name":"Cutscene Animation： ＂Sinner's Finale＂ ｜ Genshin Impact [_RAhrisU6Mc].webm","material_url":"","matting":{"flag":0,"has_use_quick_brush":false,"has_use_quick_eraser":false,"interactiveTime":[],"path":"","strokes":[]},"media_path":"","object_locked":null,"origin_material_id":"","path":"/Volumes/Work/dev/la-vaguelette-chiyu-cover/external/Cutscene Animation： ＂Sinner's Finale＂ ｜ Genshin Impact [_RAhrisU6Mc].webm","picture_from":"none","picture_set_category_id":"","picture_set_category_name":"","request_id":"","reverse_intensifies_path":"","reverse_path":"","smart_motion":null,"source":0,"source_platform":0,"stable":{"matrix_path":"","stable_level":0,"time_range":{"duration":0,"start":0}},"team_id":"","type":"video","video_algorithm":{"algorithms":[],"deflicker":null,"motion_blur_config":null,"noise_reduction":null,"path":"","quality_enhance":null,"time_range":null},"width":3840},{"aigc_type":"none","audio_fade":null,"cartoon_path":"","category_id":"","category_name":"local","check_flag":63487,"crop":{"lower_left_x":0.0,"lower_left_y":1.0,"lower_right_x":1.0,"lower_right_y":1.0,"upper_left_x":0.0,"upper_left_y":0.0,"upper_right_x":1.0,"upper_right_y":0.0},"crop_ratio":"free","crop_scale":1.0,"duration":16877516666,"extra_type_option":1,"formula_id":"","freeze":null,"gameplay":null,"has_audio":true,"height":1080,"id":"ED791CDE-915A-4388-96F5-E9987FF66089","intensifies_audio_path":"","intensifies_path":"","is_ai_generate_content":false,"is_unified_beauty_mode":false,"local_id":"","local_material_id":"da0938fd-aad3-472e-bbe7-169e4405df41","material_id":"","material_name":"GENSHIN IMPACT 4.2 - ARCHON QUEST ｜ Full Game Walkthrough ｜ No Commentary [0nIbouB_Qv8].webm","material_url":"","matting":{"flag":0,"has_use_quick_brush":false,"has_use_quick_eraser":false,"interactiveTime":[],"path":"","strokes":[]},"media_path":"","object_locked":null,"origin_material_id":"","path":"/Volumes/Work/dev/la-vaguelette-chiyu-cover/external/GENSHIN IMPACT 4.2 - ARCHON QUEST ｜ Full Game Walkthrough ｜ No Commentary [0nIbouB_Qv8].webm","picture_from":"none","picture_set_category_id":"","picture_set_category_name":"","request_id":"","reverse_intensifies_path":"","reverse_path":"","smart_motion":null,"source":0,"source_platform":0,"stable":{"matrix_path":"","stable_level":0,"time_range":{"duration":0,"start":0}},"team_id":"","type":"video","video_algorithm":{"algorithms":[{"name":"optical_flow","type":1}],"deflicker":null,"motion_blur_config":null,"noise_reduction":null,"path":"##_draftpath_placeholder_0E685133-18CE-45ED-8CB8-2904A212EC80_##/Resources/videoAlg/23fbc737ac4284a34da2ac6b1db61fac_10823816666_8840032.mp4","quality_enhance":null,"time_range":{"duration":8840032,"start":10823816666}},"width":1920},{"aigc_type":"none","audio_fade":null,"cartoon_path":"","category_id":"","category_name":"local","check_flag":63487,"crop":{"lower_left_x":0.0,"lower_left_y":1.0,"lower_right_x":1.0,"lower_right_y":1.0,"upper_left_x":0.0,"upper_left_y":0.0,"upper_right_x":1.0,"upper_right_y":0.0},"crop_ratio":"free","crop_scale":1.0,"duration":191916666,"extra_type_option":1,"formula_id":"","freeze":null,"gameplay":null,"has_audio":true,"height":2160,"id":"8A08A66F-7174-4B56-ABFA-137D083791E1","intensifies_audio_path":"","intensifies_path":"","is_ai_generate_content":false,"is_unified_beauty_mode":false,"local_id":"","local_material_id":"48a1518a-516f-49fa-968b-9d921d22be1c","material_id":"","material_name":"Cutscene Animation： ＂Sinner's Finale＂ ｜ Genshin Impact [_RAhrisU6Mc].webm","material_url":"","matting":{"flag":0,"has_use_quick_brush":false,"has_use_quick_eraser":false,"interactiveTime":[],"path":"","strokes":[]},"media_path":"","object_locked":null,"origin_material_id":"","path":"/Volumes/Work/dev/la-vaguelette-chiyu-cover/external/Cutscene Animation： ＂Sinner's Finale＂ ｜ Genshin Impact [_RAhrisU6Mc].webm","picture_from":"none","picture_set_category_id":"","picture_set_category_name":"","request_id":"","reverse_intensifies_path":"","reverse_path":"","smart_motion":null,"source":0,"source_platform":0,"stable":{"matrix_path":"","stable_level":0,"time_range":{"duration":0,"start":0}},"team_id":"","type":"video","video_algorithm":{"algorithms":[],"deflicker":null,"motion_blur_config":null,"noise_reduction":null,"path":"","quality_enhance":null,"time_range":null},"width":3840},{"aigc_type":"none","audio_fade":null,"cartoon_path":"","category_id":"","category_name":"local","check_flag":63487,"crop":{"lower_left_x":0.0,"lower_left_y":1.0,"lower_right_x":1.0,"lower_right_y":1.0,"upper_left_x":0.0,"upper_left_y":0.0,"upper_right_x":1.0,"upper_right_y":0.0},"crop_ratio":"free","crop_scale":1.0,"duration":191916666,"extra_type_option":1,"formula_id":"","freeze":null,"gameplay":null,"has_audio":true,"height":2160,"id":"5062E48B-E9E9-4FC7-BB34-A344AF634ABF","intensifies_audio_path":"","intensifies_path":"","is_ai_generate_content":false,"is_unified_beauty_mode":false,"local_id":"","local_material_id":"48a1518a-516f-49fa-968b-9d921d22be1c","material_id":"","material_name":"Cutscene Animation： ＂Sinner's Finale＂ ｜ Genshin Impact [_RAhrisU6Mc].webm","material_url":"","matting":{"flag":0,"has_use_quick_brush":false,"has_use_quick_eraser":false,"interactiveTime":[],"path":"","strokes":[]},"media_path":"","object_locked":null,"origin_material_id":"","path":"/Volumes/Work/dev/la-vaguelette-chiyu-cover/external/Cutscene Animation： ＂Sinner's Finale＂ ｜ Genshin Impact [_RAhrisU6Mc].webm","picture_from":"none","picture_set_category_id":"","picture_set_category_name":"","request_id":"","reverse_intensifies_path":"","reverse_path":"","smart_motion":null,"source":0,"source_platform":0,"stable":{"matrix_path":"","stable_level":0,"time_range":{"duration":0,"start":0}},"team_id":"","type":"video","video_algorithm":{"algorithms":[],"deflicker":null,"motion_blur_config":null,"noise_reduction":null,"path":"","quality_enhance":null,"time_range":null},"width":3840},{"aigc_type":"none","audio_fade":null,"cartoon_path":"","category_id":"","category_name":"local","check_flag":63487,"crop":{"lower_left_x":0.0,"lower_left_y":1.0,"lower_right_x":1.0,"lower_right_y":1.0,"upper_left_x":0.0,"upper_left_y":0.0,"upper_right_x":1.0,"upper_right_y":0.0},"crop_ratio":"free","crop_scale":1.0,"duration":191916666,"extra_type_option":1,"formula_id":"","freeze":null,"gameplay":null,"has_audio":true,"height":2160,"id":"F765921A-2593-4157-960C-9CF799EA115B","intensifies_audio_path":"","intensifies_path":"","is_ai_generate_content":false,"is_unified_beauty_mode":false,"local_id":"","local_material_id":"48a1518a-516f-49fa-968b-9d921d22be1c","material_id":"","material_name":"Cutscene Animation： ＂Sinner's Finale＂ ｜ Genshin Impact [_RAhrisU6Mc].webm","material_url":"","matting":{"flag":0,"has_use_quick_brush":false,"has_use_quick_eraser":false,"interactiveTime":[],"path":"","strokes":[]},"media_path":"","object_locked":null,"origin_material_id":"","path":"/Volumes/Work/dev/la-vaguelette-chiyu-cover/external/Cutscene Animation： ＂Sinner's Finale＂ ｜ Genshin Impact [_RAhrisU6Mc].webm","picture_from":"none","picture_set_category_id":"","picture_set_category_name":"","request_id":"","reverse_intensifies_path":"","reverse_path":"","smart_motion":null,"source":0,"source_platform":0,"stable":{"matrix_path":"","stable_level":0,"time_range":{"duration":0,"start":0}},"team_id":"","type":"video","video_algorithm":{"algorithms":[{"name":"optical_flow","type":1}],"deflicker":null,"motion_blur_config":null,"noise_reduction":null,"path":"##_draftpath_placeholder_0E685133-18CE-45ED-8CB8-2904A212EC80_##/Resources/videoAlg/0d3f06c54fc073622d37c0349dad419b_77974999_2958334.mp4","quality_enhance":null,"time_range":{"duration":2958334,"start":77974999}},"width":3840},{"aigc_type":"none","audio_fade":null,"cartoon_path":"","category_id":"","category_name":"local","check_flag":63487,"crop":{"lower_left_x":0.0,"lower_left_y":1.0,"lower_right_x":1.0,"lower_right_y":1.0,"upper_left_x":0.0,"upper_left_y":0.0,"upper_right_x":1.0,"upper_right_y":0.0},"crop_ratio":"free","crop_scale":1.0,"duration":191916666,"extra_type_option":1,"formula_id":"","freeze":null,"gameplay":null,"has_audio":true,"height":2160,"id":"5B201BFC-6F05-4861-BAA0-A69D75B49F5C","intensifies_audio_path":"","intensifies_path":"","is_ai_generate_content":false,"is_unified_beauty_mode":false,"local_id":"","local_material_id":"48a1518a-516f-49fa-968b-9d921d22be1c","material_id":"","material_name":"Cutscene Animation： ＂Sinner's Finale＂ ｜ Genshin Impact [_RAhrisU6Mc].webm","material_url":"","matting":{"flag":0,"has_use_quick_brush":false,"has_use_quick_eraser":false,"interactiveTime":[],"path":"","strokes":[]},"media_path":"","object_locked":null,"origin_material_id":"","path":"/Volumes/Work/dev/la-vaguelette-chiyu-cover/external/Cutscene Animation： ＂Sinner's Finale＂ ｜ Genshin Impact [_RAhrisU6Mc].webm","picture_from":"none","picture_set_category_id":"","picture_set_category_name":"","request_id":"","reverse_intensifies_path":"","reverse_path":"","smart_motion":null,"source":0,"source_platform":0,"stable":{"matrix_path":"","stable_level":0,"time_range":{"duration":0,"start":0}},"team_id":"","type":"video","video_algorithm":{"algorithms":[{"name":"optical_flow","type":1}],"deflicker":null,"motion_blur_config":null,"noise_reduction":null,"path":"##_draftpath_placeholder_0E685133-18CE-45ED-8CB8-2904A212EC80_##/Resources/videoAlg/1ae9b151903ffc19d12cbb8a6a726885_79499999_7536513.mp4","quality_enhance":null,"time_range":{"duration":7536513,"start":79499999}},"width":3840},{"aigc_type":"none","audio_fade":null,"cartoon_path":"","category_id":"","category_name":"local","check_flag":63487,"crop":{"lower_left_x":0.0,"lower_left_y":1.0,"lower_right_x":1.0,"lower_right_y":1.0,"upper_left_x":0.0,"upper_left_y":0.0,"upper_right_x":1.0,"upper_right_y":0.0},"crop_ratio":"free","crop_scale":1.0,"duration":159000000,"extra_type_option":1,"formula_id":"","freeze":null,"gameplay":null,"has_audio":true,"height":1080,"id":"7007A770-5418-4340-992C-A00BF27619D4","intensifies_audio_path":"","intensifies_path":"","is_ai_generate_content":false,"is_unified_beauty_mode":false,"local_id":"","local_material_id":"5db12b68-efa4-4b17-93a9-e6f1e2197310","material_id":"","material_name":"Story Teaser Reversed.mp4","material_url":"","matting":{"flag":0,"has_use_quick_brush":false,"has_use_quick_eraser":false,"interactiveTime":[],"path":"","strokes":[]},"media_path":"","object_locked":null,"origin_material_id":"","path":"/Volumes/Work/dev/la-vaguelette-chiyu-cover/external/Story Teaser Reversed.mp4","picture_from":"none","picture_set_category_id":"","picture_set_category_name":"","request_id":"","reverse_intensifies_path":"","reverse_path":"","smart_motion":null,"source":0,"source_platform":0,"stable":{"matrix_path":"","stable_level":0,"time_range":{"duration":0,"start":0}},"team_id":"","type":"video","video_algorithm":{"algorithms":[{"name":"optical_flow","type":1}],"deflicker":null,"motion_blur_config":null,"noise_reduction":null,"path":"##_draftpath_placeholder_0E685133-18CE-45ED-8CB8-2904A212EC80_##/Resources/videoAlg/f3d342c3c8ee2b1745bbe2f80b4e629d_23041814_11776205.mp4","quality_enhance":null,"time_range":{"duration":11776205,"start":23041814}},"width":1920},{"aigc_type":"none","audio_fade":null,"cartoon_path":"","category_id":"","category_name":"local","check_flag":63487,"crop":{"lower_left_x":0.0,"lower_left_y":1.0,"lower_right_x":1.0,"lower_right_y":1.0,"upper_left_x":0.0,"upper_left_y":0.0,"upper_right_x":1.0,"upper_right_y":0.0},"crop_ratio":"free","crop_scale":1.0,"duration":16877516666,"extra_type_option":1,"formula_id":"","freeze":null,"gameplay":null,"has_audio":true,"height":1080,"id":"36595770-0F54-408D-A521-B05F5866A9C5","intensifies_audio_path":"","intensifies_path":"","is_ai_generate_content":false,"is_unified_beauty_mode":false,"local_id":"","local_material_id":"da0938fd-aad3-472e-bbe7-169e4405df41","material_id":"","material_name":"GENSHIN IMPACT 4.2 - ARCHON QUEST ｜ Full Game Walkthrough ｜ No Commentary [0nIbouB_Qv8].webm","material_url":"","matting":{"flag":0,"has_use_quick_brush":false,"has_use_quick_eraser":false,"interactiveTime":[],"path":"","strokes":[]},"media_path":"","object_locked":null,"origin_material_id":"","path":"/Volumes/Work/dev/la-vaguelette-chiyu-cover/external/GENSHIN IMPACT 4.2 - ARCHON QUEST ｜ Full Game Walkthrough ｜ No Commentary [0nIbouB_Qv8].webm","picture_from":"none","picture_set_category_id":"","picture_set_category_name":"","request_id":"","reverse_intensifies_path":"","reverse_path":"","smart_motion":null,"source":0,"source_platform":0,"stable":{"matrix_path":"","stable_level":0,"time_range":{"duration":0,"start":0}},"team_id":"","type":"video","video_algorithm":{"algorithms":[],"deflicker":null,"motion_blur_config":null,"noise_reduction":null,"path":"","quality_enhance":null,"time_range":null},"width":1920},{"aigc_type":"none","audio_fade":null,"cartoon_path":"","category_id":"","category_name":"","check_flag":63487,"crop":{"lower_left_x":0.0,"lower_left_y":1.0,"lower_right_x":1.0,"lower_right_y":1.0,"upper_left_x":0.0,"upper_left_y":0.0,"upper_right_x":1.0,"upper_right_y":0.0},"crop_ratio":"free","crop_scale":1.0,"duration":5116666,"extra_type_option":2,"formula_id":"","freeze":null,"gameplay":null,"has_audio":false,"height":1080,"id":"83DBB49B-07DB-437F-A2D3-98F0674A71DC","intensifies_audio_path":"","intensifies_path":"","is_ai_generate_content":false,"is_unified_beauty_mode":false,"local_id":"","local_material_id":"","material_id":"","material_name":"复合片段2","material_url":"","matting":{"flag":0,"has_use_quick_brush":false,"has_use_quick_eraser":false,"interactiveTime":[],"path":"","strokes":[]},"media_path":"","object_locked":null,"origin_material_id":"","path":"","picture_from":"none","picture_set_category_id":"","picture_set_category_name":"","request_id":"","reverse_intensifies_path":"","reverse_path":"","smart_motion":null,"source":0,"source_platform":0,"stable":{"matrix_path":"","stable_level":0,"time_range":{"duration":0,"start":0}},"team_id":"","type":"video","video_algorithm":{"algorithms":[],"deflicker":null,"motion_blur_config":null,"noise_reduction":null,"path":"","quality_enhance":null,"time_range":null},"width":1920},{"aigc_type":"none","audio_fade":null,"cartoon_path":"","category_id":"","category_name":"local","check_flag":63487,"crop":{"lower_left_x":0.0,"lower_left_y":1.0,"lower_right_x":1.0,"lower_right_y":1.0,"upper_left_x":0.0,"upper_left_y":0.0,"upper_right_x":1.0,"upper_right_y":0.0},"crop_ratio":"free","crop_scale":1.0,"duration":16877516666,"extra_type_option":1,"formula_id":"","freeze":null,"gameplay":null,"has_audio":true,"height":1080,"id":"4271EA1C-091C-436E-8F8A-4D192A08A5D0","intensifies_audio_path":"","intensifies_path":"","is_ai_generate_content":false,"is_unified_beauty_mode":false,"local_id":"","local_material_id":"da0938fd-aad3-472e-bbe7-169e4405df41","material_id":"","material_name":"GENSHIN IMPACT 4.2 - ARCHON QUEST ｜ Full Game Walkthrough ｜ No Commentary [0nIbouB_Qv8].webm","material_url":"","matting":{"flag":0,"has_use_quick_brush":false,"has_use_quick_eraser":false,"interactiveTime":[],"path":"","strokes":[]},"media_path":"","object_locked":null,"origin_material_id":"","path":"/Volumes/Work/dev/la-vaguelette-chiyu-cover/external/GENSHIN IMPACT 4.2 - ARCHON QUEST ｜ Full Game Walkthrough ｜ No Commentary [0nIbouB_Qv8].webm","picture_from":"none","picture_set_category_id":"","picture_set_category_name":"","request_id":"","reverse_intensifies_path":"","reverse_path":"","smart_motion":null,"source":0,"source_platform":0,"stable":{"matrix_path":"","stable_level":0,"time_range":{"duration":0,"start":0}},"team_id":"","type":"video","video_algorithm":{"algorithms":[],"deflicker":null,"motion_blur_config":null,"noise_reduction":null,"path":"","quality_enhance":null,"time_range":null},"width":1920},{"aigc_type":"none","audio_fade":null,"cartoon_path":"","category_id":"","category_name":"","check_flag":63487,"crop":{"lower_left_x":0.0,"lower_left_y":1.0,"lower_right_x":1.0,"lower_right_y":1.0,"upper_left_x":0.0,"upper_left_y":0.0,"upper_right_x":1.0,"upper_right_y":0.0},"crop_ratio":"free","crop_scale":1.0,"duration":6133333,"extra_type_option":2,"formula_id":"","freeze":null,"gameplay":null,"has_audio":true,"height":1080,"id":"6A80A75F-8F36-4B51-9682-94419B2F4FB4","intensifies_audio_path":"","intensifies_path":"","is_ai_generate_content":false,"is_unified_beauty_mode":false,"local_id":"","local_material_id":"","material_id":"","material_name":"复合片段7","material_url":"","matting":{"flag":0,"has_use_quick_brush":false,"has_use_quick_eraser":false,"interactiveTime":[],"path":"","strokes":[]},"media_path":"","object_locked":null,"origin_material_id":"","path":"","picture_from":"none","picture_set_category_id":"","picture_set_category_name":"","request_id":"","reverse_intensifies_path":"","reverse_path":"","smart_motion":null,"source":0,"source_platform":0,"stable":{"matrix_path":"","stable_level":0,"time_range":{"duration":0,"start":0}},"team_id":"","type":"video","video_algorithm":{"algorithms":[],"deflicker":null,"motion_blur_config":null,"noise_reduction":null,"path":"","quality_enhance":null,"time_range":null},"width":1920},{"aigc_type":"none","audio_fade":null,"cartoon_path":"","category_id":"","category_name":"","check_flag":63487,"crop":{"lower_left_x":0.0,"lower_left_y":1.0,"lower_right_x":1.0,"lower_right_y":1.0,"upper_left_x":0.0,"upper_left_y":0.0,"upper_right_x":1.0,"upper_right_y":0.0},"crop_ratio":"free","crop_scale":1.0,"duration":6133333,"extra_type_option":2,"formula_id":"","freeze":null,"gameplay":null,"has_audio":true,"height":1080,"id":"8930CD80-F32E-4B63-80FF-732F4A72A99E","intensifies_audio_path":"","intensifies_path":"","is_ai_generate_content":false,"is_unified_beauty_mode":false,"local_id":"","local_material_id":"","material_id":"","material_name":"复合片段8","material_url":"","matting":{"flag":0,"has_use_quick_brush":false,"has_use_quick_eraser":false,"interactiveTime":[],"path":"","strokes":[]},"media_path":"","object_locked":null,"origin_material_id":"","path":"","picture_from":"none","picture_set_category_id":"","picture_set_category_name":"","request_id":"","reverse_intensifies_path":"","reverse_path":"","smart_motion":null,"source":0,"source_platform":0,"stable":{"matrix_path":"","stable_level":0,"time_range":{"duration":0,"start":0}},"team_id":"","type":"video","video_algorithm":{"algorithms":[],"deflicker":null,"motion_blur_config":null,"noise_reduction":null,"path":"","quality_enhance":null,"time_range":null},"width":1920},{"aigc_type":"none","audio_fade":null,"cartoon_path":"","category_id":"","category_name":"","check_flag":63487,"crop":{"lower_left_x":0.0,"lower_left_y":1.0,"lower_right_x":1.0,"lower_right_y":1.0,"upper_left_x":0.0,"upper_left_y":0.0,"upper_right_x":1.0,"upper_right_y":0.0},"crop_ratio":"free","crop_scale":1.0,"duration":7383333,"extra_type_option":2,"formula_id":"","freeze":null,"gameplay":null,"has_audio":true,"height":1080,"id":"3803F2E6-AEE6-41BD-9381-340BFF7ECA8E","intensifies_audio_path":"","intensifies_path":"","is_ai_generate_content":false,"is_unified_beauty_mode":false,"local_id":"","local_material_id":"","material_id":"","material_name":"复合片段22","material_url":"","matting":{"flag":0,"has_use_quick_brush":false,"has_use_quick_eraser":false,"interactiveTime":[],"path":"","strokes":[]},"media_path":"","object_locked":null,"origin_material_id":"","path":"","picture_from":"none","picture_set_category_id":"","picture_set_category_name":"","request_id":"","reverse_intensifies_path":"","reverse_path":"","smart_motion":null,"source":0,"source_platform":0,"stable":{"matrix_path":"","stable_level":0,"time_range":{"duration":0,"start":0}},"team_id":"","type":"video","video_algorithm":{"algorithms":[],"deflicker":null,"motion_blur_config":null,"noise_reduction":null,"path":"","quality_enhance":null,"time_range":null},"width":1920},{"aigc_type":"none","audio_fade":null,"cartoon_path":"","category_id":"","category_name":"local","check_flag":63487,"crop":{"lower_left_x":0.0,"lower_left_y":1.0,"lower_right_x":1.0,"lower_right_y":1.0,"upper_left_x":0.0,"upper_left_y":0.0,"upper_right_x":1.0,"upper_right_y":0.0},"crop_ratio":"free","crop_scale":1.0,"duration":10800000000,"extra_type_option":0,"formula_id":"","freeze":null,"gameplay":null,"has_audio":false,"height":1080,"id":"45C93BEC-DCF7-4E72-A28E-1959533F4211","intensifies_audio_path":"","intensifies_path":"","is_ai_generate_content":false,"is_unified_beauty_mode":false,"local_id":"","local_material_id":"","material_id":"","material_name":"Black Screen.png","material_url":"","matting":{"flag":0,"has_use_quick_brush":false,"has_use_quick_eraser":false,"interactiveTime":[],"path":"","strokes":[]},"media_path":"","object_locked":null,"origin_material_id":"","path":"/Volumes/Work/dev/la-vaguelette-chiyu-cover/external/Black Screen.png","picture_from":"none","picture_set_category_id":"","picture_set_category_name":"","request_id":"","reverse_intensifies_path":"","reverse_path":"","smart_motion":null,"source":0,"source_platform":0,"stable":{"matrix_path":"","stable_level":0,"time_range":{"duration":0,"start":0}},"team_id":"","type":"photo","video_algorithm":{"algorithms":[],"deflicker":null,"motion_blur_config":null,"noise_reduction":null,"path":"","quality_enhance":null,"time_range":null},"width":1920},{"aigc_type":"none","audio_fade":null,"cartoon_path":"","category_id":"","category_name":"local","check_flag":63487,"crop":{"lower_left_x":0.0,"lower_left_y":1.0,"lower_right_x":1.0,"lower_right_y":1.0,"upper_left_x":0.0,"upper_left_y":0.0,"upper_right_x":1.0,"upper_right_y":0.0},"crop_ratio":"free","crop_scale":1.0,"duration":10800000000,"extra_type_option":0,"formula_id":"","freeze":null,"gameplay":null,"has_audio":false,"height":1080,"id":"C9B20291-5A31-413E-BDCF-B344C350471F","intensifies_audio_path":"","intensifies_path":"","is_ai_generate_content":false,"is_unified_beauty_mode":false,"local_id":"","local_material_id":"","material_id":"","material_name":"Black Screen.png","material_url":"","matting":{"flag":0,"has_use_quick_brush":false,"has_use_quick_eraser":false,"interactiveTime":[],"path":"","strokes":[]},"media_path":"","object_locked":null,"origin_material_id":"","path":"/Volumes/Work/dev/la-vaguelette-chiyu-cover/external/Black Screen.png","picture_from":"none","picture_set_category_id":"","picture_set_category_name":"","request_id":"","reverse_intensifies_path":"","reverse_path":"","smart_motion":null,"source":0,"source_platform":0,"stable":{"matrix_path":"","stable_level":0,"time_range":{"duration":0,"start":0}},"team_id":"","type":"photo","video_algorithm":{"algorithms":[],"deflicker":null,"motion_blur_config":null,"noise_reduction":null,"path":"","quality_enhance":null,"time_range":null},"width":1920},{"aigc_type":"none","audio_fade":null,"cartoon_path":"","category_id":"","category_name":"local","check_flag":63487,"crop":{"lower_left_x":0.0,"lower_left_y":1.0,"lower_right_x":1.0,"lower_right_y":1.0,"upper_left_x":0.0,"upper_left_y":0.0,"upper_right_x":1.0,"upper_right_y":0.0},"crop_ratio":"free","crop_scale":1.0,"duration":10800000000,"extra_type_option":0,"formula_id":"","freeze":null,"gameplay":null,"has_audio":false,"height":1080,"id":"B9B26DD3-13A2-4F2C-90D2-4A1B9A5D2122","intensifies_audio_path":"","intensifies_path":"","is_ai_generate_content":false,"is_unified_beauty_mode":false,"local_id":"","local_material_id":"","material_id":"","material_name":"Black Screen.png","material_url":"","matting":{"flag":0,"has_use_quick_brush":false,"has_use_quick_eraser":false,"interactiveTime":[],"path":"","strokes":[]},"media_path":"","object_locked":null,"origin_material_id":"","path":"/Volumes/Work/dev/la-vaguelette-chiyu-cover/external/Black Screen.png","picture_from":"none","picture_set_category_id":"","picture_set_category_name":"","request_id":"","reverse_intensifies_path":"","reverse_path":"","smart_motion":null,"source":0,"source_platform":0,"stable":{"matrix_path":"","stable_level":0,"time_range":{"duration":0,"start":0}},"team_id":"","type":"photo","video_algorithm":{"algorithms":[],"deflicker":null,"motion_blur_config":null,"noise_reduction":null,"path":"","quality_enhance":null,"time_range":null},"width":1920},{"aigc_type":"none","audio_fade":null,"cartoon_path":"","category_id":"","category_name":"local","check_flag":63455,"crop":{"lower_left_x":0.0,"lower_left_y":1.0,"lower_right_x":1.0,"lower_right_y":1.0,"upper_left_x":0.0,"upper_left_y":0.0,"upper_right_x":1.0,"upper_right_y":0.0},"crop_ratio":"free","crop_scale":1.0,"duration":16877516666,"extra_type_option":1,"formula_id":"","freeze":null,"gameplay":null,"has_audio":true,"height":1080,"id":"D6435348-6C31-4F6B-9D07-2D7FFDA8D03A","intensifies_audio_path":"","intensifies_path":"","is_ai_generate_content":false,"is_unified_beauty_mode":false,"local_id":"","local_material_id":"da0938fd-aad3-472e-bbe7-169e4405df41","material_id":"","material_name":"GENSHIN IMPACT 4.2 - ARCHON QUEST ｜ Full Game Walkthrough ｜ No Commentary [0nIbouB_Qv8].webm","material_url":"","matting":{"flag":1,"has_use_quick_brush":false,"has_use_quick_eraser":false,"interactiveTime":[],"path":"##_draftpath_placeholder_0E685133-18CE-45ED-8CB8-2904A212EC80_##/matting/fe4651e30a6a2e88764e41e7a2298f22","strokes":[]},"media_path":"","object_locked":null,"origin_material_id":"","path":"/Volumes/Work/dev/la-vaguelette-chiyu-cover/external/GENSHIN IMPACT 4.2 - ARCHON QUEST ｜ Full Game Walkthrough ｜ No Commentary [0nIbouB_Qv8].webm","picture_from":"none","picture_set_category_id":"","picture_set_category_name":"","request_id":"","reverse_intensifies_path":"","reverse_path":"","smart_motion":null,"source":0,"source_platform":0,"stable":{"matrix_path":"","stable_level":0,"time_range":{"duration":0,"start":0}},"team_id":"","type":"video","video_algorithm":{"algorithms":[{"name":"optical_flow","type":1}],"deflicker":null,"motion_blur_config":null,"noise_reduction":null,"path":"##_draftpath_placeholder_0E685133-18CE-45ED-8CB8-2904A212EC80_##/Resources/videoAlg/9dd72ae8be86e699383c5681981e6c28_10839566666_2263335.mp4","quality_enhance":null,"time_range":{"duration":2263335,"start":10839566666}},"width":1920},{"aigc_type":"none","audio_fade":null,"cartoon_path":"","category_id":"","category_name":"local","check_flag":63487,"crop":{"lower_left_x":0.0,"lower_left_y":1.0,"lower_right_x":1.0,"lower_right_y":1.0,"upper_left_x":0.0,"upper_left_y":0.0,"upper_right_x":1.0,"upper_right_y":0.0},"crop_ratio":"free","crop_scale":1.0,"duration":16877516666,"extra_type_option":1,"formula_id":"","freeze":null,"gameplay":null,"has_audio":true,"height":1080,"id":"782B8190-1A3A-43C3-92E8-CCE0EB77F198","intensifies_audio_path":"","intensifies_path":"","is_ai_generate_content":false,"is_unified_beauty_mode":false,"local_id":"","local_material_id":"da0938fd-aad3-472e-bbe7-169e4405df41","material_id":"","material_name":"GENSHIN IMPACT 4.2 - ARCHON QUEST ｜ Full Game Walkthrough ｜ No Commentary [0nIbouB_Qv8].webm","material_url":"","matting":{"flag":0,"has_use_quick_brush":false,"has_use_quick_eraser":false,"interactiveTime":[],"path":"","strokes":[]},"media_path":"","object_locked":null,"origin_material_id":"","path":"/Volumes/Work/dev/la-vaguelette-chiyu-cover/external/GENSHIN IMPACT 4.2 - ARCHON QUEST ｜ Full Game Walkthrough ｜ No Commentary [0nIbouB_Qv8].webm","picture_from":"none","picture_set_category_id":"","picture_set_category_name":"","request_id":"","reverse_intensifies_path":"","reverse_path":"","smart_motion":null,"source":0,"source_platform":0,"stable":{"matrix_path":"","stable_level":0,"time_range":{"duration":0,"start":0}},"team_id":"","type":"video","video_algorithm":{"algorithms":[],"deflicker":null,"motion_blur_config":null,"noise_reduction":null,"path":"","quality_enhance":null,"time_range":null},"width":1920}],"vocal_beautifys":[],"vocal_separations":[{"choice":0,"id":"A7900216-AF90-4C97-AA02-8733A49FA066","production_path":"","time_range":null,"type":"vocal_separation"},{"choice":0,"id":"9067619B-0551-41FA-9041-FF5FBF60DCAC","production_path":"","time_range":null,"type":"vocal_separation"},{"choice":0,"id":"23C0CC66-4E83-473F-917B-CDC1F7735FB6","production_path":"","time_range":null,"type":"vocal_separation"},{"choice":0,"id":"3F11F068-C1DF-4665-B52D-720E6666AD2F","production_path":"","time_range":null,"type":"vocal_separation"},{"choice":0,"id":"2E404487-5290-414B-911A-B252DBB329C4","production_path":"","time_range":null,"type":"vocal_separation"},{"choice":0,"id":"1A2F088A-C2F9-4877-A1EE-4489253CF14C","production_path":"","time_range":null,"type":"vocal_separation"},{"choice":0,"id":"5790FBA9-886C-4E33-930C-23327E333B19","production_path":"","time_range":null,"type":"vocal_separation"},{"choice":0,"id":"A2FCBA6A-3955-4973-8039-C46BEDDABC9B","production_path":"","time_range":null,"type":"vocal_separation"},{"choice":0,"id":"CEB2AD9F-ED5C-4E19-A989-7BC547C53493","production_path":"","time_range":null,"type":"vocal_separation"},{"choice":0,"id":"9AB0C7DA-D73A-458A-870F-102F8BA116B0","production_path":"","time_range":null,"type":"vocal_separation"},{"choice":0,"id":"1CA5B878-7D5D-4CC5-A508-DF2D34D20EE0","production_path":"","time_range":null,"type":"vocal_separation"},{"choice":0,"id":"8037F700-E219-4019-8EE4-BC410D7F4DF4","production_path":"","time_range":null,"type":"vocal_separation"},{"choice":0,"id":"8E4E1DE6-BC31-45C4-AB39-EF96025F1D08","production_path":"","time_range":null,"type":"vocal_separation"},{"choice":0,"id":"B206713E-204F-4D7C-BF41-3DF1F4C33FF3","production_path":"","time_range":null,"type":"vocal_separation"},{"choice":0,"id":"9E13D68E-BBEA-4846-908C-623BD6D160B7","production_path":"","time_range":null,"type":"vocal_separation"},{"choice":0,"id":"81BD9B89-202C-4C4D-AE15-1E41DC16676F","production_path":"","time_range":null,"type":"vocal_separation"},{"choice":0,"id":"00CC9894-8107-4E94-AB60-CC76A9FD42C9","production_path":"","time_range":null,"type":"vocal_separation"},{"choice":0,"id":"19B596A1-6C4A-4FB7-B6C2-C78056EF6CBA","production_path":"","time_range":null,"type":"vocal_separation"},{"choice":0,"id":"0E701B0A-447A-4B64-9610-26BD99210D2E","production_path":"","time_range":null,"type":"vocal_separation"},{"choice":0,"id":"464EE060-4E85-415C-A160-AC9EF1581A00","production_path":"","time_range":null,"type":"vocal_separation"},{"choice":0,"id":"2A9ED222-C4B6-425D-A9A2-B6F90D7F07C2","production_path":"","time_range":null,"type":"vocal_separation"},{"choice":0,"id":"36BA5EBB-38CF-4FAD-A81D-72F58B08114F","production_path":"","time_range":null,"type":"vocal_separation"},{"choice":0,"id":"F7DE9880-1416-4543-A138-925ADF9A2CE6","production_path":"","time_range":null,"type":"vocal_separation"},{"choice":0,"id":"2D531F8E-12C4-484E-9A59-BCBC487A08D2","production_path":"","time_range":null,"type":"vocal_separation"},{"choice":0,"id":"58DB22FF-9497-4191-A634-46F1A20F08B2","production_path":"","time_range":null,"type":"vocal_separation"},{"choice":0,"id":"AB110FA8-FA8D-4490-B5C5-EF84E7EA1F29","production_path":"","time_range":null,"type":"vocal_separation"},{"choice":0,"id":"C771C165-D477-4BD9-9AE8-5FCC45F0AC22","production_path":"","time_range":null,"type":"vocal_separation"},{"choice":0,"id":"D0A69819-6ADD-460C-8B93-FF9AD6FABA16","production_path":"","time_range":null,"type":"vocal_separation"},{"choice":0,"id":"39E45CA8-170E-4ECF-8083-2A35AA8DB8F0","production_path":"","time_range":null,"type":"vocal_separation"},{"choice":0,"id":"6DF462A0-4482-4CEF-B280-0EF750FE9B69","production_path":"","time_range":null,"type":"vocal_separation"},{"choice":0,"id":"AA28CB45-2DE8-44D3-8E83-7D23BBEE690A","production_path":"","time_range":null,"type":"vocal_separation"},{"choice":0,"id":"4A250DF8-421B-4E6C-A1FE-21B681AD1D48","production_path":"","time_range":null,"type":"vocal_separation"},{"choice":0,"id":"F38CB35B-CE26-4197-B54F-CF8A56089764","production_path":"","time_range":null,"type":"vocal_separation"},{"choice":0,"id":"8F8E5F7E-6B4D-4327-917D-A894ABB3DD22","production_path":"","time_range":null,"type":"vocal_separation"},{"choice":0,"id":"186A41B5-40B0-44D9-ADD3-CF33D349AF80","production_path":"","time_range":null,"type":"vocal_separation"},{"choice":0,"id":"B0EE8CB1-7532-427F-8311-950D9536A738","production_path":"","time_range":null,"type":"vocal_separation"},{"choice":0,"id":"46BF32C2-EF0F-44AD-9497-C5A8C4D93C2F","production_path":"","time_range":null,"type":"vocal_separation"},{"choice":0,"id":"AA6B26BB-6D36-4E63-935C-CF9B37F01B58","production_path":"","time_range":null,"type":"vocal_separation"},{"choice":0,"id":"57053FBE-DCCD-4C74-8F35-1E01BD0E4016","production_path":"","time_range":null,"type":"vocal_separation"},{"choice":0,"id":"F26343FA-7D42-47C0-A052-2BAE87D6BB14","production_path":"","time_range":null,"type":"vocal_separation"},{"choice":0,"id":"A0750D62-62E4-4595-AFF2-B13BDE4B38B2","production_path":"","time_range":null,"type":"vocal_separation"},{"choice":0,"id":"D85409E2-7544-4F2F-934F-5EFCDE6F820A","production_path":"","time_range":null,"type":"vocal_separation"},{"choice":0,"id":"914D4D9B-A14E-4BDC-A3CA-2103C8AEA771","production_path":"","time_range":null,"type":"vocal_separation"},{"choice":0,"id":"60D3869C-619C-4433-BCAF-8FD9649419A3","production_path":"","time_range":null,"type":"vocal_separation"},{"choice":0,"id":"68F7E95E-E763-4C3C-98C6-E944718EAF81","production_path":"","time_range":null,"type":"vocal_separation"},{"choice":0,"id":"62FAB79C-FA63-4CA9-B39A-73779018BEAE","production_path":"","time_range":null,"type":"vocal_separation"},{"choice":0,"id":"7CBA07D7-2A96-45EA-8E94-14590C8CE0B6","production_path":"","time_range":null,"type":"vocal_separation"},{"choice":0,"id":"8B3C4E18-9DE6-49CA-880B-AA3AF6556A16","production_path":"","time_range":null,"type":"vocal_separation"},{"choice":0,"id":"7E8695A5-1E6C-40C2-AA87-EF35A0DBD8F6","production_path":"","time_range":null,"type":"vocal_separation"},{"choice":0,"id":"753190CA-1B8A-4167-AA99-A2F4B81C4638","production_path":"","time_range":null,"type":"vocal_separation"},{"choice":0,"id":"3F197B63-2F9C-4CD9-AE38-95D67706CD87","production_path":"","time_range":null,"type":"vocal_separation"}]},"mutable_config":null,"name":"","new_version":"89.0.0","platform":{"app_id":359289,"app_source":"cc","app_version":"2.8.0","device_id":"948936faa69a32cbf7095a7bf5dab939","hard_disk_id":"93001c50a9ec2d9fd313763f629744d1","mac_address":"ec6c2a1c0eb2e0944f012b4bbe77b8d6","os":"mac","os_version":"14.1.1"},"relationships":[],"render_index_track_mode_on":true,"retouch_cover":null,"source":"default","static_cover_image_path":"","tracks":[{"attribute":0,"flag":0,"id":"36203A93-46DF-4336-A917-30854C23310E","is_default_name":true,"name":"","segments":[],"type":"video"},{"attribute":0,"flag":2,"id":"767E131F-04F5-4F49-82FC-27BD3B1A8512","is_default_name":true,"name":"","segments":[{"cartoon":false,"clip":{"alpha":1.0,"flip":{"horizontal":false,"vertical":false},"rotation":0.0,"scale":{"x":1.0,"y":1.0},"transform":{"x":0.0,"y":0.0}},"common_keyframes":[],"enable_adjust":true,"enable_color_curves":true,"enable_color_match_adjust":false,"enable_color_wheels":true,"enable_lut":true,"enable_smart_color_adjust":false,"extra_material_refs":["A89C02EF-6047-442F-A5BA-26146C47A925","A898CCC8-3B09-40F9-B1A3-1934B1295491","4D527B12-5DC7-4C10-9277-CFF779165EE4","6A67C121-F95A-4725-A27F-6C96544CF404","7C083D77-CCB7-463D-86D5-B4E9395517F9","A7900216-AF90-4C97-AA02-8733A49FA066"],"group_id":"","hdr_settings":{"intensity":1.0,"mode":1,"nits":1000},"id":"0E438452-1D42-4E4D-8CF3-A45CDCC8FC5C","intensifies_audio":false,"is_placeholder":false,"is_tone_modify":false,"keyframe_refs":[],"last_nonzero_volume":1.0,"material_id":"C9B0624C-34B6-42E5-92F1-7FCE1AAD1379","render_index":4,"responsive_layout":{"enable":false,"horizontal_pos_layout":0,"size_layout":0,"target_follow":"","vertical_pos_layout":0},"reverse":false,"source_timerange":{"duration":22050000,"start":0},"speed":1.0,"target_timerange":{"duration":22050000,"start":41616666},"template_id":"","template_scene":"default","track_attribute":0,"track_render_index":1,"uniform_scale":{"on":true,"value":1.0},"visible":true,"volume":1.0}],"type":"video"},{"attribute":0,"flag":2,"id":"E8BC9A6B-A6EB-48DA-A089-4ED642E61A5C","is_default_name":true,"name":"","segments":[{"cartoon":false,"clip":{"alpha":1.0,"flip":{"horizontal":false,"vertical":false},"rotation":0.0,"scale":{"x":1.5,"y":1.5},"transform":{"x":0.0,"y":0.0}},"common_keyframes":[],"enable_adjust":true,"enable_color_curves":true,"enable_color_match_adjust":false,"enable_color_wheels":true,"enable_lut":true,"enable_smart_color_adjust":false,"extra_material_refs":["A402C6D3-8676-4A20-9BE1-B8226A057754","C2628AC0-5029-4F3F-8DF9-072BF52A4DE3","0A69D7D6-F53A-4DCD-B3DA-4F050A5E3560","8094A449-6D91-492E-9D8F-6EF38B1B30DD","9067619B-0551-41FA-9041-FF5FBF60DCAC"],"group_id":"","hdr_settings":{"intensity":1.0,"mode":1,"nits":1000},"id":"6A964E0A-E90A-4BB5-A04D-A7FDA3BDBDE8","intensifies_audio":false,"is_placeholder":false,"is_tone_modify":false,"keyframe_refs":[],"last_nonzero_volume":1.0,"material_id":"CAB7DB53-0C88-437C-B44B-622DBA58F9A0","render_index":11,"responsive_layout":{"enable":false,"horizontal_pos_layout":0,"size_layout":0,"target_follow":"","vertical_pos_layout":0},"reverse":false,"source_timerange":{"duration":7750000,"start":53566666},"speed":1.0,"target_timerange":{"duration":7750000,"start":109016666},"template_id":"","template_scene":"default","track_attribute":0,"track_render_index":2,"uniform_scale":{"on":true,"value":1.0},"visible":true,"volume":1.0}],"type":"video"},{"attribute":0,"flag":2,"id":"48A1D162-78C7-468E-A1D2-B98433A2AEA0","is_default_name":true,"name":"","segments":[{"cartoon":false,"clip":{"alpha":1.0,"flip":{"horizontal":false,"vertical":false},"rotation":0.0,"scale":{"x":1.0,"y":1.0},"transform":{"x":0.0,"y":0.0}},"common_keyframes":[{"id":"67319C2D-28D7-400C-A2F4-F0F6AD046234","keyframe_list":[{"curveType":"Line","graphID":"","id":"72C434AE-7247-48E1-A53E-07414869912E","left_control":{"x":0.0,"y":0.0},"right_control":{"x":0.0,"y":0.0},"time_offset":16133333,"values":[1.0]},{"curveType":"Line","graphID":"","id":"183B8B70-744D-418F-8FCD-849CD703AA37","left_control":{"x":0.0,"y":0.0},"right_control":{"x":0.0,"y":0.0},"time_offset":16200000,"values":[1.5848932266235352]},{"curveType":"Line","graphID":"","id":"778227F8-C545-41C3-9F96-A8EEA0A83DCF","left_control":{"x":0.0,"y":0.0},"right_control":{"x":0.0,"y":0.0},"time_offset":21400000,"values":[1.5848932266235352]}],"material_id":"","property_type":"KFTypeVolume"}],"enable_adjust":true,"enable_color_curves":true,"enable_color_match_adjust":false,"enable_color_wheels":true,"enable_lut":true,"enable_smart_color_adjust":false,"extra_material_refs":["0451EC58-61C3-47BF-A035-A8C3D63B4457","32719438-EF51-40F7-9FD6-D22A5AA09A05","61A5E704-93B6-4E51-A759-50A21860C2BB","E74AFC72-564B-4815-9144-0DA3A005EA54","DA7E6FB3-150C-451A-A488-FA5CC69D0088","23C0CC66-4E83-473F-917B-CDC1F7735FB6"],"group_id":"","hdr_settings":{"intensity":1.0,"mode":1,"nits":1000},"id":"2DFE3814-FA74-4338-888B-E19CFBE27075","intensifies_audio":false,"is_placeholder":false,"is_tone_modify":false,"keyframe_refs":[],"last_nonzero_volume":1.5848932266235352,"material_id":"DDBFEE57-087A-435F-8A91-962C314A0DF3","render_index":22,"responsive_layout":{"enable":false,"horizontal_pos_layout":0,"size_layout":0,"target_follow":"","vertical_pos_layout":0},"reverse":false,"source_timerange":{"duration":22400000,"start":0},"speed":1.0,"target_timerange":{"duration":22400000,"start":87200000},"template_id":"","template_scene":"default","track_attribute":0,"track_render_index":3,"uniform_scale":{"on":true,"value":1.0},"visible":true,"volume":1.5848932266235352},{"cartoon":false,"clip":{"alpha":1.0,"flip":{"horizontal":false,"vertical":false},"rotation":0.0,"scale":{"x":1.0,"y":1.0},"transform":{"x":0.0,"y":0.0}},"common_keyframes":[],"enable_adjust":true,"enable_color_curves":true,"enable_color_match_adjust":false,"enable_color_wheels":true,"enable_lut":true,"enable_smart_color_adjust":false,"extra_material_refs":["BA1D2030-1B3F-44F2-BCF8-5E56E4D478D7","DEB29826-69E4-45D5-8E23-0E449E792609","2A0A13F8-6F4D-4D35-AEE3-478C6246C1D2","3F11F068-C1DF-4665-B52D-720E6666AD2F"],"group_id":"","hdr_settings":{"intensity":1.0,"mode":1,"nits":1000},"id":"E90F42FC-B57B-4BCD-AF63-3726D859DF65","intensifies_audio":false,"is_placeholder":false,"is_tone_modify":false,"keyframe_refs":[],"last_nonzero_volume":1.0,"material_id":"B7BB1C25-09AE-4F2A-A476-BF663BB2C4A4","render_index":6,"responsive_layout":{"enable":false,"horizontal_pos_layout":0,"size_layout":0,"target_follow":"","vertical_pos_layout":0},"reverse":false,"source_timerange":{"duration":5000000,"start":0},"speed":1.0,"target_timerange":{"duration":5000000,"start":125166666},"template_id":"","template_scene":"default","track_attribute":0,"track_render_index":3,"uniform_scale":{"on":true,"value":1.0},"visible":true,"volume":1.0},{"cartoon":false,"clip":{"alpha":1.0,"flip":{"horizontal":false,"vertical":false},"rotation":0.0,"scale":{"x":1.0,"y":1.0},"transform":{"x":0.0,"y":0.0}},"common_keyframes":[],"enable_adjust":true,"enable_color_curves":true,"enable_color_match_adjust":false,"enable_color_wheels":true,"enable_lut":true,"enable_smart_color_adjust":false,"extra_material_refs":["9E33E160-38DD-44D7-8C5D-6B59E9427DFE","E380D915-85A3-4D76-B0F0-96E872B3E3B4","0CABD900-90DC-4658-8357-482AA7B10801","6845FC3D-C37F-4BF4-B9EC-08940CCB9119","2E404487-5290-414B-911A-B252DBB329C4"],"group_id":"","hdr_settings":{"intensity":1.0,"mode":1,"nits":1000},"id":"D5FD5B28-5069-4CBD-9734-9A0E83329B6B","intensifies_audio":false,"is_placeholder":false,"is_tone_modify":false,"keyframe_refs":[],"last_nonzero_volume":1.0,"material_id":"046D002C-A6B9-464F-93B0-E98BBEA28EA3","render_index":2,"responsive_layout":{"enable":false,"horizontal_pos_layout":0,"size_layout":0,"target_follow":"","vertical_pos_layout":0},"reverse":false,"source_timerange":{"duration":3016666,"start":0},"speed":1.0,"target_timerange":{"duration":3016666,"start":147300000},"template_id":"","template_scene":"default","track_attribute":0,"track_render_index":3,"uniform_scale":{"on":true,"value":1.0},"visible":true,"volume":1.0}],"type":"video"},{"attribute":0,"flag":2,"id":"A8DB1001-2AE8-4ACB-9C8F-F5F08A15505B","is_default_name":true,"name":"","segments":[{"cartoon":false,"clip":{"alpha":0.0,"flip":{"horizontal":false,"vertical":false},"rotation":0.0,"scale":{"x":1.0,"y":1.0},"transform":{"x":0.0,"y":0.0}},"common_keyframes":[{"id":"F04D05E2-2420-4155-8959-6B45FDFC23BE","keyframe_list":[{"curveType":"Line","graphID":"","id":"B189B9EE-3FDE-4A9C-BFC3-D937E3698732","left_control":{"x":0.0,"y":0.0},"right_control":{"x":0.0,"y":0.0},"time_offset":0,"values":[0.0]},{"curveType":"Line","graphID":"","id":"1B37D2F1-3C23-43EF-AEDD-EFF25FB4BA93","left_control":{"x":0.0,"y":0.0},"right_control":{"x":0.0,"y":0.0},"time_offset":616666,"values":[1.0]},{"curveType":"Line","graphID":"","id":"E7B16024-CBAF-4BD5-8763-FE15A13B4167","left_control":{"x":0.0,"y":0.0},"right_control":{"x":0.0,"y":0.0},"time_offset":2383333,"values":[1.0]},{"curveType":"Line","graphID":"","id":"3AAFC6FA-3B7B-479F-A98B-F5535AD3ECC0","left_control":{"x":0.0,"y":0.0},"right_control":{"x":0.0,"y":0.0},"time_offset":2966666,"values":[0.0]}],"material_id":"","property_type":"KFTypeAlpha"}],"enable_adjust":true,"enable_color_curves":true,"enable_color_match_adjust":false,"enable_color_wheels":true,"enable_lut":true,"enable_smart_color_adjust":false,"extra_material_refs":["45C2CA5A-C7FD-4E9E-9B69-213BE8ADA9C6","7B35BAB5-534A-4302-BFFD-7AA6FDCC5005","82E1246F-10E3-4D46-9B24-1D51743EC1E1","C145EC2C-FF20-45D3-AC69-2E764B909F9B","1A2F088A-C2F9-4877-A1EE-4489253CF14C"],"group_id":"","hdr_settings":{"intensity":1.0,"mode":1,"nits":1000},"id":"315A4073-F1F6-40BA-A266-34C844F89BAC","intensifies_audio":false,"is_placeholder":false,"is_tone_modify":false,"keyframe_refs":[],"last_nonzero_volume":1.0,"material_id":"91ECCFD9-1258-46B0-B545-8E744CD078BE","render_index":3,"responsive_layout":{"enable":false,"horizontal_pos_layout":0,"size_layout":0,"target_follow":"","vertical_pos_layout":0},"reverse":false,"source_timerange":{"duration":3500000,"start":0},"speed":1.0,"target_timerange":{"duration":3500000,"start":0},"template_id":"","template_scene":"default","track_attribute":0,"track_render_index":4,"uniform_scale":{"on":true,"value":1.0},"visible":true,"volume":1.0},{"cartoon":false,"clip":{"alpha":1.0,"flip":{"horizontal":false,"vertical":false},"rotation":0.0,"scale":{"x":1.05,"y":1.05},"transform":{"x":0.0,"y":0.0}},"common_keyframes":[],"enable_adjust":true,"enable_color_curves":true,"enable_color_match_adjust":false,"enable_color_wheels":true,"enable_lut":true,"enable_smart_color_adjust":false,"extra_material_refs":["61BBF79F-E9A6-4DAB-A931-023F3A1C965B","7266B8F3-C7C5-4CFC-AFE5-0E83D323A134","B06B2092-7B33-49EB-B8E8-E30B96FE8494","A7620BC4-A295-443F-8762-8D09368B9595","5790FBA9-886C-4E33-930C-23327E333B19"],"group_id":"","hdr_settings":{"intensity":1.0,"mode":1,"nits":1000},"id":"F31A7FE8-B0CF-452B-8AC1-8210866901C9","intensifies_audio":false,"is_placeholder":false,"is_tone_modify":false,"keyframe_refs":[],"last_nonzero_volume":1.0,"material_id":"291DFFE4-3021-411D-8D28-4682207A1172","render_index":3,"responsive_layout":{"enable":false,"horizontal_pos_layout":0,"size_layout":0,"target_follow":"","vertical_pos_layout":0},"reverse":false,"source_timerange":{"duration":4733333,"start":11501233333},"speed":1.0,"target_timerange":{"duration":4733333,"start":3500000},"template_id":"","template_scene":"default","track_attribute":0,"track_render_index":4,"uniform_scale":{"on":true,"value":1.0},"visible":true,"volume":1.0},{"cartoon":false,"clip":{"alpha":1.0,"flip":{"horizontal":false,"vertical":false},"rotation":0.0,"scale":{"x":1.05,"y":1.05},"transform":{"x":0.0,"y":0.0}},"common_keyframes":[],"enable_adjust":true,"enable_color_curves":true,"enable_color_match_adjust":false,"enable_color_wheels":true,"enable_lut":true,"enable_smart_color_adjust":false,"extra_material_refs":["31664384-A2A0-4085-A308-44E251C198D0","EDDCEEFE-B621-44FF-B639-0CD926675271","73060A37-23D4-4B9B-B0ED-32CED7848586","4D46A3F6-AA00-45B9-B539-AAC9E97EB58E","AB3E6026-10D6-49D8-91B0-4AF7EAF84E2D","A2FCBA6A-3955-4973-8039-C46BEDDABC9B"],"group_id":"","hdr_settings":{"intensity":1.0,"mode":1,"nits":1000},"id":"2D8DF35F-483A-4E44-9A4B-84A7DA9E49E7","intensifies_audio":false,"is_placeholder":false,"is_tone_modify":false,"keyframe_refs":[],"last_nonzero_volume":1.0,"material_id":"B21546DE-CC87-4D17-8F8F-1FD24E40D962","render_index":3,"responsive_layout":{"enable":false,"horizontal_pos_layout":0,"size_layout":0,"target_follow":"","vertical_pos_layout":0},"reverse":false,"source_timerange":{"duration":983333,"start":11508383333},"speed":1.0,"target_timerange":{"duration":983333,"start":8233333},"template_id":"","template_scene":"default","track_attribute":0,"track_render_index":4,"uniform_scale":{"on":true,"value":1.0},"visible":true,"volume":1.0},{"cartoon":false,"clip":{"alpha":1.0,"flip":{"horizontal":false,"vertical":false},"rotation":0.0,"scale":{"x":1.05,"y":1.05},"transform":{"x":0.0,"y":0.0}},"common_keyframes":[],"enable_adjust":true,"enable_color_curves":true,"enable_color_match_adjust":false,"enable_color_wheels":true,"enable_lut":true,"enable_smart_color_adjust":false,"extra_material_refs":["C5A8835B-3C3A-4443-AB75-D00F38848386","B0C8BFF6-6F91-4DAC-925A-BDBC61FB38C3","68603690-E47E-4C0C-B89C-3F2006834464","924B6142-3AE4-4212-AFE1-D6988360638E","A4BFC3AF-5BE9-4125-B94D-B3EFD70359FC","F985FCFF-2366-4B3F-839C-D60B6AA444C6","CEB2AD9F-ED5C-4E19-A989-7BC547C53493"],"group_id":"","hdr_settings":{"intensity":1.0,"mode":1,"nits":1000},"id":"7B2367B4-94A1-4961-96A9-74EBAC4513E9","intensifies_audio":false,"is_placeholder":false,"is_tone_modify":false,"keyframe_refs":[],"last_nonzero_volume":1.0,"material_id":"EFA6E058-4050-4E69-B1F8-CB997F2A24E4","render_index":3,"responsive_layout":{"enable":false,"horizontal_pos_layout":0,"size_layout":0,"target_follow":"","vertical_pos_layout":0},"reverse":false,"source_timerange":{"duration":733334,"start":11510266666},"speed":1.0,"target_timerange":{"duration":733334,"start":9216666},"template_id":"","template_scene":"default","track_attribute":0,"track_render_index":4,"uniform_scale":{"on":true,"value":1.0},"visible":true,"volume":1.0},{"cartoon":false,"clip":{"alpha":1.0,"flip":{"horizontal":false,"vertical":false},"rotation":0.0,"scale":{"x":1.0,"y":1.0},"transform":{"x":0.0,"y":0.0}},"common_keyframes":[],"enable_adjust":true,"enable_color_curves":true,"enable_color_match_adjust":false,"enable_color_wheels":true,"enable_lut":true,"enable_smart_color_adjust":false,"extra_material_refs":["ADB3FA96-6186-409D-8A6C-6F04DC18F719","754DE386-7B5F-45E6-8905-FE1F72A6D789","D49A0418-8A21-4611-A7E9-29AC1D7198E4","150247CD-2B49-4A2C-92F4-B3150CEE0AAC","838395B3-55E2-4DF1-935A-881A0AF22017","A932EC7D-7133-4C05-83DF-181F1D11C1C5","F0D7A904-06D5-4041-8F47-22D797B1F921","47203EEE-A787-4FF5-8FA2-A324ACEDDDC3","019017F5-89F1-4598-BE34-983A736D2888","9AB0C7DA-D73A-458A-870F-102F8BA116B0"],"group_id":"","hdr_settings":{"intensity":1.0,"mode":1,"nits":1000},"id":"82412437-A27C-4803-AE48-C8B992453C47","intensifies_audio":false,"is_placeholder":false,"is_tone_modify":false,"keyframe_refs":[],"last_nonzero_volume":1.9952623844146729,"material_id":"1CAE1BCA-73E4-4505-8A7A-297FF9860911","render_index":3,"responsive_layout":{"enable":false,"horizontal_pos_layout":0,"size_layout":0,"target_follow":"","vertical_pos_layout":0},"reverse":false,"source_timerange":{"duration":8283540,"start":0},"speed":1.1,"target_timerange":{"duration":7533333,"start":9950000},"template_id":"","template_scene":"default","track_attribute":0,"track_render_index":4,"uniform_scale":{"on":true,"value":1.0},"visible":true,"volume":1.9952623844146729},{"cartoon":false,"clip":{"alpha":1.0,"flip":{"horizontal":false,"vertical":false},"rotation":0.0,"scale":{"x":1.0,"y":1.0},"transform":{"x":0.0,"y":0.0}},"common_keyframes":[],"enable_adjust":true,"enable_color_curves":true,"enable_color_match_adjust":false,"enable_color_wheels":true,"enable_lut":true,"enable_smart_color_adjust":false,"extra_material_refs":["0E816D5E-3BF4-4473-8F1F-C246534B4F73","C01E1430-5F6D-4089-AA66-45DE58C7C181","6C7F781C-84F9-47C4-870C-A1BD969D20FB","739B211F-F976-473B-A8CA-B115D1864D54","408D304B-B301-49CD-BDE2-AB50F957C34F","1CA5B878-7D5D-4CC5-A508-DF2D34D20EE0"],"group_id":"","hdr_settings":{"intensity":1.0,"mode":1,"nits":1000},"id":"39529119-B310-4C01-A9D0-8C19456D14EA","intensifies_audio":false,"is_placeholder":false,"is_tone_modify":false,"keyframe_refs":[],"last_nonzero_volume":1.0,"material_id":"54432DC6-D527-4C28-A724-291101712C72","render_index":1,"responsive_layout":{"enable":false,"horizontal_pos_layout":0,"size_layout":0,"target_follow":"","vertical_pos_layout":0},"reverse":false,"source_timerange":{"duration":10533333,"start":0},"speed":1.0,"target_timerange":{"duration":10533333,"start":17483333},"template_id":"","template_scene":"default","track_attribute":0,"track_render_index":4,"uniform_scale":{"on":true,"value":1.0},"visible":true,"volume":1.0},{"cartoon":false,"clip":{"alpha":1.0,"flip":{"horizontal":false,"vertical":false},"rotation":0.0,"scale":{"x":1.0,"y":1.0},"transform":{"x":0.0,"y":0.0}},"common_keyframes":[],"enable_adjust":true,"enable_color_curves":true,"enable_color_match_adjust":false,"enable_color_wheels":true,"enable_lut":true,"enable_smart_color_adjust":false,"extra_material_refs":["25EB9ADA-8198-4980-B725-8B189EDD440C","93C78CA3-6314-42D5-9CC8-1C434C7DEE94","E7DA1D3D-F795-4F70-AE1E-90A8A40597EC","746D1AA2-A43A-4067-88BC-592F2D619A53","12980A20-1485-4059-B3A4-BB47EE441E6F","4FECBAA3-ACDE-4996-AE8D-771BBB91E4E9","8037F700-E219-4019-8EE4-BC410D7F4DF4"],"group_id":"","hdr_settings":{"intensity":1.0,"mode":1,"nits":1000},"id":"03548BB0-4DC6-4DCC-9B35-691D66B8C4A4","intensifies_audio":false,"is_placeholder":false,"is_tone_modify":false,"keyframe_refs":[],"last_nonzero_volume":2.818382740020752,"material_id":"B9E203F2-31EE-4787-A73A-B891E6FC9B77","render_index":3,"responsive_layout":{"enable":false,"horizontal_pos_layout":0,"size_layout":0,"target_follow":"","vertical_pos_layout":0},"reverse":false,"source_timerange":{"duration":8183334,"start":27816666},"speed":1.0,"target_timerange":{"duration":8183334,"start":28016666},"template_id":"","template_scene":"default","track_attribute":0,"track_render_index":4,"uniform_scale":{"on":true,"value":1.0},"visible":true,"volume":2.818382740020752},{"cartoon":false,"clip":{"alpha":1.0,"flip":{"horizontal":false,"vertical":false},"rotation":0.0,"scale":{"x":1.05,"y":1.05},"transform":{"x":0.0,"y":0.0}},"common_keyframes":[],"enable_adjust":true,"enable_color_curves":true,"enable_color_match_adjust":false,"enable_color_wheels":true,"enable_lut":true,"enable_smart_color_adjust":false,"extra_material_refs":["2E597A85-E9B2-4C93-9FDC-22165E0C46C2","7C973957-A434-4B09-98E7-FE59852DCF98","BAEC5E28-600C-4D46-A0C5-DB0D7CABD94D","FC85EC39-0E51-4368-91E1-7E892A172813","8E4E1DE6-BC31-45C4-AB39-EF96025F1D08"],"group_id":"","hdr_settings":{"intensity":1.0,"mode":1,"nits":1000},"id":"F3139ABA-A41A-4F78-962E-048205A697FD","intensifies_audio":false,"is_placeholder":false,"is_tone_modify":false,"keyframe_refs":[],"last_nonzero_volume":1.0,"material_id":"4A698A04-2B8E-49B9-AC58-1CE68CEF4522","render_index":3,"responsive_layout":{"enable":false,"horizontal_pos_layout":0,"size_layout":0,"target_follow":"","vertical_pos_layout":0},"reverse":false,"source_timerange":{"duration":4283334,"start":11885016666},"speed":1.0,"target_timerange":{"duration":4283333,"start":36200000},"template_id":"","template_scene":"default","track_attribute":0,"track_render_index":4,"uniform_scale":{"on":true,"value":1.0},"visible":true,"volume":1.0},{"cartoon":false,"clip":{"alpha":1.0,"flip":{"horizontal":false,"vertical":false},"rotation":0.0,"scale":{"x":1.05,"y":1.05},"transform":{"x":0.0,"y":0.0}},"common_keyframes":[],"enable_adjust":true,"enable_color_curves":true,"enable_color_match_adjust":false,"enable_color_wheels":true,"enable_lut":true,"enable_smart_color_adjust":false,"extra_material_refs":["1F6C3514-58D8-4E4B-8D88-31D49DF3D67B","A38682EE-47E2-4176-A11B-122539143297","C0245B20-74E4-401A-A187-A0EE2167F1B7","A2513234-825B-452C-8DD0-6E347FD2BB87","BF189B3D-3252-402B-B744-EF5CB00190FF","B206713E-204F-4D7C-BF41-3DF1F4C33FF3"],"group_id":"","hdr_settings":{"intensity":1.0,"mode":1,"nits":1000},"id":"3767F0FB-FAF8-42C3-9F34-47A609F76A98","intensifies_audio":false,"is_placeholder":false,"is_tone_modify":false,"keyframe_refs":[],"last_nonzero_volume":1.0,"material_id":"4400D6C7-6714-47F9-8B07-4CB6A32A45BD","render_index":3,"responsive_layout":{"enable":false,"horizontal_pos_layout":0,"size_layout":0,"target_follow":"","vertical_pos_layout":0},"reverse":false,"source_timerange":{"duration":1133333,"start":11892150000},"speed":1.0,"target_timerange":{"duration":1133333,"start":40483333},"template_id":"","template_scene":"default","track_attribute":0,"track_render_index":4,"uniform_scale":{"on":true,"value":1.0},"visible":true,"volume":1.0},{"cartoon":false,"clip":{"alpha":1.0,"flip":{"horizontal":false,"vertical":false},"rotation":0.0,"scale":{"x":1.0,"y":1.0},"transform":{"x":0.0,"y":0.0}},"common_keyframes":[],"enable_adjust":true,"enable_color_curves":true,"enable_color_match_adjust":false,"enable_color_wheels":true,"enable_lut":true,"enable_smart_color_adjust":false,"extra_material_refs":["432A9F07-EB1F-428D-9C7F-041135730E40","E5D1D66B-C22B-4492-B58C-EEB27ED5F57C","1BE425B6-FC25-4E4A-9C17-F2A1AE252DFF","06021585-7EFB-45A1-905B-C3B8AF7868D0","D937D49D-065E-4D7E-A077-C85EC1FC14BB","16018714-C41B-4429-9C7D-8EC2355309AD","AFB68B4F-554E-492A-9830-0D6ADC061BDD","69B1C57F-EA4D-4DF3-B2A1-78C564A49438","3209DC2C-C303-4C28-823F-A267CDAFC931","9E13D68E-BBEA-4846-908C-623BD6D160B7"],"group_id":"","hdr_settings":{"intensity":1.0,"mode":1,"nits":1000},"id":"3B48FCE2-8AAF-4F3E-8F0D-5BE46123D725","intensifies_audio":false,"is_placeholder":false,"is_tone_modify":false,"keyframe_refs":[],"last_nonzero_volume":2.2387211322784424,"material_id":"1B108105-9473-4297-97DC-86B68BC1E86D","render_index":3,"responsive_layout":{"enable":false,"horizontal_pos_layout":0,"size_layout":0,"target_follow":"","vertical_pos_layout":0},"reverse":false,"source_timerange":{"duration":18033333,"start":0},"speed":1.0,"target_timerange":{"duration":18033334,"start":41616666},"template_id":"","template_scene":"default","track_attribute":0,"track_render_index":4,"uniform_scale":{"on":true,"value":1.0},"visible":true,"volume":2.2387211322784424},{"cartoon":false,"clip":{"alpha":1.0,"flip":{"horizontal":false,"vertical":false},"rotation":0.0,"scale":{"x":1.0,"y":1.0},"transform":{"x":0.0,"y":0.0}},"common_keyframes":[],"enable_adjust":true,"enable_color_curves":true,"enable_color_match_adjust":false,"enable_color_wheels":true,"enable_lut":true,"enable_smart_color_adjust":false,"extra_material_refs":["861DB843-F28F-4B6C-AAE0-AC1CB8B938F5","F9955DBF-5BD0-4599-A00B-11C63C9E66F8","BCC2FBE0-8D50-498F-AD49-568018661AC1","D9394FE1-B629-4B9A-9EB5-6F976EE3DA86","60358B13-D361-4FD7-8A17-1D20A1ADF730","81BD9B89-202C-4C4D-AE15-1E41DC16676F"],"group_id":"","hdr_settings":{"intensity":1.0,"mode":1,"nits":1000},"id":"991BF1DA-A206-4570-B2BF-4AFC29BFA5A5","intensifies_audio":false,"is_placeholder":false,"is_tone_modify":false,"keyframe_refs":[],"last_nonzero_volume":1.0,"material_id":"99EE212B-03A6-4E8F-8A06-62DE04E9C98B","render_index":3,"responsive_layout":{"enable":false,"horizontal_pos_layout":0,"size_layout":0,"target_follow":"","vertical_pos_layout":0},"reverse":false,"source_timerange":{"duration":1416666,"start":0},"speed":1.0,"target_timerange":{"duration":1416666,"start":59650000},"template_id":"","template_scene":"default","track_attribute":0,"track_render_index":4,"uniform_scale":{"on":true,"value":1.0},"visible":true,"volume":1.0},{"cartoon":false,"clip":{"alpha":1.0,"flip":{"horizontal":false,"vertical":false},"rotation":0.0,"scale":{"x":1.0,"y":1.0},"transform":{"x":0.0,"y":0.0}},"common_keyframes":[],"enable_adjust":true,"enable_color_curves":true,"enable_color_match_adjust":false,"enable_color_wheels":true,"enable_lut":true,"enable_smart_color_adjust":false,"extra_material_refs":["0EC9DC53-C8B6-446E-B17F-EDD5293162B1","CB848796-1CC0-4B44-968C-04C3466D86A8","FD7A1DC9-5425-464E-8730-5847A96A21F8","EDEB6B6E-EC39-4652-9676-9878060EF7A1","1852E61F-56ED-4211-9ACE-A2EB604421BB","C20F20AF-ACD2-441D-82D0-73F0109CCEFC","00CC9894-8107-4E94-AB60-CC76A9FD42C9"],"group_id":"","hdr_settings":{"intensity":1.0,"mode":1,"nits":1000},"id":"C2A56390-0764-43B9-806F-8BCA648FD1C6","intensifies_audio":false,"is_placeholder":false,"is_tone_modify":false,"keyframe_refs":[],"last_nonzero_volume":1.258925437927246,"material_id":"E94D5759-83E8-46E1-9148-A0E524F5B6D0","render_index":2,"responsive_layout":{"enable":false,"horizontal_pos_layout":0,"size_layout":0,"target_follow":"","vertical_pos_layout":0},"reverse":false,"source_timerange":{"duration":4716666,"start":0},"speed":1.0,"target_timerange":{"duration":4716667,"start":61066666},"template_id":"","template_scene":"default","track_attribute":0,"track_render_index":4,"uniform_scale":{"on":true,"value":1.0},"visible":true,"volume":1.258925437927246},{"cartoon":false,"clip":{"alpha":1.0,"flip":{"horizontal":false,"vertical":false},"rotation":0.0,"scale":{"x":1.0,"y":1.0},"transform":{"x":0.0,"y":0.0}},"common_keyframes":[],"enable_adjust":true,"enable_color_curves":true,"enable_color_match_adjust":false,"enable_color_wheels":true,"enable_lut":true,"enable_smart_color_adjust":false,"extra_material_refs":["1BB77299-62C6-4A4D-A72D-D4B271F2FE29","0509088E-769F-4349-BCC1-F05933E4DF78","96CC84AC-6729-4E64-820F-D5705ACFBBF6","D6A88D3A-8F7E-4AE1-AD9A-44EA82FF335B","07DB1C49-F56D-4CD0-A34F-A092948C3596","46D92698-5A9A-4027-B926-D287A13C51A3","0CD7C175-93CB-4C8F-927D-DB1FCBD637E3","DB9F1417-5DB4-4992-9810-F248A42837BC","19B596A1-6C4A-4FB7-B6C2-C78056EF6CBA"],"group_id":"","hdr_settings":{"intensity":1.0,"mode":1,"nits":1000},"id":"08782EA8-51D2-4A80-AE05-AEFB3060ADBB","intensifies_audio":false,"is_placeholder":false,"is_tone_modify":false,"keyframe_refs":[],"last_nonzero_volume":1.258925437927246,"material_id":"983E8CD6-D4EA-472D-86A2-1EB6675C3EDD","render_index":2,"responsive_layout":{"enable":false,"horizontal_pos_layout":0,"size_layout":0,"target_follow":"","vertical_pos_layout":0},"reverse":false,"source_timerange":{"duration":2300000,"start":4716666},"speed":1.0,"target_timerange":{"duration":2300000,"start":65783333},"template_id":"","template_scene":"default","track_attribute":0,"track_render_index":4,"uniform_scale":{"on":true,"value":1.0},"visible":true,"volume":1.258925437927246},{"cartoon":false,"clip":{"alpha":1.0,"flip":{"horizontal":false,"vertical":false},"rotation":0.0,"scale":{"x":1.0,"y":1.0},"transform":{"x":0.0,"y":0.0}},"common_keyframes":[],"enable_adjust":true,"enable_color_curves":true,"enable_color_match_adjust":false,"enable_color_wheels":true,"enable_lut":true,"enable_smart_color_adjust":false,"extra_material_refs":["3AA3C72E-DD28-4F86-B167-B35D68577B31","45D93504-A671-4E1C-B9BE-1306E517BFB2","DB8E53FF-DFAE-4AD3-A434-8AA4F4CCC06C","1E4D7783-02F9-47C7-AB87-96042D794362","517EFB2A-0C70-49EC-AAE1-C1A57661BAB4","0E701B0A-447A-4B64-9610-26BD99210D2E"],"group_id":"","hdr_settings":{"intensity":1.0,"mode":1,"nits":1000},"id":"53E9CBEB-7580-481A-8339-18F2DEE14C14","intensifies_audio":false,"is_placeholder":false,"is_tone_modify":false,"keyframe_refs":[],"last_nonzero_volume":1.0,"material_id":"D9A89095-2E30-4465-81F2-DA06FC942C97","render_index":2,"responsive_layout":{"enable":false,"horizontal_pos_layout":0,"size_layout":0,"target_follow":"","vertical_pos_layout":0},"reverse":false,"source_timerange":{"duration":9150000,"start":0},"speed":1.0,"target_timerange":{"duration":9150000,"start":68083333},"template_id":"","template_scene":"default","track_attribute":0,"track_render_index":4,"uniform_scale":{"on":true,"value":1.0},"visible":true,"volume":1.0},{"cartoon":false,"clip":{"alpha":1.0,"flip":{"horizontal":false,"vertical":false},"rotation":0.0,"scale":{"x":1.0,"y":1.0},"transform":{"x":0.0,"y":0.0}},"common_keyframes":[],"enable_adjust":true,"enable_color_curves":true,"enable_color_match_adjust":false,"enable_color_wheels":true,"enable_lut":true,"enable_smart_color_adjust":false,"extra_material_refs":["84426475-6270-4B62-ADBB-D5F50506224A","A0FF7145-757C-407F-A4D0-4F1390A3680E","775DAB8E-39A3-4792-A4A3-58C00659FC87","3AEA34E9-301E-4E07-B3D2-CD1679EB0E35","03214317-DB9D-42B3-91ED-A0B13C522828","464EE060-4E85-415C-A160-AC9EF1581A00"],"group_id":"","hdr_settings":{"intensity":1.0,"mode":1,"nits":1000},"id":"50F9E91D-69D0-4DE6-8047-87A20C9D4439","intensifies_audio":false,"is_placeholder":false,"is_tone_modify":false,"keyframe_refs":[],"last_nonzero_volume":1.258925437927246,"material_id":"D9C30D22-D40F-4E26-A4D6-1AA0551C4470","render_index":2,"responsive_layout":{"enable":false,"horizontal_pos_layout":0,"size_layout":0,"target_follow":"","vertical_pos_layout":0},"reverse":false,"source_timerange":{"duration":5516666,"start":9150000},"speed":1.0,"target_timerange":{"duration":5516667,"start":77233333},"template_id":"","template_scene":"default","track_attribute":0,"track_render_index":4,"uniform_scale":{"on":true,"value":1.0},"visible":true,"volume":1.258925437927246},{"cartoon":false,"clip":{"alpha":1.0,"flip":{"horizontal":false,"vertical":false},"rotation":0.0,"scale":{"x":1.0,"y":1.0},"transform":{"x":0.0,"y":0.0}},"common_keyframes":[],"enable_adjust":true,"enable_color_curves":true,"enable_color_match_adjust":false,"enable_color_wheels":true,"enable_lut":true,"enable_smart_color_adjust":false,"extra_material_refs":["3F7918C2-80F5-4613-ACF1-6A33FF59562B","FFCB59E9-44B4-43FB-8258-1922EC0338C3","D6B0D578-15D1-4FE7-AEAD-DD86C14ABDC7","9E5E2EC7-173C-4780-A1C7-1CDAB87C9FBF","FE15BEA3-5535-4DD3-ADEE-831CCF8B3D84","2A9ED222-C4B6-425D-A9A2-B6F90D7F07C2"],"group_id":"","hdr_settings":{"intensity":1.0,"mode":1,"nits":1000},"id":"4AF4384D-4E78-4F43-AD14-C556D4BE0675","intensifies_audio":false,"is_placeholder":false,"is_tone_modify":false,"keyframe_refs":[],"last_nonzero_volume":1.4125375747680664,"material_id":"160DCAEE-34BD-4AC6-B822-9299E03628CD","render_index":2,"responsive_layout":{"enable":false,"horizontal_pos_layout":0,"size_layout":0,"target_follow":"","vertical_pos_layout":0},"reverse":false,"source_timerange":{"duration":4450000,"start":14666666},"speed":1.0,"target_timerange":{"duration":4450000,"start":82750000},"template_id":"","template_scene":"default","track_attribute":0,"track_render_index":4,"uniform_scale":{"on":true,"value":1.0},"visible":true,"volume":1.4125375747680664},{"cartoon":false,"clip":{"alpha":1.0,"flip":{"horizontal":false,"vertical":false},"rotation":0.0,"scale":{"x":1.05,"y":1.05},"transform":{"x":0.0,"y":0.0}},"common_keyframes":[],"enable_adjust":true,"enable_color_curves":true,"enable_color_match_adjust":false,"enable_color_wheels":true,"enable_lut":true,"enable_smart_color_adjust":false,"extra_material_refs":["7D1E0BE3-8DA6-4CEA-9504-2E822084F38B","A20E9ADE-D85D-4B52-B5DE-274EC6B58ABF","0233B45A-40AC-4D8F-8108-3D1B98250BE1","F622F70F-41B1-4744-B488-C6964881D7CA","36BA5EBB-38CF-4FAD-A81D-72F58B08114F"],"group_id":"","hdr_settings":{"intensity":1.0,"mode":1,"nits":1000},"id":"E17E5765-A3F7-4307-B8D1-7CA17E991583","intensifies_audio":false,"is_placeholder":false,"is_tone_modify":false,"keyframe_refs":[],"last_nonzero_volume":1.0,"material_id":"2A5BB24F-9255-4F2E-BE4C-EE82B537F283","render_index":9,"responsive_layout":{"enable":false,"horizontal_pos_layout":0,"size_layout":0,"target_follow":"","vertical_pos_layout":0},"reverse":false,"source_timerange":{"duration":13116666,"start":12688950000},"speed":1.0,"target_timerange":{"duration":13116666,"start":87200000},"template_id":"","template_scene":"default","track_attribute":0,"track_render_index":4,"uniform_scale":{"on":true,"value":1.0},"visible":true,"volume":1.0},{"cartoon":false,"clip":{"alpha":1.0,"flip":{"horizontal":false,"vertical":false},"rotation":0.0,"scale":{"x":1.0,"y":1.0},"transform":{"x":0.0,"y":0.0}},"common_keyframes":[],"enable_adjust":true,"enable_color_curves":true,"enable_color_match_adjust":false,"enable_color_wheels":true,"enable_lut":true,"enable_smart_color_adjust":false,"extra_material_refs":["155B3CD0-388C-475A-9076-0EDD3604108A","33DE8819-E9E7-4E39-959E-99EA3ADABC0C","9425FA34-265F-4849-9DC7-4A085921E40D","06E64225-3BB2-4DA5-AE27-69BD63219339","7CFFFD89-A4C2-4C82-BA18-8E8B5B6F5128","F7DE9880-1416-4543-A138-925ADF9A2CE6"],"group_id":"","hdr_settings":{"intensity":1.0,"mode":1,"nits":1000},"id":"C7C4C99F-FF18-42DE-9FBC-1BFE6786651C","intensifies_audio":false,"is_placeholder":false,"is_tone_modify":false,"keyframe_refs":[],"last_nonzero_volume":1.0,"material_id":"8CFA0DAB-9B04-441C-B83A-0ECE933BE7EA","render_index":8,"responsive_layout":{"enable":false,"horizontal_pos_layout":0,"size_layout":0,"target_follow":"","vertical_pos_layout":0},"reverse":false,"source_timerange":{"duration":4250000,"start":0},"speed":1.0,"target_timerange":{"duration":4250000,"start":100316666},"template_id":"","template_scene":"default","track_attribute":0,"track_render_index":4,"uniform_scale":{"on":true,"value":1.0},"visible":true,"volume":1.0},{"cartoon":false,"clip":{"alpha":1.0,"flip":{"horizontal":false,"vertical":false},"rotation":0.0,"scale":{"x":1.05,"y":1.05},"transform":{"x":0.0,"y":0.0}},"common_keyframes":[],"enable_adjust":true,"enable_color_curves":true,"enable_color_match_adjust":false,"enable_color_wheels":true,"enable_lut":true,"enable_smart_color_adjust":false,"extra_material_refs":["208BE34C-2DCA-4A6E-B866-FAB143F21169","7DE55FCD-578B-4344-AEF9-D43D9FD1306B","8FE3A9EB-1768-4D79-96CA-19976FB5DB04","D0C5CDEC-8187-46D2-89FD-E0D057274EBD","2D531F8E-12C4-484E-9A59-BCBC487A08D2"],"group_id":"","hdr_settings":{"intensity":1.0,"mode":1,"nits":1000},"id":"FB1C37EC-55FE-4102-B420-C445959F8BAB","intensifies_audio":false,"is_placeholder":false,"is_tone_modify":false,"keyframe_refs":[],"last_nonzero_volume":1.0,"material_id":"974DFAE2-A9C9-4254-9CB9-2049830F3F3E","render_index":15,"responsive_layout":{"enable":false,"horizontal_pos_layout":0,"size_layout":0,"target_follow":"","vertical_pos_layout":0},"reverse":false,"source_timerange":{"duration":4450000,"start":9308766666},"speed":1.0,"target_timerange":{"duration":4450000,"start":104566666},"template_id":"","template_scene":"default","track_attribute":0,"track_render_index":4,"uniform_scale":{"on":true,"value":1.0},"visible":true,"volume":1.0},{"cartoon":false,"clip":{"alpha":0.3,"flip":{"horizontal":false,"vertical":false},"rotation":0.0,"scale":{"x":1.0,"y":1.0},"transform":{"x":0.0,"y":0.0}},"common_keyframes":[{"id":"FB832CE2-ED9E-45DD-9822-D84C3DC676C1","keyframe_list":[{"curveType":"Line","graphID":"","id":"FDFAF09E-4721-4C1D-9BD1-E67303E45B10","left_control":{"x":0.0,"y":0.0},"right_control":{"x":0.0,"y":0.0},"time_offset":3213333,"values":[1.0]},{"curveType":"Line","graphID":"","id":"D45070E2-C6DF-4939-99A6-744F2C4EB341","left_control":{"x":0.0,"y":0.0},"right_control":{"x":0.0,"y":0.0},"time_offset":4973333,"values":[0.4]},{"curveType":"Line","graphID":"","id":"013CDEB5-1585-4BD3-9231-4D42B5AE09A7","left_control":{"x":0.0,"y":0.0},"right_control":{"x":0.0,"y":0.0},"time_offset":6133332,"values":[0.3]}],"material_id":"","property_type":"KFTypeAlpha"}],"enable_adjust":true,"enable_color_curves":true,"enable_color_match_adjust":false,"enable_color_wheels":true,"enable_lut":true,"enable_smart_color_adjust":false,"extra_material_refs":["F333854A-60F4-49D9-8357-9602191D6830","F746C2C9-4D33-4FA0-9A32-A19376556C8F","E89F9F43-2C19-4B86-B57E-C925AD5B8086","076D742C-52FC-4475-B794-2797F231063D","FAC49708-1895-47E3-B492-A4A3C9D8393E","58DB22FF-9497-4191-A634-46F1A20F08B2"],"group_id":"","hdr_settings":{"intensity":1.0,"mode":1,"nits":1000},"id":"0E316509-CF3A-4919-A5A1-3E515C13E024","intensifies_audio":false,"is_placeholder":false,"is_tone_modify":false,"keyframe_refs":[],"last_nonzero_volume":1.0,"material_id":"B9533789-44E3-4F0D-8463-EDD595116C46","render_index":5,"responsive_layout":{"enable":false,"horizontal_pos_layout":0,"size_layout":0,"target_follow":"","vertical_pos_layout":0},"reverse":false,"source_timerange":{"duration":4696664,"start":1433333},"speed":1.2000000000000002,"target_timerange":{"duration":3916667,"start":109016666},"template_id":"","template_scene":"default","track_attribute":0,"track_render_index":4,"uniform_scale":{"on":true,"value":1.0},"visible":true,"volume":1.0},{"cartoon":false,"clip":{"alpha":0.5,"flip":{"horizontal":false,"vertical":false},"rotation":0.0,"scale":{"x":1.0,"y":1.0},"transform":{"x":0.0,"y":0.0}},"common_keyframes":[],"enable_adjust":true,"enable_color_curves":true,"enable_color_match_adjust":false,"enable_color_wheels":true,"enable_lut":true,"enable_smart_color_adjust":false,"extra_material_refs":["087C00F5-F9BF-4257-9FEE-65D319EE7999","DFD58D54-E173-45A0-925A-C7AC6E0DF9CD","2A70B25B-9EF7-48E4-A970-B0C7F9367BDE","4A81A352-BC43-4C39-8F2A-6C479F1C9811","AB110FA8-FA8D-4490-B5C5-EF84E7EA1F29"],"group_id":"","hdr_settings":{"intensity":1.0,"mode":1,"nits":1000},"id":"B0819672-B66E-461E-B5EB-DF8A5FC6B9E2","intensifies_audio":false,"is_placeholder":false,"is_tone_modify":false,"keyframe_refs":[],"last_nonzero_volume":1.0,"material_id":"5A58546F-7383-4383-BFF7-A4B9F0AE6ABA","render_index":8,"responsive_layout":{"enable":false,"horizontal_pos_layout":0,"size_layout":0,"target_follow":"","vertical_pos_layout":0},"reverse":false,"source_timerange":{"duration":1533334,"start":67266666},"speed":1.0,"target_timerange":{"duration":1533333,"start":112933333},"template_id":"","template_scene":"default","track_attribute":0,"track_render_index":4,"uniform_scale":{"on":true,"value":1.0},"visible":true,"volume":1.0},{"cartoon":false,"clip":{"alpha":1.0,"flip":{"horizontal":false,"vertical":false},"rotation":0.0,"scale":{"x":1.05,"y":1.05},"transform":{"x":0.0,"y":0.0}},"common_keyframes":[{"id":"F6DE8C2A-D3A8-4DFA-A2D7-D1BE2ECF7BCD","keyframe_list":[{"curveType":"Line","graphID":"","id":"6037D029-A208-4ED9-B39A-D40340BFE3B4","left_control":{"x":0.0,"y":0.0},"right_control":{"x":0.0,"y":0.0},"time_offset":10826816666,"values":[0.5]},{"curveType":"Line","graphID":"","id":"059799DA-81D2-4B37-A55D-95318C4BBD82","left_control":{"x":0.0,"y":0.0},"right_control":{"x":0.0,"y":0.0},"time_offset":10827316666,"values":[1.0]}],"material_id":"","property_type":"KFTypeAlpha"}],"enable_adjust":true,"enable_color_curves":true,"enable_color_match_adjust":false,"enable_color_wheels":true,"enable_lut":true,"enable_smart_color_adjust":false,"extra_material_refs":["E137B2D7-526E-4239-B6F9-E987162FF493","92B57279-93AA-4982-A00B-C2002A555254","66C21CFE-26FF-498B-B562-71DBC4B0E118","50C09C37-D127-491C-8067-D96480C85BC3","239ED4BA-B3E1-4402-98E4-4206544C0516","C771C165-D477-4BD9-9AE8-5FCC45F0AC22"],"group_id":"","hdr_settings":{"intensity":1.0,"mode":1,"nits":1000},"id":"6E31AD0B-557E-48FB-A60D-2837F834E83D","intensifies_audio":false,"is_placeholder":false,"is_tone_modify":false,"keyframe_refs":[],"last_nonzero_volume":1.0,"material_id":"ED791CDE-915A-4388-96F5-E9987FF66089","render_index":5,"responsive_layout":{"enable":false,"horizontal_pos_layout":0,"size_layout":0,"target_follow":"","vertical_pos_layout":0},"reverse":false,"source_timerange":{"duration":3433334,"start":10826816666},"speed":0.9419477401020373,"target_timerange":{"duration":3650000,"start":114466666},"template_id":"","template_scene":"default","track_attribute":0,"track_render_index":4,"uniform_scale":{"on":true,"value":1.0},"visible":true,"volume":1.0},{"cartoon":false,"clip":{"alpha":1.0,"flip":{"horizontal":false,"vertical":false},"rotation":0.0,"scale":{"x":1.0,"y":1.0},"transform":{"x":0.0,"y":0.0}},"common_keyframes":[],"enable_adjust":true,"enable_color_curves":true,"enable_color_match_adjust":false,"enable_color_wheels":true,"enable_lut":true,"enable_smart_color_adjust":false,"extra_material_refs":["6E723857-03DB-46A2-94D8-925BB17AB3FE","0AF26F8A-FF85-45AC-B1C2-F0077EEACD22","84EACE05-AB6A-4F5D-8B48-5B8D5AD07021","8FFBB787-C3F2-46DE-9EEE-A57731B3AE7F","9B1B9C71-F83E-4442-9B6A-CC6320307B19","D0A69819-6ADD-460C-8B93-FF9AD6FABA16"],"group_id":"","hdr_settings":{"intensity":1.0,"mode":1,"nits":1000},"id":"52921D80-7AD8-4AD1-A06D-616C6CA38641","intensifies_audio":false,"is_placeholder":false,"is_tone_modify":false,"keyframe_refs":[],"last_nonzero_volume":1.0,"material_id":"8A08A66F-7174-4B56-ABFA-137D083791E1","render_index":8,"responsive_layout":{"enable":false,"horizontal_pos_layout":0,"size_layout":0,"target_follow":"","vertical_pos_layout":0},"reverse":false,"source_timerange":{"duration":2400000,"start":72766666},"speed":1.0,"target_timerange":{"duration":2400000,"start":118116666},"template_id":"","template_scene":"default","track_attribute":0,"track_render_index":4,"uniform_scale":{"on":true,"value":1.0},"visible":true,"volume":1.0},{"cartoon":false,"clip":{"alpha":1.0,"flip":{"horizontal":false,"vertical":false},"rotation":0.0,"scale":{"x":1.0,"y":1.0},"transform":{"x":0.0,"y":0.0}},"common_keyframes":[],"enable_adjust":true,"enable_color_curves":true,"enable_color_match_adjust":false,"enable_color_wheels":true,"enable_lut":true,"enable_smart_color_adjust":false,"extra_material_refs":["D1CE839E-05BF-4277-93EE-7DD3D428CC85","8BD399A2-B721-48C9-BE03-FF8754A48E80","414570E3-6714-4669-A5EE-B0F5AD0F40A3","0EA19287-8BEE-44EA-8D38-BBE66756B56A","BCECAC75-D53F-496E-A769-A17E91991B5A","39E45CA8-170E-4ECF-8083-2A35AA8DB8F0"],"group_id":"","hdr_settings":{"intensity":1.0,"mode":1,"nits":1000},"id":"08390A08-7750-47D4-9D60-CC7FF5F9BC8A","intensifies_audio":false,"is_placeholder":false,"is_tone_modify":false,"keyframe_refs":[],"last_nonzero_volume":1.0,"material_id":"5062E48B-E9E9-4FC7-BB34-A344AF634ABF","render_index":8,"responsive_layout":{"enable":false,"horizontal_pos_layout":0,"size_layout":0,"target_follow":"","vertical_pos_layout":0},"reverse":false,"source_timerange":{"duration":1516666,"start":20500000},"speed":1.0,"target_timerange":{"duration":1516667,"start":120516666},"template_id":"","template_scene":"default","track_attribute":0,"track_render_index":4,"uniform_scale":{"on":true,"value":1.0},"visible":true,"volume":1.0},{"cartoon":false,"clip":{"alpha":1.0,"flip":{"horizontal":false,"vertical":false},"rotation":0.0,"scale":{"x":1.0,"y":1.0},"transform":{"x":0.0,"y":0.0}},"common_keyframes":[],"enable_adjust":true,"enable_color_curves":true,"enable_color_match_adjust":false,"enable_color_wheels":true,"enable_lut":true,"enable_smart_color_adjust":false,"extra_material_refs":["51882E54-F9C8-4639-970E-E55DD696952D","EFE8D8DF-31A4-45B2-AAB9-CCC93DE2E14B","B0550369-1574-44FA-8823-4A264EF35D9D","1584D361-DB52-46B2-99EF-FB692D0556DE","57F746CA-8CEF-4D4E-B751-6E8FA254DE76","6DF462A0-4482-4CEF-B280-0EF750FE9B69"],"group_id":"","hdr_settings":{"intensity":1.0,"mode":1,"nits":1000},"id":"E9AFA3EE-D878-4E54-812F-CDF7E275DC0E","intensifies_audio":false,"is_placeholder":false,"is_tone_modify":false,"keyframe_refs":[],"last_nonzero_volume":1.0,"material_id":"F765921A-2593-4157-960C-9CF799EA115B","render_index":10,"responsive_layout":{"enable":false,"horizontal_pos_layout":0,"size_layout":0,"target_follow":"","vertical_pos_layout":0},"reverse":false,"source_timerange":{"duration":558334,"start":79174999},"speed":0.40000000000000013,"target_timerange":{"duration":1400000,"start":122033333},"template_id":"","template_scene":"default","track_attribute":0,"track_render_index":4,"uniform_scale":{"on":true,"value":1.0},"visible":true,"volume":1.0},{"cartoon":false,"clip":{"alpha":0.5,"flip":{"horizontal":false,"vertical":false},"rotation":0.0,"scale":{"x":1.0,"y":1.0},"transform":{"x":0.0,"y":0.0}},"common_keyframes":[{"id":"B0412CA5-7D4E-42F7-8894-6E3CFC1C646F","keyframe_list":[{"curveType":"Line","graphID":"","id":"3DD36F15-5B3C-4A87-8726-73E40F038D77","left_control":{"x":0.0,"y":0.0},"right_control":{"x":0.0,"y":0.0},"time_offset":84493282,"values":[1.0]},{"curveType":"Line","graphID":"","id":"0DCD8C4D-5773-4B1A-8DB4-F5F8E20C6A25","left_control":{"x":0.0,"y":0.0},"right_control":{"x":0.0,"y":0.0},"time_offset":85712133,"values":[0.5]},{"curveType":"Line","graphID":"","id":"C7D3EB86-68E2-454D-8D00-FE3AE3B354B3","left_control":{"x":0.0,"y":0.0},"right_control":{"x":0.0,"y":0.0},"time_offset":85933333,"values":[0.0]}],"material_id":"","property_type":"KFTypeAlpha"}],"enable_adjust":true,"enable_color_curves":true,"enable_color_match_adjust":false,"enable_color_wheels":true,"enable_lut":true,"enable_smart_color_adjust":false,"extra_material_refs":["8C0A9BF2-4449-425D-9F36-6D43220DD3E1","56E7A3EA-A5C8-4224-92A1-D7B2742E34F0","377EFCF4-AF38-4EA0-BA76-F0AF6D4A7294","8C823F3B-CCA1-4B08-89B1-752977935A33","AA28CB45-2DE8-44D3-8E83-7D23BBEE690A"],"group_id":"","hdr_settings":{"intensity":1.0,"mode":1,"nits":1000},"id":"67BC3EFF-1E5F-4567-A08E-05DD10750690","intensifies_audio":false,"is_placeholder":false,"is_tone_modify":false,"keyframe_refs":[],"last_nonzero_volume":1.0,"material_id":"5B201BFC-6F05-4861-BAA0-A69D75B49F5C","render_index":5,"responsive_layout":{"enable":false,"horizontal_pos_layout":0,"size_layout":0,"target_follow":"","vertical_pos_layout":0},"reverse":false,"source_timerange":{"duration":3433334,"start":82499999},"speed":0.8867630362836962,"target_timerange":{"duration":3883333,"start":123433333},"template_id":"","template_scene":"default","track_attribute":0,"track_render_index":4,"uniform_scale":{"on":true,"value":1.0},"visible":true,"volume":1.0},{"cartoon":false,"clip":{"alpha":0.0,"flip":{"horizontal":false,"vertical":false},"rotation":0.0,"scale":{"x":1.0,"y":1.0},"transform":{"x":0.0,"y":0.0}},"common_keyframes":[{"id":"378BD6B9-C73A-428B-95D4-D1921D838AD4","keyframe_list":[{"curveType":"Line","graphID":"","id":"AB61DC3B-F62B-46F8-B5F1-3F98D062A9E2","left_control":{"x":0.0,"y":0.0},"right_control":{"x":0.0,"y":0.0},"time_offset":24983333,"values":[0.0]},{"curveType":"Line","graphID":"","id":"1D44ED49-0065-41F1-8B80-397C1C4A3D19","left_control":{"x":0.0,"y":0.0},"right_control":{"x":0.0,"y":0.0},"time_offset":25612466,"values":[1.0]}],"material_id":"","property_type":"KFTypeAlpha"}],"enable_adjust":true,"enable_color_curves":true,"enable_color_match_adjust":false,"enable_color_wheels":true,"enable_lut":true,"enable_smart_color_adjust":false,"extra_material_refs":["3D599317-1E23-4DE8-90B8-5917A199609C","5C707CCB-A9FA-4B26-9EBC-2EA94D5228AD","F4AB695A-E8AF-4DC1-8D2B-6156FED59D29","A1005E91-8422-41AD-9C13-D00ABF94CC27","626855F4-79CF-476D-8D61-091BEB64DA18","4A250DF8-421B-4E6C-A1FE-21B681AD1D48"],"group_id":"","hdr_settings":{"intensity":1.0,"mode":1,"nits":1000},"id":"4215799F-9DBC-41DD-8DAA-8FCCFA45A16B","intensifies_audio":false,"is_placeholder":false,"is_tone_modify":false,"keyframe_refs":[],"last_nonzero_volume":1.0,"material_id":"7007A770-5418-4340-992C-A00BF27619D4","render_index":4,"responsive_layout":{"enable":false,"horizontal_pos_layout":0,"size_layout":0,"target_follow":"","vertical_pos_layout":0},"reverse":false,"source_timerange":{"duration":6839741,"start":24983333},"speed":0.8052202343748966,"target_timerange":{"duration":8500000,"start":127683333},"template_id":"","template_scene":"default","track_attribute":0,"track_render_index":4,"uniform_scale":{"on":true,"value":1.0},"visible":true,"volume":1.0},{"cartoon":false,"clip":{"alpha":1.0,"flip":{"horizontal":false,"vertical":false},"rotation":0.0,"scale":{"x":1.05,"y":1.05},"transform":{"x":0.0,"y":0.0}},"common_keyframes":[],"enable_adjust":true,"enable_color_curves":true,"enable_color_match_adjust":false,"enable_color_wheels":true,"enable_lut":true,"enable_smart_color_adjust":false,"extra_material_refs":["09FA99DA-33AB-45F7-9C5E-AA195CA28698","0C6910EB-4621-43BA-8D20-11294C3C512C","669AC2A5-80E1-44C7-9832-F493D861D31C","73D4361F-ACDA-49B5-8FD5-CC7713B45904","5B3CE806-72DC-457E-AEE2-822246E6F8FB","F38CB35B-CE26-4197-B54F-CF8A56089764"],"group_id":"","hdr_settings":{"intensity":1.0,"mode":1,"nits":1000},"id":"A212915E-AAA0-4C80-97AC-8B3A30F3437B","intensifies_audio":false,"is_placeholder":false,"is_tone_modify":false,"keyframe_refs":[],"last_nonzero_volume":1.0,"material_id":"36595770-0F54-408D-A521-B05F5866A9C5","render_index":8,"responsive_layout":{"enable":false,"horizontal_pos_layout":0,"size_layout":0,"target_follow":"","vertical_pos_layout":0},"reverse":false,"source_timerange":{"duration":8766667,"start":14509883333},"speed":1.100418543968079,"target_timerange":{"duration":7966667,"start":136183333},"template_id":"","template_scene":"default","track_attribute":0,"track_render_index":4,"uniform_scale":{"on":true,"value":1.0},"visible":true,"volume":1.0},{"cartoon":false,"clip":{"alpha":1.0,"flip":{"horizontal":false,"vertical":false},"rotation":0.0,"scale":{"x":1.0,"y":1.0},"transform":{"x":0.0,"y":0.0}},"common_keyframes":[{"id":"B0C49694-2B51-4AAC-A5F9-2FB52796DE27","keyframe_list":[{"curveType":"Line","graphID":"","id":"1E65AB97-1456-44F8-A6CA-065AD374AFBA","left_control":{"x":0.0,"y":0.0},"right_control":{"x":0.0,"y":0.0},"time_offset":1275000,"values":[1.0]},{"curveType":"Line","graphID":"","id":"DFE5146A-1502-42D9-BE90-4CDCF7DBB33F","left_control":{"x":0.0,"y":0.0},"right_control":{"x":0.0,"y":0.0},"time_offset":1916667,"values":[0.0]}],"material_id":"","property_type":"KFTypeAlpha"}],"enable_adjust":true,"enable_color_curves":true,"enable_color_match_adjust":false,"enable_color_wheels":true,"enable_lut":true,"enable_smart_color_adjust":false,"extra_material_refs":["21A5BCEE-6FED-495C-8817-FDD882097FB5","2222808E-9983-48A5-914C-FDF034F48696","ACFA6A5C-134C-4E24-974A-9EB1384C043D","6CE89021-A89E-40CD-911C-9F9EC60E9CED","B69EAECE-D936-4E73-8103-B485CD9FAF03","FABE80BA-3512-4960-B53B-AE9E82426398","8F8E5F7E-6B4D-4327-917D-A894ABB3DD22"],"group_id":"","hdr_settings":{"intensity":1.0,"mode":1,"nits":1000},"id":"25B1B19B-43F9-4BEB-9248-67648E6EC7B0","intensifies_audio":false,"is_placeholder":false,"is_tone_modify":false,"keyframe_refs":[],"last_nonzero_volume":1.0,"material_id":"83DBB49B-07DB-437F-A2D3-98F0674A71DC","render_index":4,"responsive_layout":{"enable":false,"horizontal_pos_layout":0,"size_layout":0,"target_follow":"","vertical_pos_layout":0},"reverse":false,"source_timerange":{"duration":1916666,"start":0},"speed":0.5,"target_timerange":{"duration":3833333,"start":144150000},"template_id":"","template_scene":"default","track_attribute":0,"track_render_index":4,"uniform_scale":{"on":true,"value":1.0},"visible":true,"volume":1.0},{"cartoon":false,"clip":{"alpha":0.0,"flip":{"horizontal":false,"vertical":false},"rotation":0.0,"scale":{"x":1.05,"y":1.05},"transform":{"x":0.0,"y":0.0}},"common_keyframes":[{"id":"A3FC8A02-D2BE-4CFA-B9B9-6E4CE6F157F8","keyframe_list":[{"curveType":"Line","graphID":"","id":"A5C6A0C6-4AD7-4093-9770-15D8D7B2E56D","left_control":{"x":0.0,"y":0.0},"right_control":{"x":0.0,"y":0.0},"time_offset":13342516666,"values":[0.0]},{"curveType":"Line","graphID":"","id":"A73D4B05-C4C6-42CB-BFEE-1BC1C7513FB7","left_control":{"x":0.0,"y":0.0},"right_control":{"x":0.0,"y":0.0},"time_offset":13343150000,"values":[1.0]},{"curveType":"Line","graphID":"","id":"F9572664-76F5-4B16-A408-64B0F982EC26","left_control":{"x":0.0,"y":0.0},"right_control":{"x":0.0,"y":0.0},"time_offset":13344125000,"values":[1.0]},{"curveType":"Line","graphID":"","id":"F21A5FD0-5170-484B-ABCC-1F57913486E1","left_control":{"x":0.0,"y":0.0},"right_control":{"x":0.0,"y":0.0},"time_offset":13344516666,"values":[0.0]}],"material_id":"","property_type":"KFTypeAlpha"}],"enable_adjust":true,"enable_color_curves":true,"enable_color_match_adjust":false,"enable_color_wheels":true,"enable_lut":true,"enable_smart_color_adjust":false,"extra_material_refs":["720C4FFB-6F0E-458B-AE7C-DE0907F67917","759F7F40-7474-46A9-82B7-630431FF1D1E","9CCFBF93-A572-43E0-AB52-B0F3D0AEB68B","76AF7945-9456-4006-AC38-76E7C7E52BAC","186A41B5-40B0-44D9-ADD3-CF33D349AF80"],"group_id":"","hdr_settings":{"intensity":1.0,"mode":1,"nits":1000},"id":"537580A2-6BA1-4BAE-83C7-CA6156826C15","intensifies_audio":false,"is_placeholder":false,"is_tone_modify":false,"keyframe_refs":[],"last_nonzero_volume":1.0,"material_id":"4271EA1C-091C-436E-8F8A-4D192A08A5D0","render_index":1,"responsive_layout":{"enable":false,"horizontal_pos_layout":0,"size_layout":0,"target_follow":"","vertical_pos_layout":0},"reverse":false,"source_timerange":{"duration":2000000,"start":13342516666},"speed":0.5,"target_timerange":{"duration":4000000,"start":149033333},"template_id":"","template_scene":"default","track_attribute":0,"track_render_index":4,"uniform_scale":{"on":true,"value":1.0},"visible":true,"volume":1.0}],"type":"video"},{"attribute":0,"flag":2,"id":"E49BA344-E733-4903-90E2-39B740356E16","is_default_name":true,"name":"","segments":[{"cartoon":false,"clip":{"alpha":0.0,"flip":{"horizontal":false,"vertical":false},"rotation":0.0,"scale":{"x":1.0,"y":1.0},"transform":{"x":0.0,"y":0.0}},"common_keyframes":[{"id":"5F204DD8-88F6-4DF1-8B51-006995C69911","keyframe_list":[{"curveType":"Line","graphID":"","id":"48F2959D-D80C-4324-A6AD-A8BCA99C5B4B","left_control":{"x":0.0,"y":0.0},"right_control":{"x":0.0,"y":0.0},"time_offset":1066666,"values":[0.0]},{"curveType":"Line","graphID":"","id":"5177915B-849E-4738-8534-78EA876C3159","left_control":{"x":0.0,"y":0.0},"right_control":{"x":0.0,"y":0.0},"time_offset":2033332,"values":[0.5]},{"curveType":"Line","graphID":"","id":"D3637E40-F244-4D33-A8D9-8D1A2BD6DE0B","left_control":{"x":0.0,"y":0.0},"right_control":{"x":0.0,"y":0.0},"time_offset":3463140,"values":[0.5]},{"curveType":"Line","graphID":"","id":"4E736601-7FD7-4448-AA20-71B9955166ED","left_control":{"x":0.0,"y":0.0},"right_control":{"x":0.0,"y":0.0},"time_offset":4596669,"values":[0.0]}],"material_id":"","property_type":"KFTypeAlpha"}],"enable_adjust":true,"enable_color_curves":true,"enable_color_match_adjust":false,"enable_color_wheels":true,"enable_lut":true,"enable_smart_color_adjust":false,"extra_material_refs":["769319CF-C87A-4B79-BF6F-B09E64E98971","DED4C222-C769-4910-B445-44C8C19044D8","299C7903-933C-41AC-90B6-46FF175DC663","46E7C25A-C2CB-4F00-B6F7-E974C94F0E49","9FF670BB-1D9A-46A5-A852-1BC78DF590E6","B0EE8CB1-7532-427F-8311-950D9536A738"],"group_id":"","hdr_settings":{"intensity":1.0,"mode":1,"nits":1000},"id":"3C6AFB14-C8C1-49F2-8CB2-4AE223106269","intensifies_audio":false,"is_placeholder":false,"is_tone_modify":false,"keyframe_refs":[],"last_nonzero_volume":1.0,"material_id":"6A80A75F-8F36-4B51-9682-94419B2F4FB4","render_index":2,"responsive_layout":{"enable":false,"horizontal_pos_layout":0,"size_layout":0,"target_follow":"","vertical_pos_layout":0},"reverse":false,"source_timerange":{"duration":3533334,"start":1066666},"speed":1.0,"target_timerange":{"duration":3533333,"start":86700000},"template_id":"","template_scene":"default","track_attribute":0,"track_render_index":5,"uniform_scale":{"on":true,"value":1.0},"visible":true,"volume":1.0},{"cartoon":false,"clip":{"alpha":0.0,"flip":{"horizontal":false,"vertical":false},"rotation":0.0,"scale":{"x":1.0,"y":1.0},"transform":{"x":0.0,"y":0.0}},"common_keyframes":[{"id":"CE629E16-B804-4AAA-9A8F-E7AA8BBEE771","keyframe_list":[{"curveType":"Line","graphID":"","id":"12F117F2-20AA-4A7A-B820-7F0F456E223F","left_control":{"x":0.0,"y":0.0},"right_control":{"x":0.0,"y":0.0},"time_offset":1736664,"values":[0.0]},{"curveType":"Line","graphID":"","id":"8F55AF0C-8560-4D5D-95F8-B042C8FDCB4E","left_control":{"x":0.0,"y":0.0},"right_control":{"x":0.0,"y":0.0},"time_offset":2703330,"values":[0.5]},{"curveType":"Line","graphID":"","id":"2C37FC1B-AC81-4D9A-BC7D-4C975F7752E8","left_control":{"x":0.0,"y":0.0},"right_control":{"x":0.0,"y":0.0},"time_offset":4133138,"values":[0.5]},{"curveType":"Line","graphID":"","id":"7A438A43-576F-4F8C-8E09-2C79D5CB6D0C","left_control":{"x":0.0,"y":0.0},"right_control":{"x":0.0,"y":0.0},"time_offset":5266667,"values":[0.0]}],"material_id":"","property_type":"KFTypeAlpha"}],"enable_adjust":true,"enable_color_curves":true,"enable_color_match_adjust":false,"enable_color_wheels":true,"enable_lut":true,"enable_smart_color_adjust":false,"extra_material_refs":["2143D714-1BFB-47D1-92ED-48C2DC23F45D","EE7154C6-657A-404F-8D0E-B43D074CCBC6","39C7ACAF-FAB9-420C-928E-0CB57C1BF26E","34F14A7D-F88D-4A07-9F51-FF3742082AB4","3F9247F3-1693-4AE3-A425-9E4C81A9B711","46BF32C2-EF0F-44AD-9497-C5A8C4D93C2F"],"group_id":"","hdr_settings":{"intensity":1.0,"mode":1,"nits":1000},"id":"3612BC30-4E6D-420A-B8ED-7F4E5276FE56","intensifies_audio":false,"is_placeholder":false,"is_tone_modify":false,"keyframe_refs":[],"last_nonzero_volume":1.0,"material_id":"8930CD80-F32E-4B63-80FF-732F4A72A99E","render_index":10,"responsive_layout":{"enable":false,"horizontal_pos_layout":0,"size_layout":0,"target_follow":"","vertical_pos_layout":0},"reverse":false,"source_timerange":{"duration":3550000,"start":1733333},"speed":1.0,"target_timerange":{"duration":3550000,"start":91566666},"template_id":"","template_scene":"default","track_attribute":0,"track_render_index":5,"uniform_scale":{"on":true,"value":1.0},"visible":true,"volume":1.0},{"cartoon":false,"clip":{"alpha":1.0,"flip":{"horizontal":false,"vertical":false},"rotation":0.0,"scale":{"x":1.0,"y":1.0},"transform":{"x":0.0,"y":0.0}},"common_keyframes":[{"id":"E1AF0E3A-CFB1-4E02-A02C-0808BAF3872C","keyframe_list":[{"curveType":"Line","graphID":"","id":"BEAB7F75-AAEB-46E2-BF74-7DCDCF721E3C","left_control":{"x":0.0,"y":0.0},"right_control":{"x":0.0,"y":0.0},"time_offset":2166666,"values":[0.0]},{"curveType":"Line","graphID":"","id":"8FDC54E6-6395-4377-8ABA-B6EE54F9132C","left_control":{"x":0.0,"y":0.0},"right_control":{"x":0.0,"y":0.0},"time_offset":3133332,"values":[0.5]},{"curveType":"Line","graphID":"","id":"09AE1371-DAA6-4CF8-AE11-1BE6493BA58A","left_control":{"x":0.0,"y":0.0},"right_control":{"x":0.0,"y":0.0},"time_offset":4563140,"values":[0.5]},{"curveType":"Line","graphID":"","id":"E1C1CDA0-49AB-48DF-B418-6ACD979FDD33","left_control":{"x":0.0,"y":0.0},"right_control":{"x":0.0,"y":0.0},"time_offset":5696669,"values":[0.0]}],"material_id":"","property_type":"KFTypeAlpha"}],"enable_adjust":true,"enable_color_curves":true,"enable_color_match_adjust":false,"enable_color_wheels":true,"enable_lut":true,"enable_smart_color_adjust":false,"extra_material_refs":["3C4A9B4F-5250-4E3D-83BE-A809127D2DB9","6A4DCA4B-6BDD-4AB9-9719-525DF2EC89EA","DCE7DBD1-FF1F-4C71-B778-1BBDA2168C3C","501F7ECD-4FFC-403B-A4FC-4425E267CB45","B5FCB1E1-DBA0-4AD8-A2BD-7769223C5096","AA6B26BB-6D36-4E63-935C-CF9B37F01B58"],"group_id":"","hdr_settings":{"intensity":1.0,"mode":1,"nits":1000},"id":"00C354F7-C40E-4237-91B0-CADE068895F0","intensifies_audio":false,"is_placeholder":false,"is_tone_modify":false,"keyframe_refs":[],"last_nonzero_volume":1.0,"material_id":"3803F2E6-AEE6-41BD-9381-340BFF7ECA8E","render_index":21,"responsive_layout":{"enable":false,"horizontal_pos_layout":0,"size_layout":0,"target_follow":"","vertical_pos_layout":0},"reverse":false,"source_timerange":{"duration":3533334,"start":2166666},"speed":1.0,"target_timerange":{"duration":3533333,"start":95850000},"template_id":"","template_scene":"default","track_attribute":0,"track_render_index":5,"uniform_scale":{"on":true,"value":1.0},"visible":true,"volume":1.0},{"cartoon":false,"clip":{"alpha":0.0,"flip":{"horizontal":false,"vertical":false},"rotation":0.0,"scale":{"x":1.0,"y":1.0},"transform":{"x":0.0,"y":0.0}},"common_keyframes":[{"id":"5867C091-A4AE-4BAF-BDBD-A31D84D2CDDE","keyframe_list":[{"curveType":"Line","graphID":"","id":"45D379A5-C970-49DC-A685-BC8A4CC5B003","left_control":{"x":0.0,"y":0.0},"right_control":{"x":0.0,"y":0.0},"time_offset":0,"values":[0.0]},{"curveType":"Line","graphID":"","id":"1A13D4C4-DE55-45E1-8AD4-B35F1AB83117","left_control":{"x":0.0,"y":0.0},"right_control":{"x":0.0,"y":0.0},"time_offset":300000,"values":[1.0]},{"curveType":"Line","graphID":"","id":"4CC74C9D-50DB-4098-8E36-1C64DE335151","left_control":{"x":0.0,"y":0.0},"right_control":{"x":0.0,"y":0.0},"time_offset":600000,"values":[0.0]}],"material_id":"","property_type":"KFTypeAlpha"}],"enable_adjust":true,"enable_color_curves":true,"enable_color_match_adjust":false,"enable_color_wheels":true,"enable_lut":true,"enable_smart_color_adjust":false,"extra_material_refs":["77B8277C-DD53-4870-9594-D35BEA60D23F","FF14416B-00B5-43F7-BC00-B5D5DF65D185","691FB35A-BA7C-4071-A201-D41BDEF85C6B","FF42A9AC-2650-43B5-AF48-CFADE97FDCDE","57053FBE-DCCD-4C74-8F35-1E01BD0E4016"],"group_id":"","hdr_settings":{"intensity":1.0,"mode":1,"nits":1000},"id":"305D3344-CD51-43BB-9968-406368FB113B","intensifies_audio":false,"is_placeholder":false,"is_tone_modify":false,"keyframe_refs":[],"last_nonzero_volume":1.0,"material_id":"45C93BEC-DCF7-4E72-A28E-1959533F4211","render_index":23,"responsive_layout":{"enable":false,"horizontal_pos_layout":0,"size_layout":0,"target_follow":"","vertical_pos_layout":0},"reverse":false,"source_timerange":{"duration":600000,"start":0},"speed":1.0,"target_timerange":{"duration":600000,"start":108716666},"template_id":"","template_scene":"default","track_attribute":0,"track_render_index":5,"uniform_scale":{"on":true,"value":1.0},"visible":true,"volume":1.0},{"cartoon":false,"clip":{"alpha":0.0,"flip":{"horizontal":false,"vertical":false},"rotation":0.0,"scale":{"x":1.0,"y":1.0},"transform":{"x":0.0,"y":0.0}},"common_keyframes":[{"id":"5F20F252-0E5D-40A7-A50A-16F5C77E0AA7","keyframe_list":[{"curveType":"Line","graphID":"","id":"C2B096FF-FD64-425F-8EAE-F1DEF7A570E0","left_control":{"x":0.0,"y":0.0},"right_control":{"x":0.0,"y":0.0},"time_offset":0,"values":[0.0]},{"curveType":"Line","graphID":"","id":"2018CE96-2810-4FF9-AD00-69E0383620EA","left_control":{"x":0.0,"y":0.0},"right_control":{"x":0.0,"y":0.0},"time_offset":383333,"values":[1.0]},{"curveType":"Line","graphID":"","id":"30C71493-A065-4BF1-A8EB-66E79CDBA1EA","left_control":{"x":0.0,"y":0.0},"right_control":{"x":0.0,"y":0.0},"time_offset":766666,"values":[0.0]}],"material_id":"","property_type":"KFTypeAlpha"}],"enable_adjust":true,"enable_color_curves":true,"enable_color_match_adjust":false,"enable_color_wheels":true,"enable_lut":true,"enable_smart_color_adjust":false,"extra_material_refs":["C437588B-1AFB-425C-A994-5C1B55AB67EE","C5B09A86-11E1-42D8-B672-D499F0250A3A","F8635CD0-9742-404F-9F08-C2043D67064A","5DAAB363-C0CB-465C-B175-67A4EE3F4A2C","F26343FA-7D42-47C0-A052-2BAE87D6BB14"],"group_id":"","hdr_settings":{"intensity":1.0,"mode":1,"nits":1000},"id":"79485EB3-DF4C-4933-B117-2F816212ADE4","intensifies_audio":false,"is_placeholder":false,"is_tone_modify":false,"keyframe_refs":[],"last_nonzero_volume":1.0,"material_id":"C9B20291-5A31-413E-BDCF-B344C350471F","render_index":12,"responsive_layout":{"enable":false,"horizontal_pos_layout":0,"size_layout":0,"target_follow":"","vertical_pos_layout":0},"reverse":false,"source_timerange":{"duration":766666,"start":0},"speed":1.0,"target_timerange":{"duration":766666,"start":112550000},"template_id":"","template_scene":"default","track_attribute":0,"track_render_index":5,"uniform_scale":{"on":true,"value":1.0},"visible":true,"volume":1.0},{"cartoon":false,"clip":{"alpha":0.0,"flip":{"horizontal":false,"vertical":false},"rotation":0.0,"scale":{"x":1.0,"y":1.0},"transform":{"x":0.0,"y":0.0}},"common_keyframes":[{"id":"9C1F8667-5416-4C03-AE33-E689DEECDE07","keyframe_list":[{"curveType":"Line","graphID":"","id":"A9A4CF14-4158-48E8-ACCB-C85C55EF02FF","left_control":{"x":0.0,"y":0.0},"right_control":{"x":0.0,"y":0.0},"time_offset":0,"values":[0.0]},{"curveType":"Line","graphID":"","id":"BA91E979-6914-46D4-8E50-050A4CD4133E","left_control":{"x":0.0,"y":0.0},"right_control":{"x":0.0,"y":0.0},"time_offset":300000,"values":[1.0]},{"curveType":"Line","graphID":"","id":"4E4B87C2-8A9B-46D3-B0D4-C6910AD299A2","left_control":{"x":0.0,"y":0.0},"right_control":{"x":0.0,"y":0.0},"time_offset":600000,"values":[0.0]}],"material_id":"","property_type":"KFTypeAlpha"}],"enable_adjust":true,"enable_color_curves":true,"enable_color_match_adjust":false,"enable_color_wheels":true,"enable_lut":true,"enable_smart_color_adjust":false,"extra_material_refs":["8C1A2E3F-DC99-4FFF-A570-BF43F296A437","82874E2F-8EA6-474F-BFB7-B6576053AFF6","AA2217BE-4243-4C9F-9555-35DD2138CD3E","1FF1B6AB-BB9E-4375-8FB5-85A730AEC7A0","A0750D62-62E4-4595-AFF2-B13BDE4B38B2"],"group_id":"","hdr_settings":{"intensity":1.0,"mode":1,"nits":1000},"id":"12ABA46E-5D13-4BA3-A292-F92B0C7CC9E0","intensifies_audio":false,"is_placeholder":false,"is_tone_modify":false,"keyframe_refs":[],"last_nonzero_volume":1.0,"material_id":"B9B26DD3-13A2-4F2C-90D2-4A1B9A5D2122","render_index":12,"responsive_layout":{"enable":false,"horizontal_pos_layout":0,"size_layout":0,"target_follow":"","vertical_pos_layout":0},"reverse":false,"source_timerange":{"duration":600000,"start":0},"speed":1.0,"target_timerange":{"duration":600000,"start":114166666},"template_id":"","template_scene":"default","track_attribute":0,"track_render_index":5,"uniform_scale":{"on":true,"value":1.0},"visible":true,"volume":1.0},{"cartoon":false,"clip":{"alpha":0.0,"flip":{"horizontal":false,"vertical":false},"rotation":0.0,"scale":{"x":1.05,"y":1.05},"transform":{"x":0.0,"y":0.0}},"common_keyframes":[{"id":"DB97B558-0AAE-4C9C-AF95-5070882A7B99","keyframe_list":[{"curveType":"Line","graphID":"","id":"97A177C9-33C1-4B99-AB08-08EE8A0B74BE","left_control":{"x":0.0,"y":0.0},"right_control":{"x":0.0,"y":0.0},"time_offset":10840166666,"values":[0.0]},{"curveType":"Line","graphID":"","id":"1BC71757-ECC5-4DD5-8549-F6D47B61D738","left_control":{"x":0.0,"y":0.0},"right_control":{"x":0.0,"y":0.0},"time_offset":10840356666,"values":[0.3]},{"curveType":"Line","graphID":"","id":"C3F52E9A-223F-4D10-B103-1A7186142D5B","left_control":{"x":0.0,"y":0.0},"right_control":{"x":0.0,"y":0.0},"time_offset":10840946666,"values":[0.3]},{"curveType":"Line","graphID":"","id":"A5BF8877-5282-471E-844C-6AB065485AD2","left_control":{"x":0.0,"y":0.0},"right_control":{"x":0.0,"y":0.0},"time_offset":10841231666,"values":[0.0]}],"material_id":"","property_type":"KFTypeAlpha"}],"enable_adjust":true,"enable_color_curves":true,"enable_color_match_adjust":false,"enable_color_wheels":true,"enable_lut":true,"enable_smart_color_adjust":false,"extra_material_refs":["BC8FE6E1-0E63-4050-9DBD-6A02B9111801","57C98CA0-1B3C-461C-9D76-92420CD2492E","722F77F6-33C8-426A-8E23-1EC7F00E0295","C9852FF9-7F58-4E2A-8046-57DC55FCBDC0","1235836B-9167-4FFA-B810-B3B146135E19","D85409E2-7544-4F2F-934F-5EFCDE6F820A"],"group_id":"","hdr_settings":{"intensity":1.0,"mode":1,"nits":1000},"id":"DE1B9B65-DF56-4A2D-A8DB-1FAC6CBF84D2","intensifies_audio":false,"is_placeholder":false,"is_tone_modify":false,"keyframe_refs":[],"last_nonzero_volume":1.0,"material_id":"D6435348-6C31-4F6B-9D07-2D7FFDA8D03A","render_index":2,"responsive_layout":{"enable":false,"horizontal_pos_layout":0,"size_layout":0,"target_follow":"","vertical_pos_layout":0},"reverse":false,"source_timerange":{"duration":1063335,"start":10840166666},"speed":0.20000000000000015,"target_timerange":{"duration":5316667,"start":119716666},"template_id":"","template_scene":"default","track_attribute":0,"track_render_index":5,"uniform_scale":{"on":true,"value":1.0},"visible":true,"volume":1.0}],"type":"video"},{"attribute":0,"flag":2,"id":"19F4C939-6FA3-4A9D-9707-80845763E213","is_default_name":true,"name":"","segments":[{"cartoon":false,"clip":{"alpha":0.0,"flip":{"horizontal":false,"vertical":false},"rotation":0.0,"scale":{"x":1.05,"y":1.05},"transform":{"x":0.0,"y":0.0}},"common_keyframes":[{"id":"B8A68670-370C-4A5C-9F24-CA1FB6D3B625","keyframe_list":[{"curveType":"Line","graphID":"","id":"EBA8BBC5-DA09-4EA7-8938-800907A81B4E","left_control":{"x":0.0,"y":0.0},"right_control":{"x":0.0,"y":0.0},"time_offset":9336827097,"values":[0.0]},{"curveType":"Line","graphID":"","id":"2D195789-5D59-40AB-ADA5-FAEA19EC0A75","left_control":{"x":0.0,"y":0.0},"right_control":{"x":0.0,"y":0.0},"time_offset":9337860430,"values":[0.47]},{"curveType":"Line","graphID":"","id":"9780C27D-691E-4FC6-A199-3DEAD608C1BF","left_control":{"x":0.0,"y":0.0},"right_control":{"x":0.0,"y":0.0},"time_offset":9337877097,"values":[0.4]},{"curveType":"Line","graphID":"","id":"F99B18F9-1E40-44A1-AA51-85BA77E80062","left_control":{"x":0.0,"y":0.0},"right_control":{"x":0.0,"y":0.0},"time_offset":9346093764,"values":[0.4]},{"curveType":"Line","graphID":"","id":"44C4E5E1-1C4D-4C6C-9718-529CC1CF87FA","left_control":{"x":0.0,"y":0.0},"right_control":{"x":0.0,"y":0.0},"time_offset":9347360430,"values":[0.0]}],"material_id":"","property_type":"KFTypeAlpha"}],"enable_adjust":true,"enable_color_curves":true,"enable_color_match_adjust":false,"enable_color_wheels":true,"enable_lut":true,"enable_smart_color_adjust":false,"extra_material_refs":["611B7A43-D9CF-4E7E-AA45-9DCFE81163A4","FD948115-5FDE-4475-A035-653EB13293A7","0E9CB5BB-65CC-4C0F-B07D-65A70E455B71","33569049-1934-471D-B250-B8B12B897EA3","914D4D9B-A14E-4BDC-A3CA-2103C8AEA771"],"group_id":"","hdr_settings":{"intensity":1.0,"mode":1,"nits":1000},"id":"04EA0726-1E9D-449D-84FF-FD9B1912FCAD","intensifies_audio":false,"is_placeholder":false,"is_tone_modify":false,"keyframe_refs":[],"last_nonzero_volume":1.0,"material_id":"782B8190-1A3A-43C3-92E8-CCE0EB77F198","render_index":14,"responsive_layout":{"enable":false,"horizontal_pos_layout":0,"size_layout":0,"target_follow":"","vertical_pos_layout":0},"reverse":false,"source_timerange":{"duration":10516667,"start":9336833333},"speed":1.0,"target_timerange":{"duration":10533333,"start":99683333},"template_id":"","template_scene":"default","track_attribute":0,"track_render_index":6,"uniform_scale":{"on":true,"value":1.0},"visible":true,"volume":1.0}],"type":"video"},{"attribute":0,"flag":0,"id":"CFE7C03C-6BB2-41DA-ACAA-202AEC982536","is_default_name":true,"name":"","segments":[{"cartoon":false,"clip":null,"common_keyframes":[],"enable_adjust":false,"enable_color_curves":true,"enable_color_match_adjust":false,"enable_color_wheels":true,"enable_lut":false,"enable_smart_color_adjust":false,"extra_material_refs":["CE7F66A2-0DAE-4806-B599-51C41B591102","F2811FA8-C785-4483-AAC8-3AA36059FAB0","130D44D0-63E9-412F-A5E7-AF33E9A711B6","60D3869C-619C-4433-BCAF-8FD9649419A3"],"group_id":"","hdr_settings":null,"id":"1E6C2E4E-6D45-4B5C-923A-D23820F15240","intensifies_audio":false,"is_placeholder":false,"is_tone_modify":false,"keyframe_refs":[],"last_nonzero_volume":1.0,"material_id":"F1EEF99C-7C67-4DDC-9C53-12CC67BE167F","render_index":0,"responsive_layout":{"enable":false,"horizontal_pos_layout":0,"size_layout":0,"target_follow":"","vertical_pos_layout":0},"reverse":false,"source_timerange":{"duration":4183333,"start":0},"speed":1.0,"target_timerange":{"duration":4183333,"start":87000000},"template_id":"","template_scene":"default","track_attribute":0,"track_render_index":0,"uniform_scale":null,"visible":true,"volume":1.0},{"cartoon":false,"clip":null,"common_keyframes":[],"enable_adjust":false,"enable_color_curves":true,"enable_color_match_adjust":false,"enable_color_wheels":true,"enable_lut":false,"enable_smart_color_adjust":false,"extra_material_refs":["DAC50FED-36EE-472B-BEAA-68EC8F2E9C92","BBD525F1-35E8-4BA4-BB6F-23E3DF16C954","08B6774B-4EFE-40E1-895F-225BA7361E74","68F7E95E-E763-4C3C-98C6-E944718EAF81"],"group_id":"","hdr_settings":null,"id":"6DCA029C-298B-4B2D-88C3-8F62484C9DAC","intensifies_audio":false,"is_placeholder":false,"is_tone_modify":false,"keyframe_refs":[],"last_nonzero_volume":1.0,"material_id":"FC0CF5D1-CB71-4352-8C63-AA0A72051283","render_index":0,"responsive_layout":{"enable":false,"horizontal_pos_layout":0,"size_layout":0,"target_follow":"","vertical_pos_layout":0},"reverse":false,"source_timerange":{"duration":4666666,"start":0},"speed":1.0,"target_timerange":{"duration":4666667,"start":91183333},"template_id":"","template_scene":"default","track_attribute":0,"track_render_index":0,"uniform_scale":null,"visible":true,"volume":1.0},{"cartoon":false,"clip":null,"common_keyframes":[],"enable_adjust":false,"enable_color_curves":true,"enable_color_match_adjust":false,"enable_color_wheels":true,"enable_lut":false,"enable_smart_color_adjust":false,"extra_material_refs":["36CCA2A3-521B-4C54-B6EC-71D8649051CD","4D92BAB2-431B-4D12-A48B-3397F0F884D8","DE922033-AAF1-40A5-86C0-51D513F541DA","62FAB79C-FA63-4CA9-B39A-73779018BEAE"],"group_id":"","hdr_settings":null,"id":"C2BEA4C6-DB02-4BB2-8461-11B9B3CCB3C0","intensifies_audio":false,"is_placeholder":false,"is_tone_modify":false,"keyframe_refs":[],"last_nonzero_volume":1.0,"material_id":"64A63A7C-2F70-4A45-B33F-CA3CA3680E0C","render_index":0,"responsive_layout":{"enable":false,"horizontal_pos_layout":0,"size_layout":0,"target_follow":"","vertical_pos_layout":0},"reverse":false,"source_timerange":{"duration":5666666,"start":0},"speed":1.0,"target_timerange":{"duration":5666666,"start":96150000},"template_id":"","template_scene":"default","track_attribute":0,"track_render_index":0,"uniform_scale":null,"visible":true,"volume":1.0},{"cartoon":false,"clip":null,"common_keyframes":[],"enable_adjust":false,"enable_color_curves":true,"enable_color_match_adjust":false,"enable_color_wheels":true,"enable_lut":false,"enable_smart_color_adjust":false,"extra_material_refs":["A20C44C0-3A75-4F9C-A0AF-0CFB39875426","941AD368-E05D-473C-9B58-CD9905CA1D94","BFE82579-BD9C-4527-962B-CB1182D04ED5","7CBA07D7-2A96-45EA-8E94-14590C8CE0B6"],"group_id":"","hdr_settings":null,"id":"495D8B30-A20C-45D6-9AA7-90D5B350358F","intensifies_audio":false,"is_placeholder":false,"is_tone_modify":false,"keyframe_refs":[],"last_nonzero_volume":1.0,"material_id":"75A35BEA-BEB5-4090-813B-D6BFB05D2571","render_index":0,"responsive_layout":{"enable":false,"horizontal_pos_layout":0,"size_layout":0,"target_follow":"","vertical_pos_layout":0},"reverse":false,"source_timerange":{"duration":9600000,"start":0},"speed":1.0,"target_timerange":{"duration":9600000,"start":109266666},"template_id":"","template_scene":"default","track_attribute":0,"track_render_index":0,"uniform_scale":null,"visible":true,"volume":1.0},{"cartoon":false,"clip":null,"common_keyframes":[],"enable_adjust":false,"enable_color_curves":true,"enable_color_match_adjust":false,"enable_color_wheels":true,"enable_lut":false,"enable_smart_color_adjust":false,"extra_material_refs":["6190CD93-F0FF-4F1F-AF5D-26B35824127D","BA26EDB8-0BD7-4F97-ADF5-BC4959B74360","AE939DD1-928B-430F-BC8C-5ADF82971616","94111F1E-CC88-46A8-82B3-51211FA51951","8B3C4E18-9DE6-49CA-880B-AA3AF6556A16"],"group_id":"","hdr_settings":null,"id":"BEC616EA-15B0-456E-857D-EA55D69B1000","intensifies_audio":false,"is_placeholder":false,"is_tone_modify":false,"keyframe_refs":[],"last_nonzero_volume":1.0,"material_id":"3A04AAEF-484D-4D8E-AD36-AC3E054A7716","render_index":0,"responsive_layout":{"enable":false,"horizontal_pos_layout":0,"size_layout":0,"target_follow":"","vertical_pos_layout":0},"reverse":false,"source_timerange":{"duration":6933333,"start":0},"speed":1.0,"target_timerange":{"duration":6933334,"start":119866666},"template_id":"","template_scene":"default","track_attribute":0,"track_render_index":0,"uniform_scale":null,"visible":true,"volume":0.6247326731681824}],"type":"audio"},{"attribute":0,"flag":0,"id":"5825D6B2-91ED-45F2-96FA-C4C000CD814C","is_default_name":true,"name":"","segments":[{"cartoon":false,"clip":null,"common_keyframes":[],"enable_adjust":false,"enable_color_curves":true,"enable_color_match_adjust":false,"enable_color_wheels":true,"enable_lut":false,"enable_smart_color_adjust":false,"extra_material_refs":["8B2A779C-8DBA-45F2-9FAB-B87547751F42","CFED5FD3-6BBD-4250-A704-4CECBCDE66C3","DB68DBFE-4014-4753-B2A0-E30C7F3C6D79","7E8695A5-1E6C-40C2-AA87-EF35A0DBD8F6"],"group_id":"","hdr_settings":null,"id":"75D045C6-5978-431E-AC4C-85001AC27C41","intensifies_audio":false,"is_placeholder":false,"is_tone_modify":false,"keyframe_refs":[],"last_nonzero_volume":1.0,"material_id":"445A59A6-9921-4610-AE8E-54FACD6A9528","render_index":0,"responsive_layout":{"enable":false,"horizontal_pos_layout":0,"size_layout":0,"target_follow":"","vertical_pos_layout":0},"reverse":false,"source_timerange":{"duration":149533333,"start":0},"speed":1.0,"target_timerange":{"duration":149533333,"start":3500000},"template_id":"","template_scene":"default","track_attribute":0,"track_render_index":0,"uniform_scale":null,"visible":true,"volume":0.7079457640647888}],"type":"audio"},{"attribute":0,"flag":0,"id":"9A4F68F2-EC64-4003-A2AC-9A39D6355CFF","is_default_name":true,"name":"","segments":[{"cartoon":false,"clip":null,"common_keyframes":[],"enable_adjust":false,"enable_color_curves":true,"enable_color_match_adjust":false,"enable_color_wheels":true,"enable_lut":false,"enable_smart_color_adjust":false,"extra_material_refs":["79B084C5-902E-4261-9EB3-F56C17E9103D","2C85AE24-9253-4F49-B633-AC3ABD21BC7C","16A561B1-AAAF-4ED0-9B74-6A76AEF6170A","753190CA-1B8A-4167-AA99-A2F4B81C4638"],"group_id":"","hdr_settings":null,"id":"0571C04E-9DFC-4018-98EF-F0F5E6B64118","intensifies_audio":false,"is_placeholder":false,"is_tone_modify":false,"keyframe_refs":[],"last_nonzero_volume":1.0,"material_id":"2D4E24FA-BF4E-4306-A6E9-3D249FD16F51","render_index":0,"responsive_layout":{"enable":false,"horizontal_pos_layout":0,"size_layout":0,"target_follow":"","vertical_pos_layout":0},"reverse":false,"source_timerange":{"duration":6133333,"start":0},"speed":1.0,"target_timerange":{"duration":6133333,"start":3500000},"template_id":"","template_scene":"default","track_attribute":0,"track_render_index":0,"uniform_scale":null,"visible":true,"volume":1.0},{"cartoon":false,"clip":null,"common_keyframes":[],"enable_adjust":false,"enable_color_curves":true,"enable_color_match_adjust":false,"enable_color_wheels":true,"enable_lut":false,"enable_smart_color_adjust":false,"extra_material_refs":["3A66EBB1-43F4-4B0F-AE4B-B455BB4A4FEE","C25C4DFA-46D2-4D8F-944A-173F8EFF92FF","67F9DA75-53ED-4D9D-8C9B-BD9531A04CDF","3F197B63-2F9C-4CD9-AE38-95D67706CD87"],"group_id":"","hdr_settings":null,"id":"7C18A5B0-71FC-4B2B-A307-7BE8CACA4B37","intensifies_audio":false,"is_placeholder":false,"is_tone_modify":false,"keyframe_refs":[],"last_nonzero_volume":1.0,"material_id":"A3E11BA4-BEFD-41ED-8C1F-4A0F772D7864","render_index":0,"responsive_layout":{"enable":false,"horizontal_pos_layout":0,"size_layout":0,"target_follow":"","vertical_pos_layout":0},"reverse":false,"source_timerange":{"duration":6133333,"start":0},"speed":1.0,"target_timerange":{"duration":6133334,"start":36316666},"template_id":"","template_scene":"default","track_attribute":0,"track_render_index":0,"uniform_scale":null,"visible":true,"volume":1.0}],"type":"audio"}],"update_time":0,"version":360000}